SplineFontDB: 3.2
FontName: Machaut
FullName: Machaut
FamilyName: Machaut
Weight: Regular
Copyright: (c) Robert Piechaud 2020. Machaut font is dedicated to medieval music and designed for the package MEDIEVAL for FINALE. It cannot be sold separately.
Version: 1.00
ItalicAngle: 0
UnderlinePosition: -82
UnderlineWidth: 9
Ascent: 800
Descent: 200
InvalidEm: 0
LayerCount: 2
Layer: 0 0 "Back" 1
Layer: 1 0 "Fore" 0
UniqueID: 4909797
FSType: 0
OS2Version: 0
OS2_WeightWidthSlopeOnly: 0
OS2_UseTypoMetrics: 0
CreationTime: 1241828086
ModificationTime: 1593469654
PfmFamily: 17
TTFWeight: 400
TTFWidth: 5
LineGap: 90
VLineGap: 0
OS2TypoAscent: 0
OS2TypoAOffset: 1
OS2TypoDescent: 0
OS2TypoDOffset: 1
OS2TypoLinegap: 90
OS2WinAscent: 0
OS2WinAOffset: 1
OS2WinDescent: 0
OS2WinDOffset: 1
HheadAscent: 0
HheadAOffset: 1
HheadDescent: 0
HheadDOffset: 1
OS2Vendor: 'PfEd'
OS2CodePages: 80000000.00000000
MarkAttachClasses: 1
DEI: 91125
LangName: 1033
Encoding: Custom
UnicodeInterp: none
NameList: Adobe Glyph List
DisplaySize: -96
AntiAlias: 1
FitToEm: 1
WinInfo: 110 11 5
BeginPrivate: 9
BlueValues 17 [ -12 7 107 130 ]
BlueScale 7 0.04438
BlueShift 1 7
BlueFuzz 1 1
StdHW 6 [ 19 ]
StdVW 6 [ 26 ]
ForceBold 5 false
StemSnapH 9 [ 19 30 ]
StemSnapV 9 [ 26 58 ]
EndPrivate
Grid
-1000 -625.5 m 0
 2000 -625.5 l 1024
  Named: "-625 (+AD0A-3.5 sp)"
-266 1300 m 0
 -266 -700 l 1024
-57.5 1300 m 0
 -57.5 -700 l 1024
436 -104 m 0
 -1851 -104 l 0
 436 -104 l 0
  Named: "brevis lower"
436 99 m 0
 -999.75 99 l 0
 436 99 l 0
  Named: "brevis upper"
-1000 375.851257324 m 0
 2000 375.851257324 l 1024
  Named: "375"
-256.5 1300 m 0
 -256.5 -700 l 1024
-1000 500 m 0
 2000 500 l 1024
  Named: "500 (2 sp)"
-1000 -249 m 0
 2000 -249 l 1024
  Named: "-250 (1 sp)"
-1000 125 m 0
 2000 125 l 1024
  Named: "125 (0.5 sp)"
-1000 250 m 0
 2000 250 l 1024
  Named: "250 (1 sp)"
-1000 -125 m 0
 2000 -125 l 1024
  Named: "-125"
-1000 -750 m 0
 2000 -750 l 1024
  Named: "-750 (+AD0A-3 sp)"
-1000 -500 m 0
 2000 -500 l 1024

StartChar: chantQuilisma
Encoding: 33 33 1
AltUni2: 00e99b.ffffffff.0 00f021.ffffffff.0
Width: 128
Flags: HMW
HStem: -1 21G 256 20G
LayerCount: 2
Fore
SplineSet
127.5 68 m 0
 127.5 76.55078125 128.514648438 92.3115234375 134.374023438 92.3115234375 c 0
 136.958984375 92.3115234375 138.99609375 89.79296875 139.5 87.75 c 0
 140.673828125 82.9921875 141.985351562 70.439453125 142 57.375 c 0
 142 -4 l 2
 142 -33.9713197204 133.336914062 -55.7451171875 119.329101562 -55.7451171875 c 0
 108.3984375 -55.7451171875 102.177929985 -51.1914459673 98 -42 c 0
 96.8321484787 -37.328593915 96.6964097149 -24 92 -24 c 1
 89.5589733992 -41.0871862057 83.281104571 -68.375 67.0625 -68.375 c 0
 58.3125 -68.375 52.625 -62.25 50 -50 c 0
 48.3288280059 -40.8085540327 46.6576560119 -36.5045357744 45.5698934686 -36.5045357744 c 0
 44.1328870182 -36.5045357744 41.5575327282 -54.9822054463 41 -60 c 0
 39 -72 30.5 -79 20.5 -79 c 0
 9.5 -79 5 -76 3 -70 c 0
 1 -63 0 -49 0 -27 c 0
 0 -26 0 -7 0 30 c 0
 0 38.9634039137 0.787529809203 45.0833333333 4.80589849108 45.0833333333 c 0
 9.21913580247 45.0833333333 11.0555555556 37.0555555556 12 21 c 0
 13 4 18 -4 27 -4 c 0
 36 -4 40 11 40 41 c 0
 40 48 40 51 40 52 c 0
 40.8264864889 54.4794594667 42.1203233025 55.3765041588 44.3704752879 55.3765041588 c 0
 45.9902829094 55.3765041588 47.4315939541 55.1737429895 48.5548646513 54.2727272727 c 0
 52.0089925569 51.5020473835 54 42.5189861703 54 27 c 0
 54 12 58 4 66 4 c 1
 80.8586929274 6.47644882124 84.2601295887 10.6576694771 84.2601295887 31.0683029948 c 0
 84.2601295887 36.4014173805 83.9684013655 44.2021330928 83.9684013655 49.5076142882 c 0
 83.9684013655 61.6506535203 84.4728921025 67.8312279786 89.2837844637 67.8312279786 c 0
 95.2517466122 67.8312279786 96 65.4612220891 96 55 c 0
 96 29.3706387006 99.0827083853 16.686291501 114.313708499 16.686291501 c 0
 125.555468937 16.686291501 127.5 38.0873953337 127.5 68 c 0
EndSplineSet
EndChar

StartChar: chantPunctumCavum
Encoding: 34 34 2
AltUni2: 00e998.ffffffff.0 00f022.ffffffff.0
Width: 138
VWidth: 1080
Flags: MW
HStem: 0 22.68G 525.96 21.6G
LayerCount: 2
Fore
SplineSet
138.240234375 -75.599609375 m 1
 103.6796875 -65.8798828125 93.9599609375 -62.91015625 71.8203125 -62.91015625 c 0
 40.5 -62.91015625 12.9599609375 -65.8798828125 0 -75.599609375 c 1
 0 68.0400390625 l 1
 9.7197265625 75.599609375 36.7197265625 78.83984375 81 78.83984375 c 0
 93.5498046875 78.83984375 109.549804688 76.2509765625 130.544921875 71.07421875 c 0
 136.634765625 69.572265625 138.240234375 65.05078125 138.240234375 56.916015625 c 2
 138.240234375 -75.599609375 l 1
120.34375 5.4052734375 m 0
 120.34375 39.7509765625 104.938476562 57.78515625 74.126953125 57.78515625 c 0
 72.5 57.78515625 70.83203125 57.734375 69.1201171875 57.634765625 c 0
 34.970703125 55.625 17.8955078125 38.55078125 17.8955078125 5.4052734375 c 0
 17.8955078125 -29.748046875 34.970703125 -46.8232421875 69.1201171875 -46.8232421875 c 0
 103.26953125 -46.8232421875 120.34375 -28.7431640625 120.34375 5.4052734375 c 0
EndSplineSet
Validated: 1
EndChar

StartChar: chantPunctumCavumTriplum
Encoding: 35 35 3
AltUni2: 00f023.ffffffff.0
Width: 410
VWidth: 1080
Flags: MW
VStem: 46.44 31.32 183.6 31.32
LayerCount: 2
Fore
SplineSet
410.400390625 -76.6796875 m 1
 381.889648438 -68.6611328125 357.830078125 -62.9931640625 333.935546875 -62.9931640625 c 0
 314.051757812 -62.9931640625 294.283203125 -66.91796875 272.16015625 -76.6796875 c 1
 256.2421875 -68.2294921875 223.026367188 -62.4248046875 200.482421875 -62.4248046875 c 0
 177.880859375 -62.4248046875 157.32421875 -66.671875 136.080078125 -76.6796875 c 1
 133.862304688 -74.33984375 128.51953125 -71.2802734375 113.400390625 -68.0400390625 c 0
 99.03125 -64.2080078125 82.111328125 -62.4814453125 65.626953125 -62.4814453125 c 0
 37.6025390625 -62.4814453125 10.8369140625 -67.47265625 0 -75.599609375 c 1
 0 68.0400390625 l 1
 8.267578125 74.470703125 40.181640625 79.12890625 72.7822265625 79.12890625 c 0
 97.5673828125 79.12890625 119.923828125 76.1005859375 138.240234375 68.0400390625 c 1
 147.987304688 74.5380859375 172.682617188 74.8046875 195.555664062 74.8046875 c 4
 221.224609375 74.8046875 253.037109375 73.8125 273.240234375 68.0400390625 c 1
 282.290039062 74.0732421875 312.833984375 77.759765625 339.66015625 77.759765625 c 0
 363.77734375 77.759765625 383.76953125 74.6171875 401.490234375 70.2919921875 c 0
 409.333984375 68.3779296875 410.400390625 62.8935546875 410.400390625 52.650390625 c 2
 410.400390625 -76.6796875 l 1
391.423828125 6.4423828125 m 0
 391.423828125 40.6201171875 375.28515625 57.7080078125 343.006835938 57.7080078125 c 0
 342.083984375 57.7080078125 341.1484375 57.6943359375 340.200195312 57.6669921875 c 0
 306.049804688 56.662109375 288.975585938 39.587890625 288.975585938 6.4423828125 c 0
 288.975585938 -27.7861328125 305.162109375 -45.826171875 337.536132812 -45.826171875 c 0
 338.412109375 -45.826171875 339.30078125 -45.8125 340.200195312 -45.7861328125 c 0
 374.349609375 -44.7822265625 391.423828125 -27.7080078125 391.423828125 6.4423828125 c 0
255.34375 6.4423828125 m 0
 255.34375 40.6201171875 239.205078125 57.7080078125 206.926757812 57.7080078125 c 0
 206.00390625 57.7080078125 205.068359375 57.6943359375 204.120117188 57.6669921875 c 0
 169.970703125 56.662109375 152.895507812 39.587890625 152.895507812 6.4423828125 c 0
 152.895507812 -27.7861328125 169.08203125 -45.826171875 201.456054688 -45.826171875 c 0
 202.33203125 -45.826171875 203.220703125 -45.8125 204.120117188 -45.7861328125 c 0
 238.26953125 -44.7822265625 255.34375 -27.7080078125 255.34375 6.4423828125 c 0
123.072265625 5.955078125 m 0
 123.072265625 40.30078125 107.666992188 58.333984375 76.8544921875 58.333984375 c 0
 75.228515625 58.333984375 73.5595703125 58.2841796875 71.84765625 58.1826171875 c 0
 37.69921875 56.1748046875 20.623046875 39.099609375 20.623046875 5.955078125 c 0
 20.623046875 -29.2001953125 37.69921875 -46.2744140625 71.84765625 -46.2744140625 c 0
 105.997070312 -46.2744140625 123.072265625 -28.1953125 123.072265625 5.955078125 c 0
EndSplineSet
Validated: 1
EndChar

StartChar: chantAuctumDesc
Encoding: 36 36 4
AltUni2: 00e995.ffffffff.0 00f024.ffffffff.0
Width: 128
Flags: MW
HStem: 26 19
VStem: 123 19 172 19
LayerCount: 2
Fore
SplineSet
128.314887929 7.60000064557 m 4
 129.104962643 -8.69879362308 129.5 -29.1671396319 129.5 -44.5 c 4
 129.5 -61.75 129 -79 128 -96 c 4
 127.651387819 -97.0458365434 127.181245185 -97.4840208226 126.674306091 -97.4840208226 c 4
 125.727081728 -97.4840208226 124.651387819 -95.9541634566 124 -94 c 4
 114.314040964 -68.8165065077 87.7408774902 -53.9529712835 67.9071097487 -53.9529712835 c 4
 67.2640535962 -53.9529712835 66.628081929 -53.9685959036 66 -54 c 4
 47 -55 27 -58 0 -70 c 5
 1.5 -52 2.25 -33 2.25 -13.25 c 4
 2.25 3.98118132965 1.67910377821 26.7310261366 0.537311334634 46.199999149 c 4
 0.467646345554 47.387873355 0.429037809965 48.4223018938 0.429037809965 49.3293647492 c 0
 0.429037809965 55.3712929559 2.1420469672 55.7621759055 7.79999870297 58.2096611989 c 4
 22.8844684353 64.7348172186 38.3856731865 67.7861328125 52.6123046875 67.7861328125 c 4
 59.806640625 67.7861328125 66.67578125 67.005859375 73 65.5 c 4
 95.1122923011 60.1930498477 111.748305729 43.1512163961 123.600000736 21.986064621 c 4
 126.141271306 17.4477789773 127.972818996 14.6566891729 128.314887929 7.60000064557 c 4
EndSplineSet
Validated: 1
EndChar

StartChar: percent
Encoding: 37 37 5
AltUni2: 00f025.ffffffff.0
Width: 192
Flags: MW
HStem: 0 39 655 39
VStem: 13 76 451 76
LayerCount: 2
Fore
SplineSet
14 -101 m 5
 7 -99 2 -94 0 -87 c 5
 0 -87 72 -15 72 -15 c 6
 75.6348151111 -11.3651848889 77.3822186663 -8 77.3822186663 -4.76443733252 c 0
 77.3822186663 -1.76888838089 75.8844441904 1.11555580955 73 4 c 6
 73 4 -2 78 -2 78 c 5
 2 86 7 91 12 93 c 5
 12 93 84 21 84 21 c 6
 88 17 92 15 96 15 c 0
 108 21 l 6
 108 21 180 93 180 93 c 5
 186 90 191 86 195 79 c 5
 195 79 119 4 119 4 c 6
 115.86335345 0.86335345031 114.366465497 -2.27329309938 114.366465497 -5.2670690062 c 0
 114.366465497 -8 115.613872125 -10.6138721247 118 -13 c 6
 118 -13 193 -88 193 -88 c 5
 190 -94 185 -99 179 -102 c 5
 179 -102 103 -26 103 -26 c 6
 100.838821814 -23.8388218142 98.6776436283 -22.7986095045 96.4357118758 -22.7986095045 c 0
 93.4908159823 -22.7986095045 90.406586177 -24.593413823 87 -28 c 6
 87 -28 14 -101 14 -101 c 5
EndSplineSet
Validated: 1
EndChar

StartChar: mensuralProlation1
Encoding: 38 38 6
AltUni2: 00e910.ffffffff.0 00f026.ffffffff.0
Width: 302
VWidth: 600
Flags: HW
LayerCount: 2
Fore
SplineSet
176 -23 m 4
 170 -30 162 -33 152 -33 c 4
 144 -33 137 -30 131 -26 c 4
 123 -20 119 -13 119 -1 c 4
 119 9 122 16 128 23 c 4
 134 29 141 33 151 33 c 4
 159 33 167 30 173 25 c 4
 180 19 184 10 184 -1 c 4
 184 -10 181 -18 176 -23 c 4
246 -86 m 4
 264 -66 276 -37 276 -4 c 4
 276 39 258 72 234 95 c 4
 210 115 182 127 150 127 c 4
 111 127 84 113 61 89 c 4
 37 64 26 36 26 -2 c 4
 26 -47 43 -77 73 -100 c 4
 96 -117 124 -127 153 -127 c 4
 192 -127 223 -110 246 -86 c 4
255 -112 m 4
 228 -137 192 -152 153 -152 c 4
 113 -152 75 -136 47 -110 c 4
 19 -84 0 -50 0 -12 c 4
 0 46 16 84 52 116 c 4
 78 139 112 152 147 152 c 4
 193 152 231 136 260 105 c 4
 285 79 302 42 302 -2 c 4
 302 -46 281 -88 255 -112 c 4
EndSplineSet
EndChar

StartChar: mensuralProlation2
Encoding: 39 39 7
AltUni2: 00e911.ffffffff.0 00f027.ffffffff.0
Width: 302
VWidth: 600
Flags: HMW
LayerCount: 2
Fore
SplineSet
246 -86 m 0
 264 -66 276 -37 276 -4 c 0
 276 39 258 72 234 95 c 0
 210 115 182 127 150 127 c 0
 111 127 84 113 61 89 c 0
 37 64 26 36 26 -2 c 0
 26 -47 43 -77 73 -100 c 0
 96 -117 124 -127 153 -127 c 0
 192 -127 223 -110 246 -86 c 0
255 -112 m 0
 228 -137 192 -152 153 -152 c 0
 113 -152 75 -136 47 -110 c 0
 19 -84 0 -50 0 -12 c 0
 0 46 16 84 52 116 c 0
 78 139 112 152 147 152 c 0
 193 152 231 136 260 105 c 0
 285 79 302 42 302 -2 c 0
 302 -46 281 -88 255 -112 c 0
EndSplineSet
EndChar

StartChar: parenleft
Encoding: 40 40 8
AltUni2: 00f028.ffffffff.0
Width: 114
Flags: MW
VStem: 3 88
LayerCount: 2
Fore
SplineSet
128 -41 m 6
 128 -70 114 -85 89 -86 c 4
 87.9073160342 -86.0312195419 86.8204800271 -86.046844527 85.7394311219 -86.046844527 c 0
 52.1931652101 -86.046844527 24.219511453 -71.0009746598 0 -40 c 5
 0 70 l 5
 7 54 22 43 43 38 c 4
 48 37 54 36 60 36 c 4
 91 36 106 44 118 63 c 4
 123 71 123 74 128 85 c 5
 128 -41 l 6
EndSplineSet
Validated: 1
EndChar

StartChar: mensuralProlation6
Encoding: 41 41 9
AltUni2: 00e915.ffffffff.0 00f029.ffffffff.0
Width: 283
VWidth: 600
Flags: HMW
LayerCount: 2
Fore
SplineSet
283 96 m 1
 283 87 278 84 271 84 c 0
 269 84 266 84 264 86 c 0
 245 119 197 127 149 127 c 0
 80 127 26 75 26 4 c 0
 26 -71 81 -127 152 -127 c 0
 190 -127 214 -121 237 -104 c 0
 246 -97 256 -94 261 -82 c 1
 264 -80 267 -79 269 -79 c 0
 277 -79 283 -86 283 -93 c 0
 283 -94 283 -94 283 -94 c 0
 275 -109 261 -122 246 -132 c 0
 220 -150 190 -152 155 -152 c 0
 68 -152 0 -88 0 2 c 0
 0 87 67 152 149 152 c 0
 189 152 224 147 255 125 c 0
 267 116 279 108 283 96 c 1
EndSplineSet
EndChar

StartChar: mensuralProlation7
Encoding: 42 42 10
AltUni2: 00e916.ffffffff.0 00f02a.ffffffff.0
Width: 284
VWidth: 600
Flags: HW
LayerCount: 2
Fore
SplineSet
22 -64 m 5
 30 -78 40 -90 54 -100 c 4
 77 -117 106 -127 135 -127 c 4
 174 -127 205 -110 228 -86 c 4
 247 -66 258 -37 258 -4 c 4
 258 40 240 72 216 95 c 4
 192 116 164 127 132 127 c 4
 94 127 66 113 43 89 c 4
 35 81 28 73 23 64 c 5
 20 62 17 61 15 61 c 4
 9 61 0 70 0 74 c 0
 0 75 0 75 1 76 c 1
 9 91 20 104 34 116 c 0
 60 139 94 152 129 152 c 0
 175 152 213 136 242 105 c 0
 267 79 284 42 284 -2 c 0
 284 -46 263 -88 237 -112 c 0
 210 -137 174 -152 135 -152 c 0
 95 -152 57 -136 29 -110 c 0
 18 -100 11 -87 3 -74 c 5
 5 -67 11 -64 16 -64 c 4
 18 -64 20 -63 22 -64 c 5
EndSplineSet
EndChar

StartChar: chantCustosStemUpPosMiddle
Encoding: 43 43 11
AltUni2: 00ea06.ffffffff.0 00f02b.ffffffff.0
Width: 53
Flags: MW
HStem: -9 19
VStem: 139 19
LayerCount: 2
Fore
SplineSet
41 187 m 5
 42.6027526411 187.961651585 44.1027526411 188.409539964 45.5 188.409539964 c 0
 48.4616515847 188.409539964 50.9616515847 186.397247359 53 183 c 5
 53 -82 l 5
 36.5220551318 -75.591910329 20.0441102635 -64.9936560426 4.33333541217 -50.9724071576 c 4
 0.219386483435 -47.3008694788 0 -44.8936688837 0 -36.6666666667 c 6
 0 50.25 l 6
 0 52.1176011022 -0.0641435275673 53.8603628072 -0.0641435275673 55.384262105 c 0
 -0.0641435275673 58.9237320675 0.281888872104 61.2825141749 2.58137128294 61.2825141749 c 0
 3.35463695362 61.2825141749 4.34880458887 61.0157760457 5.625 60.4375 c 6
 33.625 47.75 l 6
 35.5274666392 46.8901892276 37.0421896471 46.4147708989 38.2272369914 46.4147708989 c 0
 40.8801469122 46.4147708989 41.8808649128 48.797362058 41.8808649128 54.5837785001 c 0
 41.8808649128 54.8407748599 41.8788909167 55.1044855366 41.875 55.375 c 4
 41.001953125 116.073242188 41 158.322959131 41 187 c 5
EndSplineSet
Validated: 1
EndChar

StartChar: chantCustosStemUpPosLow
Encoding: 44 44 12
AltUni2: 00ea05.ffffffff.0 00f02c.ffffffff.0
Width: 53
Flags: MW
HStem: -71 125
VStem: 156 53
LayerCount: 2
Fore
SplineSet
41 296 m 5
 41.8856217223 296.177124344 42.7398704113 296.260129589 43.5627460668 296.260129589 c 0
 47.3856217223 296.260129589 50.5313730334 294.468626967 53 292 c 5
 53 -82 l 5
 37.3026361746 -77.3831282866 21.6052723492 -67.6505355131 4.33333333333 -51.2276464888 c 4
 0.708641786574 -47.7811366925 0 -46.2468162472 0 -38.6666666667 c 6
 0 54.6666666667 l 6
 0 59.7358372211 0.232360340276 61.8796087571 1.59577328902 61.8796087571 c 0
 2.48236769141 61.8796087571 3.8472373875 60.9730965813 5.9375 59.375 c 4
 15.9228515625 51.7421875 24.8739926492 47.5893720617 36 45.0763205494 c 4
 37.0466871452 44.8399034206 37.9113114426 44.7231562598 38.6251994112 44.7231562598 c 0
 41.6292016161 44.7231562598 41.9641440306 46.7903762522 41.9641440306 50.7070398812 c 0
 41.9641440306 51.706339581 41.9423403852 52.8260319558 41.9375 54.0625 c 6
 41 296 l 5
EndSplineSet
Validated: 1
EndChar

StartChar: hyphen
Encoding: 45 45 13
AltUni2: 00f02d.ffffffff.0
Width: 154
Flags: MW
HStem: 15 19
LayerCount: 2
Fore
SplineSet
49 -22 m 1
 30 -19 21 -9 21 10 c 0
 21 14 22 17 24 20 c 0
 51 55 91 99 145 150 c 1
 145 150 145 146 145 137 c 1
 108 102 84 76 74 61 c 0
 73 60 73 58 73 56 c 0
 73 43 79 37 90 38 c 1
 183 136 302 260 447 409 c 1
 448 400 449 395 448 394 c 0
 277 221 144 83 49 -22 c 1
EndSplineSet
Validated: 1
EndChar

StartChar: mensuralCustosUp
Encoding: 46 46 14
AltUni2: 00ea02.ffffffff.0 00f02e.ffffffff.0
Width: 154
Flags: MW
HStem: -17 76
VStem: 32 79
LayerCount: 2
Fore
SplineSet
0 -6 m 5
 0.25 2.5458984375 l 6
 0.25 4.15625 1.4208984375 5.44140625 2.1875 6.1875 c 6
 38 41 l 6
 40.2408898617 43.1783170209 42.2372377116 44.6521234981 43.5454543895 45.7983776336 c 4
 44.2511959847 46.4167455506 44.9009946077 46.6951413221 45.5353384026 46.6951413221 c 0
 46.3536389576 46.6951413221 47.1462213178 46.2318662481 48 45.4375 c 4
 50.2470703125 43.3466796875 54.4720661624 38.3032005501 63 29 c 4
 68.3492871639 23.164414003 72.5934185527 18.8227465982 75.5005631659 15.75 c 4
 77.1636638613 13.9921627803 78.7668919539 13.1575557028 80.3749741333 13.1575557028 c 0
 81.8941260185 13.1575557028 83.4176099536 13.9024042563 84.9999969833 15.3173832946 c 4
 90.5200564637 20.2534503299 100.996986922 30.0234003074 116.636363636 43.9055201546 c 4
 117.795637443 44.934536733 118.642085362 45.4887137426 119.446363801 45.4887137426 c 0
 120.294804921 45.4887137426 121.09631839 44.8720064714 122.168638551 43.5454545455 c 4
 123.106856508 42.3847985357 124.437611115 40.9529861065 126 39 c 4
 135.888389774 27.3666002653 143.408399735 19.1166002653 148.166425465 14.25 c 4
 151.495088064 10.8453798469 152.851262421 8.86497106098 154.458802444 8.86497106098 c 0
 155.589880373 8.86497106098 156.845400429 9.84540042858 159 12 c 4
 196 51 267 123 373 230 c 4
 474.575810919 331.575810919 541.005480761 397.104297656 574.000007743 428.29645843 c 4
 575.714558725 429.917349977 577.085364079 431.323617908 578.008102444 431.323617908 c 4
 578.617554579 431.323617908 579.348319021 430.669429427 579.348319021 429.123382746 c 0
 579.348319021 428.882063039 579.330515013 428.619014509 579.291666667 428.333333333 c 6
 579.416876087 428.04163636 579.470872785 427.740798759 579.470872785 427.423323291 c 0
 579.470872785 425.431849949 577.34618143 422.785700774 577.34618143 417.634353333 c 0
 577.34618143 416.868628177 577.393127581 416.047549373 577.500976562 415.165039062 c 5
 373.500976562 220.165039062 232.047860156 74.0478601564 138 -20 c 4
 136.413650221 -21.5863497795 134.892448663 -22.9236192496 133.636363736 -23.9439021893 c 4
 132.594149058 -24.7904642588 131.590455552 -25.4564079598 130.693787144 -25.4564079598 c 0
 130.214856349 -25.4564079598 129.76645841 -25.2664229644 129.359031828 -24.8125 c 4
 126.749023073 -21.9046315341 118.744866855 -13.0813808773 101.908203125 3.0908203125 c 4
 99.7447103818 5.16934720994 97.9563546655 6.29914753896 96.1760757547 6.29914753896 c 0
 94.9075473748 6.29914753896 93.6431197507 5.72552530288 92.2500003223 4.51277319232 c 4
 89.0772087965 1.75076331672 84.4836929392 -2.51630706077 79 -8 c 4
 70.5958191697 -15.7038324278 65.0442016373 -20.8536683373 62.272727031 -23.4106666029 c 4
 61.5626386564 -24.0658033081 60.977678126 -24.3931385962 60.3843832533 -24.3931385962 c 0
 59.6327975905 -24.3931385962 58.8678371334 -23.8678371334 57.8181818182 -22.8181818182 c 6
 54 -19 l 6
 31 6 l 6
 28.0145378559 9.24506754792 26.0504954872 11.5178121761 23.2075936909 11.5178121761 c 0
 21.8901658255 11.5178121761 20.3840042878 11.0297438613 18.5 9.92419385404 c 4
 13.2612364614 6.85004210949 8.83090780197 2.94912400129 0 -6 c 5
EndSplineSet
Validated: 1
EndChar

StartChar: slash
Encoding: 47 47 15
AltUni2: 00f02f.ffffffff.0
Width: 141
Flags: HMW
VStem: 1.1 46.2 140.8 46.2
LayerCount: 2
Fore
SplineSet
2.2998046875 82 m 6
 36.2001953125 82 l 2
 36.8056640625 82 37.306640625 82.015625 37.7216796875 82.015625 c 0
 39.2587890625 82.015625 39.607421875 81.7958984375 39.6689453125 79.7275390625 c 0
 40.076171875 66.046875 40.30078125 52.5078125 40.30078125 39.1435546875 c 0
 40.30078125 26.8173828125 40.109375 14.6396484375 39.6943359375 2.63671875 c 0
 39.615234375 0.345703125 39.8974609375 0 37.2001953125 0 c 2
 2.2001953125 0 l 2
 0.369140625 0 0.0087890625 0.3486328125 0.0087890625 1.220703125 c 0
 0.0087890625 1.685546875 0.111328125 2.30078125 0.1474609375 3.0908203125 c 0
 0.7119140625 15.4365234375 0.712890625 27.8134765625 0.712890625 40.3671875 c 0
 0.712890625 53.826171875 0.0634765625 67.3310546875 0.0634765625 80.8291015625 c 0
 0.0634765625 81.9150390625 0.32421875 82.0029296875 1.505859375 82.0029296875 c 0
 1.734375 82.0029296875 1.998046875 82 2.2998046875 82 c 6
EndSplineSet
Validated: 1
EndChar

StartChar: timeSig0
Encoding: 48 48 16
AltUni2: 00f030.ffffffff.0
Width: 141
Flags: HMW
HStem: -253 28 225 28
VStem: 4.4 106.7 277.2 103.4
LayerCount: 2
Fore
SplineSet
3.849609375 0 m 2
 18.974609375 -0.25 l 0
 36.4833984375 0 l 2
 39.16796875 0 39.599609375 -0.9423828125 39.599609375 -3.4833984375 c 2
 39.0498046875 -35 l 0
 39.875 -98.75 l 0
 39.599609375 -124.583007812 l 2
 39.599609375 -127.158203125 40.32421875 -129 37.216796875 -129 c 2
 19.1123046875 -129 l 0
 3.2998046875 -129 l 2
 0.46484375 -129 0 -128.909179688 0 -126.333007812 c 2
 0.5498046875 -93.375 l 4
 -0.275390625 -39.75 l 0
 0 -2.2333984375 l 2
 0 0.150390625 1.294921875 0 3.849609375 0 c 2
EndSplineSet
Validated: 1
EndChar

StartChar: timeSig1
Encoding: 49 49 17
AltUni2: 00f031.ffffffff.0
Width: 141
Flags: HMW
VStem: 77 110
LayerCount: 2
Fore
SplineSet
3.7587890625 129 m 2
 19.6162109375 128.5 l 4
 36.849609375 129 l 2
 39.3984375 129 39.599609375 127.91015625 39.599609375 125.516601562 c 2
 39.0498046875 93 l 0
 40.150390625 38.5 l 0
 39.599609375 3.6669921875 l 2
 39.599609375 1.328125 39.8896484375 0 37.216796875 0 c 2
 20.900390625 -0.5 l 0
 4.125 0 l 2
 1.1708984375 0 0 0.21875 0 2.8330078125 c 2
 0.5498046875 42 l 0
 -0.5498046875 97 l 0
 0 126.93359375 l 2
 0 129.044921875 1.4345703125 129 3.7587890625 129 c 2
EndSplineSet
Validated: 1
EndChar

StartChar: timeSig2
Encoding: 50 50 18
AltUni2: 00f032.ffffffff.0
Width: 218
Flags: HMW
HStem: -188 68 59 124 217 36
VStem: 13.2 63.8 281.6 99
LayerCount: 2
Fore
SplineSet
3.2998046875 129 m 2
 19.7998046875 128.5 l 4
 35.93359375 129 l 2
 39.8486328125 129 39.599609375 128.735351562 39.599609375 125.266601562 c 2
 39.0498046875 93.599609375 l 0
 40.150390625 41.099609375 l 0
 39.599609375 3.099609375 l 2
 39.599609375 0.2890625 39.8681640625 0 36.6669921875 0 c 2
 22.7333984375 -0.5 l 0
 2.75 0 l 2
 -0.509765625 0 0 0.638671875 0 3.43359375 c 2
 0.5498046875 38.43359375 l 0
 -0.5498046875 96.7666015625 l 0
 0 125.766601562 l 2
 0 128.861328125 -0.130859375 129 3.2998046875 129 c 2
90.93359375 129 m 2
 105.784179688 128.5 l 0
 124.483398438 129 l 2
 127.627929688 129 127.599609375 128.963867188 127.599609375 126.099609375 c 2
 127.049804688 97.2666015625 l 0
 128.150390625 40.93359375 l 0
 127.599609375 3.43359375 l 2
 127.599609375 0.2919921875 127.875 0 124.299804688 0 c 2
 110.916015625 -0.5 l 0
 91.1162109375 0 l 2
 87.5048828125 0 88 0.6025390625 88 3.7666015625 c 2
 88.5498046875 35.43359375 l 0
 87.4501953125 103.93359375 l 0
 88 126.599609375 l 2
 88 129.15234375 88.1962890625 129 90.93359375 129 c 2
EndSplineSet
Validated: 1
EndChar

StartChar: mensuralRestBrevis
Encoding: 51 51 19
AltUni2: 00f033.ffffffff.0 00e9f3.ffffffff.0
Width: 43
Flags: HMW
HStem: -249 27 -178 102 76 102 222 27
VStem: 4.4 53.9 248.6 96.8
LayerCount: 2
Fore
SplineSet
2.93359375 250 m 2
 28.6337890625 249.75 l 0
 41.466796875 250 l 2
 43.6669921875 250 43.8583984375 249.099609375 43.8583984375 247.463867188 c 0
 43.8583984375 247.119140625 43.849609375 246.741210938 43.849609375 246.333007812 c 2
 43.2998046875 194.5 l 0
 44.125 129.25 l 0
 43.2998046875 54.5 l 0
 43.849609375 3.9169921875 l 2
 43.849609375 3.3037109375 43.8759765625 2.76171875 43.8759765625 2.291015625 c 0
 43.8759765625 0.7734375 43.6015625 0 41.283203125 0 c 2
 21.849609375 -0.5 l 0
 2.2001953125 0 l 2
 0.2001953125 0 -0.0166015625 0.724609375 -0.0166015625 2.11328125 c 0
 -0.0166015625 2.4970703125 0 2.9326171875 0 3.4169921875 c 2
 -0.5498046875 55 l 0
 0.275390625 133.5 l 0
 -0.5498046875 201.75 l 0
 0 245 l 2
 0 246.124023438 -0.1220703125 247.06640625 -0.1220703125 247.818359375 c 0
 -0.1220703125 249.255859375 0.3251953125 250 2.93359375 250 c 2
EndSplineSet
EndChar

StartChar: mensuralRestLongaImperfecta
Encoding: 52 52 20
AltUni2: 00f034.ffffffff.0 00e9f2.ffffffff.0
Width: 44
Flags: HMW
HStem: -104 22
VStem: 232.1 185.9
LayerCount: 2
Fore
SplineSet
4.125 500 m 2
 20.650390625 500 l 0
 38.525390625 500 l 2
 41.75 500 42.1396484375 498.501953125 42.1396484375 496.188476562 c 0
 42.1396484375 495.451171875 42.099609375 494.630859375 42.099609375 493.75 c 2
 42.9248046875 387 l 0
 41 242.5 l 0
 41.8251953125 57.5 l 0
 42.099609375 5.5 l 2
 42.099609375 4.6396484375 42.1435546875 3.8603515625 42.1435546875 3.177734375 c 0
 42.1435546875 1.1767578125 41.7666015625 0 38.7998046875 0 c 2
 22.849609375 0 l 0
 3.5751953125 0 l 2
 0.3505859375 0 -0.0400390625 1.6416015625 -0.0400390625 4.0244140625 c 0
 -0.0400390625 4.7841796875 0 5.619140625 0 6.5 c 2
 0 50.5 l 0
 -0.8251953125 229.5 l 0
 1.099609375 376.5 l 0
 0 494.5 l 2
 0 494.995117188 -0.0048828125 495.452148438 -0.0048828125 495.874023438 c 0
 -0.0048828125 498.787109375 0.240234375 500 4.125 500 c 2
EndSplineSet
EndChar

StartChar: mensuralRestLongaPerfecta
Encoding: 53 53 21
AltUni2: 00f035.ffffffff.0 00e9f1.ffffffff.0
Width: 43
Flags: HMW
HStem: 45 31 159 78
VStem: 33 34.1 255.2 84.7
LayerCount: 2
Fore
SplineSet
4.400390625 750 m 2
 36.3330078125 750 l 2
 40.9501953125 750 41.1005859375 748.966796875 41.1005859375 745.168945312 c 0
 41.1005859375 744.904296875 41.099609375 744.625976562 41.099609375 744.333007812 c 2
 41.650390625 599 l 0
 40.5498046875 345 l 0
 41.650390625 114 l 0
 41.099609375 6.3330078125 l 2
 41.099609375 5.107421875 41.15234375 4.1064453125 41.15234375 3.29296875 c 0
 41.15234375 0.671875 40.603515625 0 35.966796875 0 c 2
 4.7666015625 0 l 2
 0.466796875 0 -0.052734375 0.65625 -0.052734375 3.091796875 c 0
 -0.052734375 3.8681640625 0 4.8251953125 0 6 c 1
 0.5498046875 113 l 0
 -0.5498046875 314 l 0
 0.8251953125 575 l 0
 0 744.916992188 l 2
 0 745.228515625 -0.0009765625 745.522460938 -0.0009765625 745.798828125 c 0
 -0.0009765625 749.189453125 0.1591796875 750 4.400390625 750 c 2
EndSplineSet
EndChar

StartChar: timeSig6
Encoding: 54 54 22
AltUni2: 00f036.ffffffff.0
Width: 141
Flags: HMW
HStem: -253 20 6 26
VStem: 9.9 136.4 279.4 91.3
LayerCount: 2
Fore
SplineSet
5.224609375 1000 m 2
 34.375 1000 l 2
 39.220703125 1000 39.599609375 998.55078125 39.599609375 994 c 2
 38.775390625 793 l 0
 40.4248046875 473 l 0
 38.775390625 157 l 0
 39.599609375 8 l 2
 39.599609375 2.4013671875 40.5380859375 0 34.099609375 0 c 2
 4.6748046875 0 l 2
 -0.67578125 0 0 2.3037109375 0 7 c 2
 -0.8251953125 157 l 0
 0.8251953125 469 l 0
 -0.8251953125 784 l 0
 0 996 l 6
 0 999.849609375 0.9580078125 1000 5.224609375 1000 c 2
EndSplineSet
Validated: 1
EndChar

StartChar: timeSig7
Encoding: 55 55 23
AltUni2: 00f037.ffffffff.0
Width: 141
Flags: HMW
HStem: 174 34
VStem: 17.6 363
LayerCount: 2
Fore
SplineSet
5.5 1250 m 6
 34.650390625 1250 l 6
 39.43359375 1250 39.599609375 1247.87890625 39.599609375 1243.5 c 6
 39.0498046875 1027 l 4
 40.150390625 759 l 4
 39.0498046875 483 l 4
 40.150390625 211 l 4
 39.599609375 5.75 l 6
 39.599609375 0.2958984375 38.2294921875 0 32.1748046875 0 c 6
 5.224609375 0 l 6
 0.1142578125 0 -0 1.4931640625 -0 5.8671875 c 0
 -0 6.0712890625 -0 6.2822265625 0 6.5 c 6
 0.5498046875 221 l 4
 -0.5498046875 487 l 4
 0.5498046875 763 l 4
 -0.5498046875 1029 l 4
 0 1246 l 6
 0 1249.84960938 1.2333984375 1250 5.5 1250 c 6
EndSplineSet
Validated: 1
EndChar

StartChar: timeSig8
Encoding: 56 56 24
AltUni2: 00f038.ffffffff.0
Width: 14
Flags: MW
HStem: -253 28 227 26
VStem: 17 61 251 63
LayerCount: 2
Fore
SplineSet
14 -88 m 1
 11.8038475773 -89.4641016151 9.07179676972 -90.3923048454 5.01923788647 -90.3923048454 c 0
 3.53589838486 -90.3923048454 1.87564434702 -90.2679491924 0 -90 c 1
 0 -66.0315307617 l 2
 -3.34228410942e-16 -60.573166584 -5.1689968595 -57.9251169571 -8.701171875 -56.6318359375 c 0
 -18.0869140625 -53.1953125 -32.943359375 -50.431640625 -42.900390625 -50.431640625 c 0
 -74.900390625 -50.431640625 -89 -56 -101 -66 c 1
 -101 54 l 1
 -89 63 -68 68 -37 68 c 0
 -21.5908888075 68 14 65.2715492254 14 45.7684631348 c 6
 14 -88 l 1
EndSplineSet
Validated: 1
EndChar

StartChar: timeSig9
Encoding: 57 57 25
AltUni2: 00f039.ffffffff.0
Width: 14
Flags: MW
HStem: -253 16 -32 26 233 20G
VStem: 0 83 221 107
LayerCount: 2
Fore
SplineSet
14 -198 m 1
 11 -200 7 -201 0 -200 c 1
 0 -76.7314453125 l 6
 0 -66.37890625 -1.49210427522 -60.6545424614 -8.16666553676 -57.4500530129 c 0
 -16.8214053986 -53.2948701506 -25.9107026993 -51 -35 -51 c 0
 -67 -51 -89 -56 -101 -66 c 1
 -101 54 l 1
 -88 67 -67 73 -39 73 c 0
 -20.9745052741 73 -5.89611676233 68.5793406787 7.5 60.3704392685 c 0
 11.7028164479 57.7950283134 14 53.7509765625 14 46.5185546875 c 2
 14 -198 l 1
EndSplineSet
Validated: 1
EndChar

StartChar: semicolon
Encoding: 59 59 26
AltUni2: 00f03b.ffffffff.0
Width: 14
Flags: MW
VStem: 132 17 276 16
LayerCount: 2
Fore
SplineSet
14 -451 m 1
 10 -452 5 -451 0 -449 c 1
 0 -73.75 l 2
 0 -65.865234375 -4.00693366602 -60.6069933104 -9.25 -57.8506436249 c 0
 -19.2055450714 -52.6168812083 -28.1027725357 -50 -37 -50 c 0
 -67 -50 -88 -55 -101 -66 c 1
 -101 54 l 1
 -84 66 -62 72 -37 72 c 0
 -21.5093853649 72 -6.7593853649 67.5563121894 7.25 59.3063018962 c 0
 11.7644710063 56.6477675423 14 53.2001953125 14 45.5 c 6
 14 -451 l 1
EndSplineSet
Validated: 1
EndChar

StartChar: less
Encoding: 60 60 27
AltUni2: 00f03c.ffffffff.0
Width: 14
Flags: MW
HStem: 6 19 79 76
VStem: 108 79
LayerCount: 2
Fore
SplineSet
14 -576 m 1
 0 -573 l 1
 0 -73.75 l 2
 0 -65.697265625 -4.09798639058 -60.4119834668 -9.66666666667 -57.6981810696 c 0
 -18.5145300911 -53.3863240799 -27.9589745356 -51 -38 -51 c 0
 -68 -51 -89 -56 -101 -66 c 1
 -101 54 l 1
 -80 66 -59 72 -37 72 c 0
 -20.3537155614 72 -5.2426044503 66.6268933538 8.33333333333 55.8806800614 c 0
 12.80348408 52.342273055 14 47.4462890625 14 38.9169921875 c 6
 14 -576 l 1
EndSplineSet
Validated: 1
EndChar

StartChar: equal
Encoding: 61 61 28
AltUni2: 00f03d.ffffffff.0
Width: 14
Flags: MW
HStem: 38 19 292 19 545 19 802 19 1052 19
LayerCount: 2
Fore
SplineSet
14 -701 m 5
 0 -698 l 5
 0 -74.75 l 6
 0 -67.6630859375 -3.06944630425 -61.095610719 -8 -58.5367250374 c 4
 -17.3258084954 -53.6967660184 -27.3258084954 -51 -38 -51 c 4
 -68 -51 -89 -56 -101 -66 c 5
 -101 54 l 5
 -84 66 -63 72 -36 72 c 4
 -22.0922053586 72 -7.42883746798 66.7109872558 7.33333132266 56.1329617674 c 4
 12.1845189328 52.6567797161 14 47.7060546875 14 38.7490234375 c 6
 14 -97 l 4
 14 -256 14 -457 14 -701 c 5
EndSplineSet
Validated: 1
EndChar

StartChar: greater
Encoding: 62 62 29
AltUni2: 00f03e.ffffffff.0
Width: 14
Flags: MW
HStem: -215 20
LayerCount: 2
Fore
SplineSet
14 -826.25 m 1
 0 -823 l 1
 0 -74.75 l 6
 0 -67.041015625 -3.68150935467 -60.6862328229 -9 -58.0272708773 c 0
 -18.0396897547 -53.5079076479 -27.7063564214 -51 -38 -51 c 0
 -68 -51 -89 -56 -101 -66 c 1
 -101 54 l 1
 -84 66 -63 72 -36 72 c 0
 -21.8043721537 72 -6.82157301854 66.4898009779 8.24999798874 55.4694029337 c 0
 12.4493864719 52.3987918737 14 46.8076171875 14 39 c 2
 14 -826.25 l 1
EndSplineSet
Validated: 1
EndChar

StartChar: fClef
Encoding: 63 63 30
AltUni2: 00f03f.ffffffff.0
Width: 117
Flags: MW
HStem: -170 123 46 123 211 38
VStem: -121 223 250 146 433 123
LayerCount: 2
Fore
SplineSet
42.2294921875 55.62109375 m 5
 57.6796875 33.9912109375 74.16015625 14.4208984375 91.669921875 -2.05859375 c 5
 76.2197265625 -17.5087890625 61.7998046875 -38.109375 48.41015625 -58.708984375 c 5
 37.080078125 -48.4091796875 17.509765625 -30.8994140625 0 0.0009765625 c 5
 10.2998046875 15.451171875 23.6904296875 33.9912109375 42.2294921875 55.62109375 c 5
EndSplineSet
Validated: 1
EndChar

StartChar: at
Encoding: 64 64 31
AltUni2: 00f040.ffffffff.0
Width: 14
Flags: MW
HStem: -1 21G 434 20G
LayerCount: 2
Fore
SplineSet
14 -166 m 1
 11 -180 8 -187 0 -193 c 1
 0 -25.2666625977 l 2
 0 -17.2216780084 -6.53417885508 -16 -11 -16 c 0
 -29 -16 -41 -18 -46 -22 c 1
 -46 36 l 1
 -39 41 -28 43 -12 43 c 0
 -6.18796836605 43 1.00282701134 42.3106181283 8.99999909697 40.3594673497 c 0
 14.0259865394 39.1332264727 14 33.4560546875 14 27.06640625 c 6
 14 -166 l 1
EndSplineSet
Validated: 1
EndChar

StartChar: accidentalFlatParens
Encoding: 65 65 32
AltUni2: 00f041.ffffffff.0
Width: 14
Flags: MW
HStem: 95 31
VStem: -87 54 159 28 308 69 482 54
LayerCount: 2
Fore
SplineSet
14 -291 m 2
 14 -301 9 -313 0 -321 c 1
 0 -27.1000061035 l 2
 0 -17.874834689 -5.15614594215 -16 -11 -16 c 0
 -28 -16 -40 -18 -45 -22 c 1
 -45 38 l 1
 -36 43 -26 45 -13 45 c 0
 -7.31783615957 45 -0.317836159571 43.6821638404 8 40.5116228803 c 0
 13.0571307774 38.5839772808 14 33.3349609375 14 25.900390625 c 6
 14 -291 l 2
EndSplineSet
Validated: 1
EndChar

StartChar: cClef
Encoding: 66 66 33
AltUni2: 00f042.ffffffff.0
Width: 14
Flags: MW
HStem: -1521 192 -1104 35 -966 38 -699 192
VStem: -3605 127 -3436 42 -3299 148 -3032 119
LayerCount: 2
Fore
SplineSet
14 -412 m 2
 14 -424 8 -433 0 -441 c 1
 0 -26 l 2
 0 -17.4670008475 -5.9423385977 -16 -11 -16 c 0
 -28 -16 -40 -18 -45 -22 c 1
 -45 38 l 1
 -39 43 -28 45 -12 45 c 0
 -5.5548668941 45 1.37497949889 43.8316136416 9.25 40.2609792641 c 0
 13.387769085 38.3848621747 14 34.986328125 14 29.25 c 2
 14 -412 l 2
EndSplineSet
Validated: 1
EndChar

StartChar: timeSigCutCommon
Encoding: 67 67 34
AltUni2: 00f043.ffffffff.0
Width: 14
Flags: MW
HStem: 24 138 224 23
VStem: 4 114 194 28 354 64
LayerCount: 2
Fore
SplineSet
14 -531 m 2
 14 -543 11 -560 0 -569 c 1
 0 -28.5 l 2
 0 -22.0595703125 -1.56510956569 -18.3452280283 -5.7499997856 -16.9171609409 c 0
 -7.67221303267 -16.2612179343 -9.46671548348 -16 -11 -16 c 0
 -29 -16 -41 -18 -46 -22 c 1
 -46 38 l 1
 -42.4548539485 40.6588595386 -33.41015625 43.876953125 -18.171875 43.876953125 c 4
 -6.9677734375 43.876953125 -1.13482917358 42.3598665144 8.74999792817 38.4711363853 c 0
 13.0054633876 36.7970194204 14 34.2041015625 14 28.25 c 2
 14 -531 l 2
EndSplineSet
Validated: 1
EndChar

StartChar: D
Encoding: 68 68 35
AltUni2: 00f044.ffffffff.0
Width: 14
Flags: MW
HStem: -696 21G<0 0> 23 20G<-21.5 -10.5>
VStem: -46 60<-22 37>
LayerCount: 2
Fore
SplineSet
14 -654 m 2
 14 -677 7 -690 0 -696 c 1
 0 -25.25 l 2
 0 -17.2169284913 -6.54702403093 -16 -11 -16 c 0
 -29 -16 -41 -18 -46 -22 c 1
 -46 38 l 1
 -42.2050753185 40.8461935111 -28.1181640625 43 -16.125 43 c 0
 -5.8759765625 43 2.13063815473 41.3053449931 8.74999792817 38.4711363853 c 0
 12.8421964102 36.7189814096 14 32.5546875 14 26.75 c 2
 14 -654 l 2
EndSplineSet
Validated: 1
EndChar

StartChar: ascii45
Encoding: 69 69 36
AltUni2: 00f045.ffffffff.0
Width: 52
Flags: MW
VStem: -459 19 -182 27
LayerCount: 2
Fore
SplineSet
66 69 m 1
 66 0.7021484375 l 2
 66 -3.7138671875 65.6880421068 -6.6363393499 63.8888888889 -8.90868832279 c 0
 56.6407729699 -18.0631330915 46.3164519761 -23.060546875 29.63671875 -23.060546875 c 0
 17.3554319507 -23.060546875 8.60546875 -20.388671875 3.4443359375 -17.3251953125 c 0
 1.40625 -16.1162109375 -1.94759503165e-16 -13.8388671875 0 -10.658203125 c 2
 0 62 l 1
 6.89467906901 56.3588989435 16.5394093467 54.6464424709 25.733030228 54.6464424709 c 0
 31.2072174755 54.6464424709 36.5214680753 55.2535780125 41 56 c 0
 47 57 50.3026529948 57.376241982 66 69 c 1
EndSplineSet
Validated: 1
EndChar

StartChar: F
Encoding: 70 70 37
AltUni2: 00f046.ffffffff.0
Width: 14
Flags: MW
HStem: 230 18 311 125
VStem: 814 25
LayerCount: 2
Fore
SplineSet
0 158 m 5
 6.6962890625 153.6953125 14 146.729492188 14 140.469726562 c 6
 14 -15 l 2
 14 -20.7392578125 13.5778950788 -22.2738201007 10 -24.1867439037 c 0
 -0.166541728863 -29.6222916877 -7.33611394313 -32.2548828125 -20.220703125 -32.2548828125 c 0
 -30.4705969634 -32.2548828125 -37.8971376195 -30.2377615528 -42.4995711258 -27.6624009005 c 0
 -44.8673816932 -26.3374570075 -45 -24.5576171875 -45 -20.875 c 2
 -45 35 l 1
 -37.9701292778 29.2482875909 -30.5318363872 26.7639525287 -23.207149518 26.7639525287 c 0
 -19.0705224107 26.7639525287 -14.9701292778 27.5563166263 -11 29 c 0
 -7.50591074543 30.1646964182 -4.69008036413 31.668522273 -2.75000027618 33.3139861444 c 0
 -0.0418395998391 35.6108916065 0 38.2333984375 0 42.875 c 2
 0 158 l 5
EndSplineSet
Validated: 1
EndChar

StartChar: G
Encoding: 71 71 38
AltUni2: 00f047.ffffffff.0
Width: 14
Flags: MW
HStem: -7 20G 88 20G
LayerCount: 2
Fore
SplineSet
0 283 m 1
 7.51369546036 278.169767204 13.9970758493 272.555287471 14.001953125 263.75 c 4
 14.0064714376 255.592773754 14.0068359375 255.652062928 14.0068359375 250.891601562 c 0
 14.0068359375 239.55859375 14 230.666992188 14 190 c 0
 14 129 14 94 14 64 c 0
 14 -14.6669921875 l 2
 14 -20.42578125 13.5298476602 -22.3318487696 9.83333410642 -24.2342355365 c 0
 -0.812492277222 -29.7130411571 -7.93721905486 -31.5048828125 -20.220703125 -31.5048828125 c 0
 -30.595703125 -31.5048828125 -38.0778813201 -29.8909091581 -42.6666666667 -27.4979232562 c 0
 -44.923550463 -26.3209906479 -45.0004105985 -25.4544994513 -45.0004105985 -22.3777197048 c 0
 -45.0004105985 -22.1528378014 -45 -21.9161482018 -45 -21.6666666667 c 2
 -45 35 l 1
 -37.9701292778 29.2482875909 -30.5318363872 26.7639525287 -23.207149518 26.7639525287 c 0
 -19.0705224107 26.7639525287 -14.9701292778 27.5563166263 -11 29 c 0
 -8.02216781549 29.9926107282 -5.53697365981 31.2315404708 -3.66666698111 32.5945397796 c 0
 -0.359309736538 35.0047999203 0 41.1611328125 0 46.1669921875 c 2
 0 283 l 1
EndSplineSet
Validated: 1
EndChar

StartChar: ascii48
Encoding: 72 72 39
AltUni2: 00f048.ffffffff.0
Width: 14
Flags: MW
VStem: -2 19
LayerCount: 2
Fore
SplineSet
0 408 m 5
 8.470703125 402.5546875 14.0009765625 396.440429688 14.0009765625 386 c 6
 14 -15.86328125 l 2
 14 -20.0947265625 13.8657207667 -22.1094177017 11.1818189562 -23.5301629454 c 0
 3.13135700078 -27.7917404322 -4.83535394559 -31 -12 -31 c 0
 -14.9167388793 -31.1715728753 -17.6568542495 -31.2548339959 -20.2203461105 -31.2548339959 c 0
 -32.5979797464 -31.2548339959 -40.8578643763 -29.313708499 -45 -26 c 1
 -45 35 l 1
 -37.9701292778 29.2482875909 -30.5318363872 26.7639525287 -23.207149518 26.7639525287 c 0
 -19.0705224107 26.7639525287 -14.9701292778 27.5563166263 -11 29 c 0
 -5 31 -1 34 0 37 c 1
 0 408 l 5
EndSplineSet
Validated: 1
EndChar

StartChar: accidentalSharpSmall
Encoding: 73 73 40
AltUni2: 00f049.ffffffff.0
Width: 14
Flags: MW
VStem: -235 35 -165 35
LayerCount: 2
Fore
SplineSet
0 533 m 5
 6.6728515625 528.709960938 14 526.48046875 14 515.25 c 6
 13.9689998054 153.012050511 l 2
 13.9689998054 90.6204084171 13.976227293 31.6565682857 13.9976506424 -16.858350619 c 0
 13.9976506424 -22.3966943692 13.1804452956 -22.5182520516 9.66666743956 -24.3198497976 c 0
 2.13415525245 -28.1819485228 -5.28517880842 -31 -12 -31 c 0
 -14.9167388793 -31.1715728753 -17.6568542495 -31.2548339959 -20.2203461105 -31.2548339959 c 0
 -32.5979797464 -31.2548339959 -40.8578643763 -29.313708499 -45 -26 c 1
 -45 35 l 1
 -37.9701292778 29.2482875909 -30.5318363872 26.7639525287 -23.207149518 26.7639525287 c 0
 -19.0705224107 26.7639525287 -14.9701292778 27.5563166263 -11 29 c 0
 -8.98371736439 29.6720942119 -7.18835697544 30.4484173265 -5.66666705006 31.3171165954 c 0
 -0.581928723204 34.2198817341 0 41.623046875 0 49.6669921875 c 2
 0 533 l 5
EndSplineSet
Validated: 1
EndChar

StartChar: J
Encoding: 74 74 41
AltUni2: 00f04a.ffffffff.0
Width: 14
Flags: MW
HStem: -269 245
VStem: 277 27
LayerCount: 2
Fore
SplineSet
0 658 m 5
 6.6953125 653.696289062 14 652.119140625 14 640.875 c 6
 14 477 l 0
 14 330 14 225 14 161 c 0
 14 -40 14 -11 14 -22 c 1
 5 -27 -4 -31 -12 -31 c 0
 -14.9167388793 -31.1715728753 -17.6568542495 -31.2548339959 -20.2203461105 -31.2548339959 c 0
 -32.5979797464 -31.2548339959 -40.8578643763 -29.313708499 -45 -26 c 1
 -45 35 l 1
 -37.9701292778 29.2482875909 -30.5318363872 26.7639525287 -23.207149518 26.7639525287 c 0
 -19.0705224107 26.7639525287 -14.9701292778 27.5563166263 -11 29 c 0
 -8.44489216066 29.8517026131 -6.22284361366 30.8403316522 -4.50000034514 32.0219279938 c 0
 -0.62941981834 34.6765303445 0 41.0390625 0 48.75 c 2
 0 658 l 5
EndSplineSet
Validated: 1
EndChar

StartChar: K
Encoding: 75 75 42
AltUni2: 00f04b.ffffffff.0
Width: 124
Flags: MW
HStem: 230 18 311 125
VStem: 814 25
LayerCount: 2
Fore
SplineSet
0 55.5 m 6
 -0 59.9873046875 0.3115234375 63.8642578125 4.2001953125 65.3447265625 c 0
 11.744140625 68.21875 20.787109375 69.4921875 30.4736328125 69.4921875 c 0
 64.5634765625 69.4921875 109.522460938 53.71875 122.250976562 36.4033203125 c 0
 124.916015625 32.77734375 126.80078125 27.1787109375 126.80078125 20.875 c 2
 126.80078125 -90 l 1
 107.876976069 -74.3809034447 77.1675546014 -65.4001276587 58.333984375 -63.5 c 0
 52.6937931824 -62.9309584876 47.629869776 -62.6669646931 42.9117183984 -62.6669646931 c 0
 31.3268931399 -62.6669646931 21.8266791998 -64.2585464474 10.9990234375 -66.833984375 c 0
 9.53819700238 -67.1814527365 8.23936846857 -67.3277040169 7.08012394834 -67.3277040169 c 0
 5.25010687093 -67.3277040169 3.76794288187 -66.963235635 2.54545454545 -66.4505372774 c 0
 0.158034446926 -65.4492791654 -0.00399674879882 -60.7587033481 -0.00399674879882 -57.0305992194 c 2
 0 55.5 l 6
EndSplineSet
Validated: 1
EndChar

StartChar: L
Encoding: 76 76 43
AltUni2: 00f04c.ffffffff.0
Width: 124
Flags: MW
HStem: 230 18 311 125
VStem: 814 25
LayerCount: 2
Fore
SplineSet
0 -200 m 1
 0 55.5 l 2
 0 55.5537109375 -0 55.607421875 -0 55.662109375 c 0
 -0 59.9873046875 0.3115234375 63.8642578125 4.2001953125 65.3447265625 c 0
 11.744140625 68.21875 20.787109375 69.4921875 30.4736328125 69.4921875 c 0
 64.5634765625 69.4921875 109.522460938 53.71875 122.250976562 36.4033203125 c 0
 124.916015625 32.77734375 126.80078125 27.1787109375 126.80078125 20.875 c 2
 126.80078125 -90 l 1
 110.86328125 -76.845703125 77.978515625 -62.7314453125 46.232421875 -62.7314453125 c 0
 45.8994140625 -62.7314453125 45.5595703125 -62.73046875 45.2158203125 -62.73046875 c 0
 33.07421875 -62.73046875 14 -62.9130859375 14 -76.125 c 2
 14 -200 l 1
 11.375 -201.5 9.4501953125 -202.25 6.9560546875 -202.25 c 0
 4.462890625 -202.25 2.099609375 -201.5 0 -200 c 1
EndSplineSet
Validated: 1
EndChar

StartChar: M
Encoding: 77 77 44
AltUni2: 00f04d.ffffffff.0
Width: 124
Flags: MW
HStem: -7 20G 88 20G
LayerCount: 2
Fore
SplineSet
0 -325 m 1
 0 54.75 l 2
 0 63.642578125 1.83203125 64.6806640625 9.1875 66.0634765625 c 0
 18.125 67.744140625 27.1962890625 68.5263671875 36.1484375 68.5263671875 c 0
 68.759765625 68.5263671875 102.549804688 58.14453125 119.825195312 42.9619140625 c 0
 124.68359375 38.6923828125 126.650390625 35.15625 126.650390625 24.69140625 c 2
 126.650390625 -90 l 1
 109.58984375 -74.8271484375 72.556640625 -62.2548828125 45.255859375 -62.2548828125 c 0
 36.3125 -62.2548828125 28.119140625 -63.603515625 21.525390625 -66.65234375 c 0
 16.0810546875 -69.1689453125 14 -72.419921875 14 -79.30859375 c 2
 14 -325 l 1
 11.8994140625 -326 10.5 -327 8.400390625 -327 c 0
 6.2998046875 -327 3.150390625 -326 0 -325 c 1
EndSplineSet
Validated: 1
EndChar

StartChar: N
Encoding: 78 78 45
AltUni2: 00f04e.ffffffff.0
Width: 124
Flags: MW
VStem: -95.55 56.7 152.25 29.4 300.3 29.4 519.75 56.7
LayerCount: 2
Fore
SplineSet
0 -450 m 1
 0 51.5 l 2
 0 61.0439453125 0.11328125 64.25 8.400390625 65.7890625 c 0
 18.4521484375 67.6552734375 28.19140625 68.4873046875 37.49609375 68.4873046875 c 0
 74.00390625 68.4873046875 106.705078125 55.6796875 122.337890625 42.3447265625 c 4
 125.793945312 39.396484375 126.80078125 34.0625 126.80078125 27.75 c 6
 126.80078125 -89 l 5
 104.254882812 -72.8486328125 69.736328125 -62.4326171875 44.126953125 -62.4326171875 c 0
 35.4443359375 -62.4326171875 27.451171875 -63.630859375 20.7373046875 -66.20703125 c 0
 15.4619140625 -68.232421875 14 -72.876953125 14 -79.75 c 2
 14 -450 l 1
 11.375 -451.5 9.712890625 -452.25 7.349609375 -452.25 c 0
 4.9873046875 -452.25 2.625 -451.5 0 -450 c 1
EndSplineSet
Validated: 1
EndChar

StartChar: O
Encoding: 79 79 46
AltUni2: 00f04f.ffffffff.0
Width: 124
Flags: MW
HStem: 103 20G
LayerCount: 2
Fore
SplineSet
0 -575 m 1
 0 52.75 l 2
 0 60.546875 0.99609375 64.380859375 7.6123046875 65.57421875 c 0
 16.7744140625 67.2265625 25.6328125 67.953125 34.1005859375 67.953125 c 0
 73.2109375 67.953125 106.908203125 52.4404296875 121.025390625 40.9267578125 c 4
 125.853515625 36.98828125 126.80078125 31.21484375 126.80078125 22.75 c 6
 126.80078125 -89 l 5
 104.62890625 -73.3291015625 70.1943359375 -63.3134765625 43.6484375 -63.3134765625 c 0
 36.623046875 -63.3134765625 29.947265625 -64.015625 23.8876953125 -65.4990234375 c 0
 16.5888671875 -67.2861328125 14 -71.9169921875 14 -81 c 2
 14 -575 l 1
 11.375 -576.5 9.712890625 -577.25 7.349609375 -577.25 c 0
 4.9873046875 -577.25 2.625 -576.5 0 -575 c 1
EndSplineSet
Validated: 1
EndChar

StartChar: P
Encoding: 80 80 47
AltUni2: 00f050.ffffffff.0
Width: 124
Flags: MW
HStem: -169 21 -22 51
VStem: 412.65 65.1 766.5 61.95
LayerCount: 2
Fore
SplineSet
0 -700 m 1
 0 53.3330078125 l 2
 0 53.998046875 -0.00390625 54.6474609375 -0.00390625 55.27734375 c 0
 -0.00390625 60.30078125 0.2734375 64.111328125 5.25 64.77734375 c 0
 13.6923828125 65.9091796875 21.890625 66.4306640625 29.7978515625 66.4306640625 c 0
 66.8662109375 66.4306640625 100.43359375 54.9716796875 119.799804688 41.1552734375 c 0
 125.93359375 36.779296875 126.80078125 30.654296875 126.80078125 20.5830078125 c 2
 126.80078125 -89 l 1
 104.490234375 -73.9501953125 68.017578125 -63.1064453125 42.048828125 -63.1064453125 c 0
 34.76171875 -63.1064453125 28.0732421875 -63.9599609375 22.400390625 -65.814453125 c 0
 15.625 -68.0302734375 14.7001953125 -72.7939453125 14.7001953125 -81.3330078125 c 2
 14.7001953125 -700 l 1
 12.0751953125 -701.5 9.712890625 -702.25 7.349609375 -702.25 c 0
 4.9873046875 -702.25 2.625 -701.5 0 -700 c 1
EndSplineSet
Validated: 1
EndChar

StartChar: stemInitialUp_ascii
Encoding: 81 81 48
AltUni2: 00f051.ffffffff.0
Width: 0
Flags: HW
VStem: -460 19
LayerCount: 2
Fore
SplineSet
-3 551 m 0
 -3 556 1 559 7 559 c 0
 16 559 23 556 23 548 c 0
 23 518 21 497 20 461 c 0
 16 364 14 105 14 -72 c 0
 14 -82 14 -92 14 -102 c 2
 14 -105.75 l 1
 12 -106.75 10 -107 8 -107 c 0
 5 -107 1.32985063379 -105.161808741 0 -100 c 1
 1 -10 1 94 1 200 c 0
 1 315 1 434 -1 536 c 0
 -1 538 -2 541 -2 543 c 0
 -2 545 -3 549 -3 551 c 0
EndSplineSet
EndChar

StartChar: R
Encoding: 82 82 49
AltUni2: 00f052.ffffffff.0
Width: 15
Flags: HMW
VStem: -3407 28
LayerCount: 2
Fore
SplineSet
0 100 m 1
 15 98 l 1
 15 -190 l 1
 8 -196 3 -196 0 -190 c 1
 0 100 l 1
EndSplineSet
Validated: 1
EndChar

StartChar: S
Encoding: 83 83 50
AltUni2: 00f053.ffffffff.0
Width: 15
Flags: HMW
HStem: -50 27 203 18 224 29 385 24
VStem: -721 68 -572 65 -440 266 -85 28
LayerCount: 2
Fore
SplineSet
0 102 m 1
 3 102 7.50490043868 104.288224846 15 101 c 1
 15 60.5 l 0
 15 -55.25 l 0
 15 -146.75 l 0
 15 -254 l 0
 15 -301 l 1
 9 -304 6 -303 0 -297 c 1
 0 -234.5 l 0
 0 -138 l 0
 0 -52 l 0
 0 65.75 l 4
 0 102 l 1
EndSplineSet
EndChar

StartChar: T
Encoding: 84 84 51
AltUni2: 00f054.ffffffff.0
Width: 15
Flags: HMW
HStem: -166 79 42 89
VStem: -3 28 663 28
LayerCount: 2
Fore
SplineSet
0 105.75 m 5
 6 105.75 8.5068359375 106.770507812 15 103.75 c 5
 15 -421.5 l 0
 15 -430 l 1
 12 -435 3.66218160428 -436.569623266 0 -426 c 1
 0 -418.5 l 0
 0 105.75 l 5
EndSplineSet
EndChar

StartChar: U
Encoding: 85 85 52
AltUni2: 00f055.ffffffff.0
Width: 14
Flags: MW
HStem: -2 82 293 85
VStem: 287 82
LayerCount: 2
Fore
SplineSet
0 78 m 1
 3 78 8 75 14 70 c 1
 14 -580 l 1
 9 -581 5 -578 0 -573 c 1
 0 78 l 1
EndSplineSet
Validated: 1
EndChar

StartChar: gClef8vb
Encoding: 86 86 53
AltUni2: 00f056.ffffffff.0
Width: 14
Flags: W
HStem: -979 20 -695 30 1015 154
VStem: 0 67 247 20 394 44 547 40 601 80
LayerCount: 2
Fore
SplineSet
0 78 m 1
 3 78 8 75 14 70 c 1
 14 -705 l 1
 9 -706 5 -703 0 -698 c 1
 0 78 l 1
EndSplineSet
Validated: 1
EndChar

StartChar: W
Encoding: 87 87 54
AltUni2: 00f057.ffffffff.0
Width: 14
Flags: MW
HStem: -127 15 111 16
VStem: -5 28 79 28 511 28 597 28
LayerCount: 2
Fore
SplineSet
0 78 m 1
 3 78 8 75 14 70 c 1
 14 -830 l 1
 9 -831 5 -828 0 -823 c 1
 0 78 l 1
EndSplineSet
Validated: 1
EndChar

StartChar: ascii91
Encoding: 91 91 58
AltUni2: 00f05b.ffffffff.0
Width: 189
VWidth: 1660
Flags: HMW
HStem: -187.032 29.7825 156.25 29.7825
VStem: -4.35922 27.6083 462.077 27.6083
LayerCount: 2
Fore
SplineSet
178.270507812 -678.6015625 m 0
 172.771484375 -678.133789062 168.661132812 -671.080078125 168.661132812 -665.104492188 c 0
 168.661132812 -663.446289062 168.686401323 -661.598529645 168.950195312 -659.474609375 c 0
 172.215820312 -633.181640625 172.930664062 -523.252929688 173.118164062 -491.17578125 c 0
 173.395670516 -443.700497489 174.403320312 -379.985351562 174.403320312 -297.623046875 c 0
 174.403320312 -207.4921875 173.639648438 -144.975585938 171.286132812 -132.45703125 c 0
 168.126953125 -115.647460938 160.296875 -103.9375 141.78515625 -100.9765625 c 0
 122.494140625 -97.890625 100.64453125 -95.0234375 79.2548828125 -93.20703125 c 0
 51.01953125 -90.80859375 23.587890625 -90.240234375 3.9091796875 -93.421875 c 0
 2.7431640625 -93.609375 1.3046875 -93.8974609375 0.1806640625 -93.802734375 c 0
 -0.931640625 -93.708984375 -1.75 -93.1513671875 -1.75 -91.40234375 c 0
 -1.75 -59.0078125 0 -26 0 8 c 4
 0 23 0.1826171875 35.11328125 0.1826171875 47.2265625 c 0
 0.1826171875 60.126953125 -0.025390625 72.9755859375 -0.880859375 89.0302734375 c 0
 -0.880859375 101.8828125 -0.7578125 107.938476562 9.099609375 109.634765625 c 0
 32.0625 113.587890625 71.5048828125 113.94140625 110.588867188 110.622070312 c 0
 132.928710938 108.724609375 151.655273438 105.842773438 175.09375 100.61328125 c 0
 183.67578125 98.69921875 188.723632812 91.9130859375 189.158203125 80.5 c 0
 189.763671875 64.6396484375 189.920898438 53.86328125 189.920898438 38.26953125 c 0
 189.920898438 -36.0419921875 189.4453125 -582.93359375 189.041992188 -662.44921875 c 0
 189.041992188 -662.508789062 189.041992188 -662.568359375 189.041992188 -662.627929688 c 0
 189.041992188 -665.276367188 189.34375 -666.7734375 189.34375 -668.3828125 c 0
 189.34375 -675.280273438 183.391601562 -679.036132812 178.270507812 -678.6015625 c 0
EndSplineSet
Validated: 33
EndChar

StartChar: backslash
Encoding: 92 92 59
AltUni2: 00f05c.ffffffff.0
Width: 197
VWidth: 1500
Flags: HMW
HStem: 0 30G
VStem: 0 29.355
LayerCount: 2
Fore
SplineSet
-1.5673828125 103.862304688 m 0
 -1.5673828125 104.064453125 -1.62109375 104.880859375 -1.62109375 105.073242188 c 0
 -1.62109375 109.06640625 0.634765625 111.102539062 3.5224609375 111.400390625 c 0
 35.6533203125 114.713867188 68.12109375 115.975585938 107.2421875 113.088867188 c 0
 124.916992188 111.784179688 148.015625 108.504882812 167.31640625 104.563476562 c 0
 168.044921875 104.766601562 168.776367188 104.965820312 169.51171875 105.161132812 c 0
 178.514648438 107.5546875 178.875976562 121.25390625 178.962890625 132.5 c 24
 180.45703125 327.1796875 173.5546875 631.666015625 173.5546875 631.666015625 c 2
 173.474609375 639.077148438 172.565429688 639.275390625 172.009765625 645 c 0
 171.55078125 649.73046875 178.00390625 654.716796875 184.370117188 655 c 0
 195.616210938 655.5 198.583984375 649.338867188 197.759765625 645 c 0
 197.614257812 644.232421875 197.759765625 643 197.759765625 643 c 0
 197.759765625 643 201.305664062 169.309570312 197.759765625 -107.875 c 0
 197.705078125 -112.189453125 193.622070312 -111.02734375 187.202148438 -109.875 c 0
 180.055664062 -108.594726562 172.038085938 -107.86328125 164.799804688 -106.517578125 c 0
 139.696289062 -101.8515625 111.862304688 -98.4384765625 87.494140625 -96.369140625 c 0
 56.1513671875 -93.70703125 28.08984375 -93.7705078125 3.9091796875 -94.85546875 c 0
 2.7216796875 -94.908203125 1.3046875 -95.33203125 0.1806640625 -95.236328125 c 0
 -0.931640625 -95.1416015625 -1.75 -94.583984375 -1.75 -92.8349609375 c 0
 -1.75 -92.732421875 -1.7119140625 -92.0693359375 -1.70703125 -91.958984375 c 0
 -0.0478515625 -59.97265625 0 -25.9892578125 0 8.1162109375 c 0
 0 12.7646484375 0.00390625 17.41796875 0.00390625 22.08203125 c 0
 0.00390625 47.888671875 -0.107421875 76.509765625 -1.5673828125 103.862304688 c 0
EndSplineSet
Validated: 33
EndChar

StartChar: accidentalDoubleSharpParensSml
Encoding: 93 93 60
AltUni2: 00f05d.ffffffff.0
Width: 197
VWidth: 1500
Flags: HMW
VStem: -3.09 61.8 281.19 61.8 563.925 61.8
LayerCount: 2
Fore
SplineSet
197.759765625 -112.5 m 5
 160.6796875 -100.5 129.780273438 -94.5 103.514648438 -94.5 c 4
 75.705078125 -94.5 41.71484375 -100.5 0 -114 c 5
 0 262.5 l 5
 3.8623046875 264.75 7.3388671875 265.875 10.8154296875 265.875 c 0
 14.291015625 265.875 17.767578125 264.75 21.6298828125 262.5 c 5
 21.6298828125 123.5 l 6
 21.6298828125 119.198242188 21.318359375 114.95703125 21.318359375 111.353515625 c 0
 21.318359375 105.482421875 22.14453125 101.30078125 26.48828125 101.30078125 c 0
 27.4375 101.30078125 28.5556640625 101.500976562 29.8701171875 101.926757812 c 4
 51.6201171875 108.975585938 78.0693359375 112.5 108.150390625 112.5 c 4
 128.747070312 112.5 148.271484375 110.416992188 165.830078125 105.383789062 c 4
 167.541015625 104.893554688 168.9765625 104.659179688 170.1796875 104.659179688 c 0
 175.483398438 104.659179688 176.26953125 109.21875 176.26953125 116.494140625 c 0
 176.26953125 119.559570312 176.129882812 123.108398438 176.129882812 127 c 6
 176.129882812 645 l 5
 179.9921875 648 183.46875 649.5 186.9453125 649.5 c 0
 190.420898438 649.5 193.897460938 648 197.759765625 645 c 5
 197.759765625 -112.5 l 5
EndSplineSet
Validated: 1
EndChar

StartChar: asciicircum
Encoding: 94 94 61
AltUni2: 00f05e.ffffffff.0
Width: 197
VWidth: 1500
Flags: HW
HStem: -1.5 31.5G 0 31.5G 342 30G
LayerCount: 2
Fore
SplineSet
21.6298828125 -123.75 m 6x20
 21.6298828125 -286.5 l 5
 16.9951171875 -288.75 12.74609375 -289.875 9.0771484375 -289.875 c 0
 5.4072265625 -289.875 2.3173828125 -288.75 0 -286.5 c 5
 0 88.5 l 5
 30.900390625 105 66.4345703125 112.5 108.150390625 112.5 c 4
 137.504882812 112.5 166.860351562 106.5 197.759765625 93 c 5
 197.759765625 -675 l 5
 193.897460938 -678 190.420898438 -679.5 186.9453125 -679.5 c 0
 183.46875 -679.5 179.9921875 -678 176.129882812 -675 c 5
 176.129882812 -122.5 l 6
 176.129882812 -111.73046875 174.71875 -104.356445312 166.344726562 -102.098632812 c 4
 148.53515625 -97.2978515625 130.45703125 -94.369140625 110.752929688 -94.369140625 c 0
 108.365234375 -94.369140625 105.953125 -94.412109375 103.514648438 -94.5 c 4
 82.7158203125 -95.25 59.42578125 -98.125 31.4150390625 -104.290039062 c 4
 22.9453125 -106.154296875 21.6298828125 -113.22265625 21.6298828125 -123.75 c 6x20
EndSplineSet
Validated: 1
EndChar

StartChar: stringsDownBowTurned
Encoding: 95 95 62
AltUni2: 00f05f.ffffffff.0
Width: 197
VWidth: 1500
Flags: HMW
HStem: 0 28.5
LayerCount: 2
Fore
SplineSet
0 -93.75 m 6
 0 645 l 5
 3.8623046875 648 7.3388671875 649.5 10.8154296875 649.5 c 0
 14.291015625 649.5 17.767578125 648 21.6298828125 645 c 5
 21.6298828125 124.125 l 6
 21.6298828125 123.010742188 21.626953125 121.942382812 21.626953125 120.920898438 c 0
 21.626953125 110.436523438 21.8974609375 104.830078125 27.96875 104.830078125 c 0
 29.2939453125 104.830078125 30.8955078125 105.09765625 32.8310546875 105.639648438 c 4
 50.1552734375 110.487304688 69.3642578125 112.5 89.6103515625 112.5 c 4
 117.81640625 112.5 142.830078125 109.401367188 163.76953125 103.203125 c 4
 166.075195312 102.521484375 167.955078125 102.165039062 169.48828125 102.165039062 c 0
 175.377929688 102.165039062 176.129882812 107.423828125 176.129882812 119.625 c 6
 176.129882812 262.5 l 5
 179.9921875 264.75 183.46875 265.875 186.9453125 265.875 c 0
 190.420898438 265.875 193.897460938 264.75 197.759765625 262.5 c 5
 197.759765625 -114 l 5
 156.044921875 -100.5 122.0546875 -94.5 94.2451171875 -94.5 c 4
 69.826171875 -94.5 41.3994140625 -99.6865234375 7.724609375 -110.059570312 c 4
 6.6494140625 -110.390625 5.7236328125 -110.546875 4.9248046875 -110.546875 c 0
 0.3994140625 -110.546875 -0.0224609375 -105.520507812 -0.0224609375 -98.6875 c 0
 -0.0224609375 -97.123046875 0 -95.46484375 0 -93.75 c 6
EndSplineSet
Validated: 1
EndChar

StartChar: grave
Encoding: 96 96 63
AltUni2: 00f060.ffffffff.0
Width: 197
VWidth: 1500
Flags: HMW
HStem: -10.5 21 313.5 25.5 549 63
VStem: 123.6 54.075 625.725 69.525 1387.41 26.265
LayerCount: 2
Fore
SplineSet
176.129882812 -286.5 m 1
 176.129882812 -122.25 l 2
 176.129882812 -112.89453125 174.403320312 -106.068359375 166.860351562 -104.403320312 c 0
 138.618164062 -98.1689453125 115.171875 -94.5 94.2451171875 -94.5 c 0
 70.8974609375 -94.5 49.990234375 -96.87109375 29.35546875 -102.666015625 c 0
 21.9462890625 -104.74609375 21.6298828125 -112.806640625 21.6298828125 -122.25 c 2
 21.6298828125 -675 l 1
 13.9052734375 -681 7.724609375 -681 0 -675 c 1
 0 93 l 1
 30.900390625 106.5 60.2548828125 112.5 89.6103515625 112.5 c 0
 127.721679688 112.5 160.67578125 106.239257812 189.6484375 92.5751953125 c 0
 197.143554688 89.0400390625 197.759765625 80.4990234375 197.759765625 69.375 c 6
 197.759765625 -286.5 l 1
 193.125 -291 185.400390625 -291 176.129882812 -286.5 c 1
EndSplineSet
Validated: 1
EndChar

StartChar: accidentalSharpParens
Encoding: 97 97 64
AltUni2: 00f061.ffffffff.0
Width: 197
VWidth: 1500
Flags: HMW
VStem: -132.87 83.43 259.56 43.26 409.425 43.26 766.32 83.43
LayerCount: 2
Fore
SplineSet
197.759765625 -112.5 m 5
 160.6796875 -100.5 129.780273438 -94.5 103.514648438 -94.5 c 4
 77.32421875 -94.5 45.6533203125 -99.8212890625 7.2099609375 -111.717773438 c 4
 6.21875 -112.024414062 5.3603515625 -112.168945312 4.6162109375 -112.168945312 c 0
 0.5009765625 -112.168945312 -0.10546875 -107.75 -0.10546875 -101.885742188 c 0
 -0.10546875 -99.4375 0 -96.736328125 0 -94 c 6
 0 637.5 l 5
 3.8623046875 639.75 7.3388671875 640.875 10.8154296875 640.875 c 0
 14.291015625 640.875 17.767578125 639.75 21.6298828125 637.5 c 5
 21.6298828125 122.5 l 6
 21.6298828125 118.625 21.427734375 114.94921875 21.427734375 111.78515625 c 0
 21.427734375 105.631835938 22.1923828125 101.411132812 26.697265625 101.411132812 c 0
 27.7216796875 101.411132812 28.9384765625 101.629882812 30.384765625 102.092773438 c 4
 52.0361328125 109.03125 78.3076171875 112.5 108.150390625 112.5 c 4
 126.75390625 112.5 144.484375 110.80078125 160.6796875 106.762695312 c 4
 163.66796875 106.017578125 166.1171875 105.5703125 168.11328125 105.5703125 c 0
 174.3125 105.5703125 176.129882812 109.887695312 176.129882812 123 c 6
 176.129882812 645 l 5
 179.9921875 648 183.46875 649.5 186.9453125 649.5 c 0
 190.420898438 649.5 193.897460938 648 197.759765625 645 c 5
 197.759765625 -112.5 l 5
EndSplineSet
Validated: 1
EndChar

StartChar: accidentalFlat
Encoding: 98 98 65
AltUni2: 00f062.ffffffff.0
Width: 197
VWidth: 1500
Flags: HMW
HStem: 84 46.5
VStem: -461.955 43.26 -233.295 106.605
LayerCount: 2
Fore
SplineSet
21.6298828125 -128.25 m 2
 21.6298828125 -673.5 l 1
 16.9951171875 -675.75 12.74609375 -676.875 9.0771484375 -676.875 c 0
 5.4072265625 -676.875 2.3173828125 -675.75 0 -673.5 c 1
 0 88.5 l 1
 30.900390625 105 66.4345703125 112.5 108.150390625 112.5 c 0
 134.431640625 112.5 160.712890625 107.690429688 188.103515625 96.9951171875 c 0
 196.522460938 93.7080078125 197.759765625 85.875 197.759765625 73.875 c 6
 197.759765625 -675 l 1
 193.897460938 -678 190.420898438 -679.5 186.9453125 -679.5 c 0
 183.46875 -679.5 179.9921875 -678 176.129882812 -675 c 1
 176.129882812 -124.125 l 2
 176.129882812 -112.666015625 175.578125 -104.59375 166.473632812 -102.133789062 c 0
 146.462890625 -96.7255859375 126.134765625 -94.5 103.514648438 -94.5 c 0
 82.302734375 -94.5 58.5009765625 -98.2705078125 29.7412109375 -104.66015625 c 0
 22.392578125 -106.29296875 21.5576171875 -112.927734375 21.5576171875 -120.932617188 c 0
 21.5576171875 -123.284179688 21.6298828125 -125.75390625 21.6298828125 -128.25 c 2
EndSplineSet
Validated: 1
EndChar

StartChar: d
Encoding: 100 100 67
AltUni2: 00f064.ffffffff.0
Width: 385
VWidth: 1500
Flags: HMW
HStem: -120 31.5G<192.75 212.25> -115.5 198
LayerCount: 2
Fore
SplineSet
364.5 645 m 1x40
 372 646.5 378 646.5 385.5 645 c 1
 385.5 -109.5 l 1
 366 -109.5 334.5 -112.5 291 -115.5 c 0x40
 253.5 -118.5 223.5 -120 201 -120 c 0x80
 184.5 -120 151.5 -118.5 103.5 -115.5 c 0
 54.5888671875 -113.114257812 22.755859375 -111.676757812 8 -111.188476562 c 0
 -2.138671875 -110.852539062 0 -109.579101562 0 -100.5 c 2
 0 71.5 l 6
 0 81.5947265625 0.33203125 88.5927734375 10.5 88.37109375 c 0
 54.7158203125 87.41015625 140.762695312 81.375 201 81.375 c 0
 244.686523438 81.375 286.287109375 86.3740234375 349.5 94.1220703125 c 0
 363.126953125 95.79296875 364.5 102.60546875 364.5 118.5 c 2
 364.5 645 l 1x40
EndSplineSet
Validated: 1
EndChar

StartChar: f
Encoding: 102 102 69
AltUni2: 00f066.ffffffff.0
Width: 648
VWidth: 1500
Flags: HMW
HStem: 348 27 621 36
VStem: -652.5 139.5 -402 363 82.5 37.5
LayerCount: 2
Fore
SplineSet
648 -112.5 m 1
 553.5 -163.5 376.5 -205.5 267 -237 c 4
 189 -259.5 100.5 -277.5 0 -300 c 1
 0 -88.5 l 1
 54 -81 139.5 -67.5 253.5 -40.5 c 0
 348 -18 478.5 24 648 99 c 1
 648 -112.5 l 1
EndSplineSet
Validated: 1
EndChar

StartChar: g
Encoding: 103 103 70
AltUni2: 00f067.ffffffff.0
Width: 792
VWidth: 1500
Flags: HW
HStem: -36 31.5G 858 30G
VStem: 13.5 109.5 99 111
LayerCount: 2
Fore
SplineSet
792 -112.5 m 1xe0
 693 -178.5 559.5 -259.049804688 343.5 -359.549804688 c 4
 238.5 -409.049804688 106.5 -445.5 0 -489 c 1
 0 -277.5 l 1
 66 -255 171 -217.5 310.5 -156 c 0
 423 -106.5 582 -27 792 99 c 1xd0
 792 -112.5 l 1xe0
EndSplineSet
Validated: 1
EndChar

StartChar: mensuralBlackSemibrevis
Encoding: 104 104 71
AltUni2: 00e953.ffffffff.0 00f068.ffffffff.0
Width: 207
VWidth: 1622
Flags: HMW
VStem: -19.6 26.6
LayerCount: 2
Fore
SplineSet
109.1015625 153.483398438 m 1
 155.245117188 89.982421875 188.39453125 40.564453125 207 -2.375 c 1
 176.907226562 -67.427734375 129.288085938 -115.951171875 94.681640625 -151.319335938 c 1
 94.8353928075 -150.048988404 94.9103886104 -148.743950561 94.9103886104 -147.40624035 c 0
 94.9103886104 -109.388096016 34.82421875 -44.4755859375 0 0 c 5
 44.998046875 49.0634765625 75.705078125 88.3349609375 109.1015625 153.483398438 c 1
EndSplineSet
EndChar

StartChar: mensuralBlackMinima
Encoding: 105 105 72
AltUni2: 00e954.ffffffff.0 00f069.ffffffff.0
Width: 199
VWidth: 1676
Flags: HMW
VStem: -19.1786 26.0281
LayerCount: 2
Fore
SplineSet
120.75 594.201171875 m 4
 120.75 601.920898438 113.74609375 605.701171875 107.25 605.701171875 c 4
 98.8759765625 605.701171875 94.345703125 604.607421875 94.345703125 595.647460938 c 4
 94.345703125 593.110351562 97.2412109375 586.541992188 97.25 583.951171875 c 4
 97.443359375 527.143554688 99.4793515081 425.762560527 99.4793515081 303.454384723 c 0
 99.4793515081 251.245600866 99.1083052945 198.503453277 98.064453125 149.8671875 c 1
 63.962890625 88.025390625 41.0766325675 48.0903664251 -0.478515625 -0.5302734375 c 1
 33.5966796875 -47.2294921875 92.8701171875 -114.857421875 92.8701171875 -154.776367188 c 0
 92.8701171875 -156.181640625 92.796875 -157.55078125 92.6455078125 -158.885742188 c 1
 126.5078125 -121.749023438 169.5703125 -71.3740234375 198.0390625 -2.5439453125 c 1
 181.087912612 39.4343139799 155.71077757 87.3538536724 115.849362791 147.577223057 c 1
 115.827781803 174.416768292 115.803863752 201.248883143 115.803863752 228.045102757 c 0
 115.803863752 343.138768207 116.745117188 474.0703125 119.708007812 585.583984375 c 4
 119.715820312 585.877929688 120.75 593.92578125 120.75 594.201171875 c 4
EndSplineSet
EndChar

StartChar: mensuralBlackDragma
Encoding: 107 107 74
AltUni2: 00e95a.ffffffff.0 00f06b.ffffffff.0
Width: 224
VWidth: 1676
Flags: HMW
HStem: 216.266 127.412
VStem: 25.2 110.6
LayerCount: 2
Fore
SplineSet
110.599609375 720.88671875 m 1
 110.599609375 154.236328125 l 1
 196 5.029296875 l 1
 183.400390625 -11.734375 154 -58.6767578125 110.599609375 -134.118164062 c 1
 110.599609375 -714.180664062 l 1
 105 -720.88671875 98 -722.5625 91 -719.209960938 c 1
 91 -139.1484375 l 1
 77 -108.971679688 46.2001953125 -62.029296875 0 0 c 1
 21 33.5302734375 50.400390625 82.1474609375 91 145.852539062 c 1
 91 715.856445312 l 1
 96.599609375 725.916015625 103.599609375 727.592773438 110.599609375 720.88671875 c 1
EndSplineSet
Validated: 1
EndChar

StartChar: mensuralBlackSemibrevisOblique
Encoding: 109 109 76
AltUni2: 00e95b.ffffffff.0 00f06d.ffffffff.0
Width: 230
VWidth: 1676
Flags: HMW
HStem: 11.7354 33.5296G
LayerCount: 2
Fore
SplineSet
-240.799804688 -380.560546875 m 5
 -159.599609375 -254.82421875 -47.599609375 -73.7646484375 95.2001953125 159.265625 c 5
 117.599609375 125.736328125 155.400390625 70.4111328125 207.200195312 -5.029296875 c 5
 183.400390625 -40.236328125 151.200195312 -92.20703125 109.200195312 -162.618164062 c 5
 90.7646484375 -132.658203125 64.416015625 -92.76953125 26.162109375 -33.3203125 c 4
 22.419921875 -27.50390625 19.60546875 -24.0537109375 16.5576171875 -24.0537109375 c 0
 14.189453125 -24.0537109375 11.681640625 -26.1357421875 8.4873046875 -30.8056640625 c 4
 -61.32421875 -132.87890625 -138.469726562 -252.534179688 -224 -393.97265625 c 5
 -226.099609375 -394.810546875 -228.200195312 -395.229492188 -230.299804688 -395.229492188 c 0
 -236.599609375 -393.97265625 l 4
 -239.400390625 -392.295898438 -240.799804688 -387.266601562 -240.799804688 -380.560546875 c 5
EndSplineSet
Validated: 1
EndChar

StartChar: ascii6e
Encoding: 110 110 77
AltUni2: 00f06e.ffffffff.0
Width: 224
VWidth: 1676
Flags: HMW
VStem: -782.6 39.2 -585.2 39.2
LayerCount: 2
Fore
SplineSet
196 -5.029296875 m 1
 162.827333747 -74.4845319391 132.159179688 -118.470703125 96 -170 c 1
 108.61328125 -129.306640625 60.7665286206 -75.223334278 0 0 c 1
 24.1990619783 28.2913450493 54.4079129118 71.4110284886 91 139.1484375 c 1
 93.6712891605 270.699397408 98.166015625 383.802734375 92.373046875 561.827148438 c 1
 65.923828125 552.982421875 47.755859375 550.989257812 37.8994140625 554.170898438 c 0
 23.8134765625 558.955078125 16.609375 570.565429688 16.2587890625 590.681640625 c 0
 15.9658203125 607.443359375 21.2724609375 624.303710938 32.177734375 641.26171875 c 0
 57.8784981769 681.575088164 79.9492581443 708.287430552 98.5735316932 720.499994932 c 0
 107.257153472 726.194138639 110.251832604 720.551433453 110.545121924 715.5 c 0
 113.708007812 661.024414062 114.515625 575.153320312 114.515625 575.153320312 c 1
 127.055664062 578.2265625 145.592773438 585.140625 155.333007812 588.665039062 c 1
 150.162109375 585.6640625 132.654296875 576.82421875 114.603515625 568.875 c 1
 119.28125 365.330078125 112.882221458 259.387473918 110.599609375 137.118164062 c 1
 140.845703125 100.336914062 173.777404918 50.1397240192 196 -5.029296875 c 1
92.5068359375 569.782226562 m 1
 91.606461769 601.866088662 90.6754509936 645.31920345 88.8330078125 663.499023438 c 0
 88.03125 671.41015625 85.3876953125 673.533203125 81.5 670.166992188 c 0
 72.6533203125 662.508789062 68.3974609375 658.010742188 61.4560546875 650.228515625 c 4
 43.2109375 629.771484375 31.275390625 612.740234375 30.0810546875 600.982421875 c 0
 28.9150390625 587.547851562 31.8896484375 577.5390625 39.005859375 570.956054688 c 0
 46.1513671875 562.698242188 64.5986328125 564.265625 92.5068359375 569.782226562 c 1
EndSplineSet
Validated: 33
EndChar

StartChar: mensuralBlackSemiminima
Encoding: 111 111 78
AltUni2: 00e955.ffffffff.0 00f06f.ffffffff.0
Width: 198
VWidth: 1676
Flags: HMW
HStem: -139.148 30.1766 108.971 30.1766
VStem: 0 23.8 207.2 25.2
LayerCount: 2
Fore
SplineSet
196 0 m 5
 170.937803891 -52.6172430717 143.938968186 -97.2049012629 91 -164.295898438 c 5
 91.6419228816 -162.593241642 91.9482576174 -160.605801043 91.9482576174 -158.363047139 c 0
 91.9482576174 -128.982405599 39.3761302542 -55.7857612932 0 -5.029296875 c 5
 19.0285578838 18.0996471982 57.255589334 76.0480500607 81.9370666414 129.666664859 c 4
 84.3741892159 134.961126568 85.2549784359 140.313777496 85.400390625 147.333333333 c 4
 87.0703030094 227.945854849 88.1474468194 296.69112121 88.1474468194 365.990488913 c 0
 88.1474468194 426.097361963 87.3371140232 486.621084171 85.400390625 555.666666667 c 4
 85.3877833839 556.116123883 85.3833100938 556.565713579 85.3833100938 557.013988308 c 0
 85.3833100938 558.109562505 85.4100292129 559.197282356 85.4100292129 560.256018062 c 0
 85.4100292129 564.611392651 84.9578630686 568.476270181 80.3333333333 570.379662273 c 4
 69.7770168698 574.724495245 54.515625 581.069335938 46.0498046875 585.416015625 c 4
 49.900390625 583.877929688 63.6337890625 579.431640625 79.25 575.827148438 c 4
 80.6520830107 575.503523374 81.7470593211 575.275528966 82.5989236548 575.275528966 c 0
 84.5709371317 575.275528966 85.240128136 576.497337295 85.400390625 580.583007812 c 4
 85.6036710275 585.772292234 85.6942608968 591.848213554 85.6942608968 598.469138115 c 0
 85.6942608968 634.883130332 82.9540818314 687.782481039 81.150390625 700.333007812 c 4
 80.6850274357 703.571119273 80.2658559359 708.002969022 80.2658559359 712.251142931 c 0
 80.2658559359 719.166687633 81.3766663889 725.595488738 85.2072932101 725.595488738 c 0
 86.0215467734 725.595488738 86.9586910962 725.305013153 88.0341796875 724.666992188 c 4
 110.256835938 711.483398438 133.857421875 683.958984375 161.049804688 642.092773438 c 4
 172.25 625.327148438 180.599609375 608.5625 180.599609375 591.797851562 c 4
 180.599609375 571.678710938 173.599609375 559.944335938 159.599609375 554.915039062 c 4
 156.496620397 553.853498338 152.702865054 553.296105308 148.112917479 553.296105308 c 0
 139.516916658 553.296105308 128.128401686 555.25107028 113.254882812 559.510742188 c 4
 112.150381719 559.827122076 111.216339547 559.970021414 110.426893232 559.970021414 c 0
 106.689235439 559.970021414 106.192806685 556.766821188 106.192806685 553.605949766 c 0
 106.192806685 552.709188407 106.232764069 551.815834079 106.25 551 c 4
 107.242332708 503.82653021 107.630888551 458.133206602 107.630888551 412.820369646 c 0
 107.630888551 328.903495961 106.298258722 246.291577198 105 158 c 4
 104.987260905 157.133643604 104.979999988 156.279720869 104.979999988 155.437911342 c 0
 104.979999988 145.424428112 106.007387261 137.124909655 111.062720723 130 c 4
 131.474669917 101.231711025 163.45437852 58.6411181593 196 0 c 5
163.849609375 601.856445312 m 4
 161.186523438 617.801757812 144.05859375 641.330078125 109.671875 671 c 4
 108.38562164 672.109808055 107.391258397 672.551707477 106.626643793 672.551707477 c 0
 104.692970407 672.551707477 104.228676643 669.725497039 104.228676643 667.72858416 c 0
 104.228676643 667.46903787 104.236520041 667.223501053 104.25 667 c 4
 105.412497052 647.715295611 105.594299909 632.594016091 105.594299909 618.930521619 c 0
 105.594299909 612.711747654 105.556639357 606.794954581 105.556639357 600.925049166 c 0
 105.556639357 594.989992464 105.595140553 589.102870028 105.75 583 c 4
 105.756994104 582.724964814 105.760031147 582.448419251 105.760031147 582.170845462 c 0
 105.760031147 580.338265224 105.627651868 578.460866468 105.627651868 576.677400781 c 0
 105.627651868 572.092640332 106.502482121 568.12863784 112.75 567.142578125 c 4
 122.698256395 565.572077247 131.099382676 564.741463247 137.983824389 564.741463247 c 0
 147.739068724 564.741463247 154.448984776 566.409240688 158.200195312 570.002929688 c 4
 163.060571925 575.822769596 164.570208199 582.451457602 164.570208199 590.449628197 c 0
 164.570208199 593.97056376 164.277653451 597.756893471 163.849609375 601.856445312 c 4
EndSplineSet
EndChar

StartChar: p
Encoding: 112 112 79
AltUni2: 00f070.ffffffff.0
Width: 224
VWidth: 1676
Flags: HMW
HStem: -281.649 35.2061 -35.2061 85.5005 410.738 50.2944
VStem: -179.2 225.4 292.6 82.6
LayerCount: 2
Fore
SplineSet
196 5.029296875 m 1
 183.400390625 -11.734375 154 -58.6767578125 110.599609375 -134.118164062 c 1
 110.599609375 -568.326171875 l 1
 123.200195312 -573.35546875 134.400390625 -578.384765625 144.200195312 -583.416015625 c 0
 140 -581.73828125 128.799804688 -578.384765625 110.599609375 -573.35546875 c 1
 110.599609375 -725.916015625 l 1
 89.599609375 -719.209960938 64.400390625 -690.708984375 32.2001953125 -642.092773438 c 0
 21 -625.327148438 15.400390625 -608.5625 15.400390625 -591.797851562 c 0
 15.400390625 -571.678710938 22.400390625 -559.944335938 36.400390625 -554.915039062 c 0
 46.2001953125 -551.5625 64.400390625 -553.23828125 91 -561.620117188 c 1
 91 -139.1484375 l 1
 77 -108.971679688 46.2001953125 -62.029296875 0 0 c 1
 22.400390625 38.5595703125 57.400390625 92.20703125 103.599609375 164.295898438 c 1
 196 5.029296875 l 1
91 -675.622070312 m 1
 91 -568.326171875 l 1
 63 -563.296875 44.7998046875 -563.296875 37.7998046875 -570.002929688 c 0
 30.7998046875 -578.384765625 28 -588.444335938 29.400390625 -601.856445312 c 0
 32.2001953125 -618.62109375 53.2001953125 -643.768554688 91 -675.622070312 c 1
EndSplineSet
Validated: 33
EndChar

StartChar: q
Encoding: 113 113 80
AltUni2: 00f071.ffffffff.0
Width: 224
VWidth: 1676
Flags: HMW
HStem: -1.67648 33.5296G
VStem: 415.8 26.6
LayerCount: 2
Fore
SplineSet
91 -570.002929688 m 1
 63 -564.97265625 44.7998046875 -564.97265625 37.7998046875 -571.678710938 c 0
 30.7998046875 -580.0625 28 -590.12109375 29.400390625 -603.533203125 c 0
 32.2001953125 -620.297851562 53.2001953125 -645.4453125 91 -677.297851562 c 1
 91 -570.002929688 l 1
32.2001953125 -643.768554688 m 0
 21 -627.00390625 15.400390625 -610.239257812 15.400390625 -593.474609375 c 0
 15.400390625 -573.35546875 22.400390625 -561.620117188 36.400390625 -556.590820312 c 0
 46.2001953125 -553.23828125 64.400390625 -554.915039062 91 -563.296875 c 1
 91 -139.1484375 l 1
 77 -108.971679688 46.2001953125 -62.029296875 0 0 c 1
 21 33.5302734375 50.400390625 82.1474609375 91 145.852539062 c 1
 91 715.856445312 l 1
 96.599609375 725.916015625 103.599609375 727.592773438 110.599609375 720.88671875 c 1
 110.599609375 154.236328125 l 1
 196 5.029296875 l 1
 183.400390625 -11.734375 154 -58.6767578125 110.599609375 -134.118164062 c 1
 110.599609375 -570.002929688 l 1
 123.200195312 -575.032226562 134.400390625 -580.0625 144.200195312 -585.091796875 c 0
 140 -583.416015625 128.799804688 -580.0625 110.599609375 -575.032226562 c 1
 110.599609375 -729.268554688 l 1
 93.7998046875 -727.592773438 67.2001953125 -699.090820312 32.2001953125 -643.768554688 c 0
EndSplineSet
Validated: 33
EndChar

StartChar: r
Encoding: 114 114 81
AltUni2: 00f072.ffffffff.0
Width: 224
VWidth: 1676
Flags: HMW
VStem: -246.4 35
LayerCount: 2
Fore
SplineSet
105 -570.002929688 m 1
 105 -677.297851562 l 1
 142.799804688 -645.4453125 163.799804688 -620.297851562 166.599609375 -603.533203125 c 0
 168 -590.12109375 165.200195312 -580.0625 158.200195312 -571.678710938 c 0
 151.200195312 -564.97265625 133 -564.97265625 105 -570.002929688 c 1
163.799804688 -643.768554688 m 0
 128.799804688 -699.090820312 102.200195312 -727.592773438 85.400390625 -729.268554688 c 1
 85.400390625 -575.032226562 l 1
 67.2001953125 -580.0625 56 -583.416015625 51.7998046875 -585.091796875 c 0
 61.599609375 -580.0625 72.7998046875 -575.032226562 85.400390625 -570.002929688 c 1
 85.400390625 -134.118164062 l 1
 42 -58.6767578125 12.599609375 -11.734375 0 5.029296875 c 1
 85.400390625 154.236328125 l 1
 85.400390625 720.88671875 l 1
 92.400390625 727.592773438 99.400390625 725.916015625 105 715.856445312 c 1
 105 145.852539062 l 1
 145.599609375 82.1474609375 175 33.5302734375 196 0 c 1
 149.799804688 -62.029296875 119 -108.971679688 105 -139.1484375 c 1
 105 -563.296875 l 1
 131.599609375 -554.915039062 149.799804688 -553.23828125 159.599609375 -556.590820312 c 0
 173.599609375 -561.620117188 180.599609375 -573.35546875 180.599609375 -593.474609375 c 0
 180.599609375 -610.239257812 175 -627.00390625 163.799804688 -643.768554688 c 0
EndSplineSet
Validated: 33
EndChar

StartChar: s
Encoding: 115 115 82
AltUni2: 00f073.ffffffff.0
Width: 224
VWidth: 1676
Flags: HMW
HStem: -51.9709 174.354 290.031 165.972
VStem: 61.6 79.8 204.4 82.6
LayerCount: 2
Fore
SplineSet
196 0 m 1
 172.200195312 -30.177734375 142.799804688 -77.1171875 105 -139.1484375 c 1
 105 -563.296875 l 1
 131.599609375 -554.915039062 149.799804688 -553.23828125 159.599609375 -556.590820312 c 0
 173.599609375 -561.620117188 180.599609375 -573.35546875 180.599609375 -593.474609375 c 0
 180.599609375 -610.239257812 175 -627.00390625 163.799804688 -643.768554688 c 0
 128.799804688 -699.090820312 102.200195312 -727.592773438 85.400390625 -729.268554688 c 1
 85.400390625 -575.032226562 l 1
 72.7998046875 -578.384765625 61.599609375 -581.73828125 51.7998046875 -585.091796875 c 0
 56 -583.416015625 67.2001953125 -578.384765625 85.400390625 -570.002929688 c 1
 85.400390625 -134.118164062 l 1
 68.599609375 -102.265625 40.599609375 -57.0009765625 0 5.029296875 c 1
 14 28.4990234375 42 75.44140625 85.400390625 144.176757812 c 1
 85.400390625 570.002929688 l 1
 72.7998046875 575.032226562 61.599609375 580.0625 51.7998046875 585.091796875 c 0
 56 583.416015625 67.2001953125 580.0625 85.400390625 575.032226562 c 1
 85.400390625 729.268554688 l 1
 102.200195312 727.592773438 128.799804688 699.090820312 163.799804688 643.768554688 c 0
 175 627.00390625 180.599609375 610.239257812 180.599609375 593.474609375 c 0
 180.599609375 573.35546875 173.599609375 561.620117188 159.599609375 556.590820312 c 0
 149.799804688 553.23828125 131.599609375 554.915039062 105 563.296875 c 1
 105 139.1484375 l 1
 124.599609375 107.294921875 155.400390625 62.029296875 196 0 c 1
166.599609375 613.591796875 m 0
 163.799804688 630.35546875 142.799804688 655.50390625 105 687.356445312 c 1
 105 580.0625 l 1
 133 575.032226562 151.200195312 575.032226562 158.200195312 581.73828125 c 0
 165.200195312 590.12109375 168 600.180664062 166.599609375 613.591796875 c 0
166.599609375 -603.533203125 m 0
 168 -590.12109375 165.200195312 -580.0625 158.200195312 -573.35546875 c 0
 151.200195312 -564.97265625 133 -564.97265625 105 -570.002929688 c 1
 105 -677.297851562 l 1
 116.200195312 -668.916015625 126 -658.857421875 134.400390625 -650.474609375 c 0
 154 -630.35546875 165.200195312 -615.267578125 166.599609375 -603.533203125 c 0
EndSplineSet
Validated: 33
EndChar

StartChar: u
Encoding: 117 117 84
AltUni2: 00f075.ffffffff.0
Width: 118
Flags: MW
HStem: -383 85 -85 82
VStem: 290 82
LayerCount: 2
Fore
SplineSet
8.25 44 m 4
 29.1896008872 42.3941820237 54.2682785678 41.491703919 76.218180361 41.491703919 c 4
 89.7889514408 41.491703919 102.163757873 41.8366733087 111.625 42.5736740989 c 4
 113.74005336 42.7384300555 115.19080773 44.9866143912 118 46 c 5
 118 -75 l 5
 94.5475089533 -77.9060632421 79.51171875 -78.125 58 -78.125 c 4
 41.5830078125 -78.125 21.8590789777 -77.0930786407 7.5 -75.625 c 4
 2.74175844494 -75.1385152606 -3.2098916014e-16 -75.492150804 0 -70.25 c 5
 -1 -35.9188749773 -1.5 0.712460207038 0 40.25 c 5
 0 43.4643295951 2.70813745754 44.1208725835 5.65984719823 44.1208725835 c 4
 6.5229446557 44.1208725835 7.4068678437 44.0647373485 8.25 44 c 4
EndSplineSet
Validated: 33
EndChar

StartChar: v
Encoding: 118 118 85
AltUni2: 00f076.ffffffff.0
Width: 209
Flags: HMW
HStem: 41 71 190 71
VStem: 44 89
LayerCount: 2
Fore
SplineSet
0 32 m 2
 0 34 -1 35 -1 36 c 0
 -1 37 0 38 3 38 c 0
 8 37 57 33 98 33 c 0
 128 33 152 34 186 37 c 0
 189 37 199 38 202 41 c 0
 204 42 207 45 209 45 c 1
 209 -65 l 2
 209 -71 208 -75 203 -75 c 4
 171 -77 142 -78 113 -78 c 0
 76 -78 41 -77 6 -75 c 0
 0 -75 0 -72 -0 -68 c 0
 0 -67 0 -66 0 -64 c 2
 0 32 l 2
EndSplineSet
EndChar

StartChar: w
Encoding: 119 119 86
AltUni2: 00f077.ffffffff.0
Width: 194
Flags: MW
HStem: -125 15 113 16
VStem: 53 99 306 95
LayerCount: 2
Fore
SplineSet
0 427 m 6
 0 431 2 433 7 433 c 4
 12 432 14 430 14 427 c 6
 14 47.6666666667 l 6
 14 36.1083321892 15.2186693829 36.7220077174 25.3333333333 35.5538262335 c 4
 45.629238409 33.2097740114 67.4789212993 31.9765011044 90.8823820042 31.9765011044 c 4
 122.43134833 31.9765011044 156.803887662 34.2176426994 194 39 c 5
 194 -65.5 l 6
 194 -66.2236356537 194.00505292 -66.9025955393 194.00505292 -67.5384646381 c 4
 194.00505292 -72.5507385565 193.691091276 -74.8855796928 188.113527363 -75.319280605 c 4
 158.705002706 -77.6060323428 130.967854908 -78.5007301785 104.182589243 -78.5007301785 c 4
 70.3462594595 -78.5007301785 38.0289296178 -77.0729841243 5.78019405459 -75.2200956913 c 4
 0.600829322753 -74.922509295 -0.0928569544232 -72.622203842 -0.0928569544232 -68.6951772452 c 4
 -0.0928569544232 -67.2583997769 -4.99600361081e-16 -65.6038691598 0 -63.75 c 6
 0 427 l 6
EndSplineSet
Validated: 1
EndChar

StartChar: Ntilde
Encoding: 132 209 97
AltUni2: 00f084.ffffffff.0
Width: 130
Flags: MW
HStem: -19 35 105 20G
VStem: 108 35
LayerCount: 2
Fore
SplineSet
19.296875 70.3115234375 m 0
 35.265625 77.0166015625 52.6416015625 79.23046875 67.7265625 79.23046875 c 0
 70.634765625 79.23046875 73.4580078125 79.1484375 76.169921875 79 c 0
 98.513671875 78 109.684570312 74 129.997070312 62 c 1
 129.997070312 -76 l 1
 109.684570312 -63 88.357421875 -60 72.107421875 -60 c 0
 53.341796875 -60 26.2666015625 -61.9658203125 6.048828125 -72.6064453125 c 0
 4.7880859375 -73.2705078125 3.7744140625 -73.60546875 2.9638671875 -73.60546875 c 0
 0.6513671875 -73.60546875 0 -70.873046875 0 -65.25 c 2
 0 559.75 l 1
 5.078125 559.75 11.171875 554 14.21875 551 c 1
 14.21875 78 l 2
 14.21875 77.77734375 14.21875 77.5595703125 14.21875 77.345703125 c 0
 14.21875 72.119140625 14.26171875 69.5576171875 16.48828125 69.5576171875 c 0
 17.1865234375 69.5576171875 18.1005859375 69.8095703125 19.296875 70.3115234375 c 0
EndSplineSet
Validated: 1
EndChar

StartChar: Odieresis
Encoding: 133 214 98
AltUni2: 00f085.ffffffff.0
Width: 130
Flags: MW
HStem: -3 20G
VStem: 30 24
LayerCount: 2
Fore
SplineSet
17.9423828125 69.73046875 m 0
 34.279296875 76.888671875 52.21484375 79.23046875 67.7265625 79.23046875 c 0
 70.634765625 79.23046875 73.4580078125 79.1484375 76.169921875 79 c 0
 98.513671875 78 109.684570312 74 129.997070312 62 c 1
 129.997070312 -76 l 1
 109.684570312 -63 88.357421875 -60 72.107421875 -60 c 0
 52.892578125 -60 24.173828125 -62.666015625 4.8603515625 -73.51953125 c 0
 3.6328125 -74.2099609375 2.6982421875 -74.5732421875 1.9931640625 -74.5732421875 c 0
 0.4326171875 -74.5732421875 0 -72.791015625 0 -68.8330078125 c 2
 0 684.75 l 1
 5.078125 684.75 11.171875 679.5 14.21875 676.5 c 1
 14.21875 76.75 l 2
 14.21875 76.216796875 14.216796875 75.7060546875 14.216796875 75.21875 c 0
 14.216796875 71.5576171875 14.32421875 69.26171875 16.16015625 69.26171875 c 0
 16.630859375 69.26171875 17.2158203125 69.412109375 17.9423828125 69.73046875 c 0
EndSplineSet
Validated: 1
EndChar

StartChar: Udieresis
Encoding: 134 220 99
AltUni2: 00f086.ffffffff.0
Width: 130
Flags: MW
HStem: -163 22 223 67
VStem: 463 64
LayerCount: 2
Fore
SplineSet
22.0888671875 71.0625 m 0
 37.2802734375 77.0498046875 53.9697265625 79.1611328125 68.9697265625 79.1611328125 c 0
 71.419921875 79.1611328125 73.82421875 79.10546875 76.169921875 79 c 0
 98.513671875 78 109.684570312 74 129.997070312 62 c 1
 129.997070312 -76 l 1
 109.684570312 -63 88.357421875 -60 72.107421875 -60 c 0
 52.9462890625 -60 25.17578125 -62.033203125 4.8876953125 -73.25 c 0
 3.9033203125 -73.7939453125 3.1142578125 -74.05078125 2.4814453125 -74.05078125 c 0
 0.3193359375 -74.05078125 0 -71.0419921875 0 -66.25 c 2
 0 809.5 l 1
 5.078125 809.5 11.171875 803.5 14.21875 800.5 c 1
 14.21875 75.5 l 2
 14.21875 70.912109375 15.0244140625 69.4306640625 16.810546875 69.4306640625 c 0
 18.0654296875 69.4306640625 19.8056640625 70.162109375 22.0888671875 71.0625 c 0
EndSplineSet
Validated: 1
EndChar

StartChar: aacute
Encoding: 135 225 100
AltUni2: 00f087.ffffffff.0
Width: 130
Flags: MW
HStem: -129 23 110 27
VStem: -1 29 414 29
LayerCount: 2
Fore
SplineSet
22.8505859375 71.375 m 0
 38.0029296875 77.6689453125 52.3359375 79.25 65.9970703125 79.25 c 0
 69.4296875 79.25 72.8203125 79.150390625 76.169921875 79 c 0
 98.513671875 78 109.684570312 74 129.997070312 62 c 1
 129.997070312 -76 l 1
 109.684570312 -63 88.357421875 -60 72.107421875 -60 c 0
 53.8349609375 -60 26.5205078125 -62.427734375 6.4326171875 -72.3798828125 c 0
 4.9443359375 -73.1171875 3.80078125 -73.4892578125 2.919921875 -73.4892578125 c 0
 0.1640625 -73.4892578125 -0 -69.841796875 0 -62.3330078125 c 2
 0 934.25 l 1
 5.078125 934.25 11.171875 928.75 14.21875 925.75 c 1
 14.21875 80.5830078125 l 2
 14.21875 73.8037109375 15.091796875 70.30859375 18.6220703125 70.30859375 c 0
 19.744140625 70.30859375 21.134765625 70.662109375 22.8505859375 71.375 c 0
EndSplineSet
Validated: 1
EndChar

StartChar: blackPodatusFinal2nd
Encoding: 136 224 101
AltUni2: 00f088.ffffffff.0
Width: 14
Flags: MW
HStem: 41 71 190 71
VStem: 37 74
LayerCount: 2
Fore
SplineSet
10.4306640625 -198.872070312 m 2
 0 -200 l 5
 0 -55.3330078125 l 2
 0 -47.185546875 -3.19578380271 -42.8366391167 -9 -41.3165129782 c 0
 -22.8690032316 -37.6842164524 -34.5923933896 -37 -47 -37 c 0
 -67 -37 -90 -42 -114 -50 c 1
 -114 59 l 1
 -88 73 -66 75 -44 75 c 0
 -24.2742710418 75 -11.783954163 72.5881959736 7.16666666667 64.8812792828 c 0
 12.7798879585 62.5984712813 14 57.5576171875 14 49.1669921875 c 2
 14 -196.391304348 l 2
 14 -198.525734967 12.26953125 -198.642578125 10.4306640625 -198.872070312 c 2
EndSplineSet
Validated: 1
EndChar

StartChar: blackPodatusFinal3rd
Encoding: 137 226 102
AltUni2: 00f089.ffffffff.0
Width: 14
Flags: MW
HStem: 1 20G
LayerCount: 2
Fore
SplineSet
14 -325 m 1
 8 -326 7 -326 0 -325 c 1
 0 -80.6669921875 l 2
 0 -73.908203125 -1.76351373921 -69.3279160645 -6.66666666667 -67.949997081 c 0
 -21.5676989127 -63.7624027903 -33.9026480612 -63 -47 -63 c 0
 -67 -63 -90 -68 -114 -76 c 1
 -114 59 l 1
 -88 73 -66 75 -44 75 c 0
 -23.8153478013 75 -13.373046875 73.2236328125 6.3330078125 65.8330078125 c 0
 11.1851781107 64.0132335513 14 59.15625 14 52 c 6
 14 -325 l 1
EndSplineSet
Validated: 1
EndChar

StartChar: blackPodatusFinal4th
Encoding: 138 228 103
AltUni2: 00f08a.ffffffff.0
Width: 14
Flags: MW
HStem: 0 32
LayerCount: 2
Fore
SplineSet
14 -450 m 1
 9 -451 7 -451 0 -450 c 1
 0 -80.75 l 2
 0 -74.1123046875 -1.42705286148 -69.4394594831 -6.25 -68.0677956029 c 0
 -21.3381922055 -63.7766583229 -33.7807669413 -63 -47 -63 c 0
 -67 -63 -90 -68 -114 -76 c 1
 -114 59 l 1
 -88 73 -66 75 -44 75 c 0
 -23.7301233061 75 -11.1003522128 72.4532981332 8.75 64.2313287742 c 0
 13.4760608376 62.2738054528 14 58.4287109375 14 51.5 c 2
 14 -450 l 1
EndSplineSet
Validated: 1
EndChar

StartChar: blackPodatusFinal5th
Encoding: 139 227 104
AltUni2: 00f08b.ffffffff.0
Width: 14
Flags: MW
VStem: 165 42 292 42
LayerCount: 2
Fore
SplineSet
-427 -41.825012207 m 1052
14 -575 m 1
 9 -576 7 -576 0 -575 c 1
 0 -80.25 l 2
 0 -74.162109375 -1.3335599148 -69.4848786298 -5.75 -68.2110069472 c 0
 -21.063934005 -63.7938776527 -33.6350281762 -63 -47 -63 c 0
 -67 -63 -90 -68 -114 -76 c 1
 -114 59 l 1
 -88 73 -66 75 -44 75 c 0
 -23.5604538199 75 -15.1396484375 74.38671875 5 66 c 0
 9.1240234375 64.2822265625 14 57.1640625 14 51 c 2
 14 -575 l 1
EndSplineSet
Validated: 1
EndChar

StartChar: accidentalDoubleFlatParens
Encoding: 140 229 105
AltUni2: 00f08c.ffffffff.0
Width: 14
Flags: MW
HStem: 95 31
VStem: -70 54 151 28 333 28 612 54
LayerCount: 2
Fore
SplineSet
14 -575 m 1
 10 -576 7 -576 0 -575 c 1
 0 -82 l 6
 0 -73.994140625 -1.65996522036 -69.3201879994 -7.5 -67.7186336305 c 0
 -22.0293235642 -63.7341536556 -34.1475849543 -63 -47 -63 c 0
 -67 -63 -90 -68 -114 -76 c 1
 -114 59 l 1
 -88 73 -66 75 -44 75 c 0
 -23.6451586962 75 -10.994606815 72.4319035258 9 64.1276380814 c 0
 13.8484890811 62.1139380518 14 56.3564453125 14 49.25 c 2
 14 -575 l 1
EndSplineSet
Validated: 1
EndChar

StartChar: ccedilla
Encoding: 141 231 106
AltUni2: 00f08d.ffffffff.0
Width: 14
Flags: MW
HStem: -29 27 224 18 244 29 406 24
VStem: 292 62 427 59 870 25 1146 25 1266 41
LayerCount: 2
Fore
SplineSet
14 -700 m 1
 10 -701 7 -701 0 -700 c 1
 0 -80.6669921875 l 6
 0 -74.1201171875 -1.41148110258 -69.4471201889 -6.16666666667 -68.0915239868 c 0
 -21.2923953816 -63.7795197291 -33.7564378262 -63 -47 -63 c 0
 -67 -63 -90 -68 -114 -76 c 1
 -114 59 l 1
 -88 73 -66 75 -44 75 c 0
 -23.58865993 75 -10.924438106 72.4176272513 9.16666666667 64.0583551867 c 0
 13.6493425637 62.1932557894 14 56.7392578125 14 50.1669921875 c 2
 14 -700 l 1
EndSplineSet
Validated: 1
EndChar

StartChar: eacute
Encoding: 142 233 107
AltUni2: 00f08e.ffffffff.0
Width: 14
Flags: MW
HStem: -1 20G 247 30
VStem: 215 83
LayerCount: 2
Fore
SplineSet
14 -825 m 1
 12 -825.5 10.25 -825.75 8.125 -825.75 c 0
 6 -825.75 3.5 -825.5 0 -825 c 1
 0 -79.25 l 2
 0 -69.4905748968 -1.18678389797 -69.3940164981 -8.5 -67.448495697 c 0
 -22.5878615289 -63.7007290149 -34.443566257 -63 -47 -63 c 0
 -67 -63 -90 -68 -114 -76 c 1
 -114 59 l 1
 -88 73 -66 75 -44 75 c 0
 -24.6818956786 75 -12.3032591075 72.6868440832 6 65.3523027156 c 0
 13.8174520175 62.2196679824 14 56.7001953125 14 45.87109375 c 4
 14 45.33984375 14 43.0489862114 14 42.5 c 2
 14 -825 l 1
EndSplineSet
Validated: 1
EndChar

StartChar: ecircumflex
Encoding: 144 234 109
AltUni2: 00f090.ffffffff.0
Width: 324
Flags: HMW
VStem: -164 25
LayerCount: 2
Fore
SplineSet
324 -99 m 1
 286 -94 190 -51 134 -21 c 0
 83 7 48 41 0 77 c 1
 0 263 l 1
 56 223 87 192 127 168 c 0
 178 138 218 99 324 87 c 1
 324 -99 l 1
EndSplineSet
Validated: 1
EndChar

StartChar: edieresis
Encoding: 145 235 110
AltUni2: 00f091.ffffffff.0
Width: 448
Flags: MW
HStem: 1 253
VStem: 277 25
LayerCount: 2
Fore
SplineSet
448 -75 m 1
 395 -54 261 9.099609375 184 56.099609375 c 4
 113 99.099609375 67 137 0 183 c 1
 0 324 l 1
 78 270 119 233 176 199 c 0
 246 156 300 121 448 65 c 1
 448 -75 l 1
EndSplineSet
Validated: 1
EndChar

StartChar: iacute
Encoding: 146 237 111
AltUni2: 00f092.ffffffff.0
Width: 538
Flags: MW
VStem: -3090 25
LayerCount: 2
Fore
SplineSet
538 -75 m 1
 453 -45 305 53.2685546875 215 120.268554688 c 0
 131 183.268554688 79 241.25 0 308 c 1
 0 449 l 1
 93 374 125.607748715 340.107339595 208 273 c 0
 321.646484375 180.436523438 342 158 538 68 c 1
 538 31 538 -51 538 -75 c 1
EndSplineSet
Validated: 1
EndChar

StartChar: igrave
Encoding: 147 236 112
AltUni2: 00f093.ffffffff.0
Width: 550
Flags: MW
HStem: -398 21G 218 20G
LayerCount: 2
Fore
SplineSet
550 -75 m 1
 463 -24 313 85 223 175 c 0
 138 260 86 340 0 433 c 1
 0 574 l 1
 95 476 152 413 218 343 c 4
 303 254 361 185 550 68 c 1
 550 -75 l 1
EndSplineSet
Validated: 1
EndChar

StartChar: icircumflex
Encoding: 148 238 113
AltUni2: 00f094.ffffffff.0
Width: 668
Flags: MW
HStem: -75 21G<668 668> 679 20G<0 0>
LayerCount: 2
Fore
SplineSet
668 -75 m 1
 562 -10 373 126 266 241 c 4
 163 351 99 455 0 558 c 1
 0 699 l 1
 115 580 187 507 266 418 c 0
 366 305 439 213 668 65 c 1
 668 -75 l 1
EndSplineSet
Validated: 1
EndChar

StartChar: idieresis
Encoding: 149 239 114
AltUni2: 00f095.ffffffff.0
Width: 764
Flags: MW
HStem: -75 21G<764 764> 804 20G<0 0>
LayerCount: 2
Fore
SplineSet
764 -75 m 1
 643 4 434 181 308 316 c 4
 190 443 114 562 0 683 c 1
 0 824 l 1
 132 684 209 590 304 487 c 0
 423 359 509 267 764 65 c 1
 764 -75 l 1
EndSplineSet
Validated: 1
EndChar

StartChar: ntilde
Encoding: 150 241 115
AltUni2: 00f096.ffffffff.0
Width: 868
Flags: MW
HStem: 0 21G
LayerCount: 2
Fore
SplineSet
868 -75 m 1
 730 18 474 225 344 377 c 0
 214 529 126 650 0 808 c 1
 0 949 l 1
 150 778 236 676 339 552 c 4
 470 394 613 259 868 66 c 1
 868 -75 l 1
EndSplineSet
Validated: 1
EndChar

StartChar: oacute
Encoding: 151 243 116
AltUni2: 00f097.ffffffff.0
Width: 968
Flags: MW
HStem: -75 21G<968 968> 1054 20G<0 0>
LayerCount: 2
Fore
SplineSet
968 -75 m 1
 814 35 595.53125 225.686523438 393 447 c 0
 231.489381205 623.488697656 144 761 0 933 c 1
 0 1074 l 1
 170 876 265 763 385 623 c 0
 538 446 662 326 968 66 c 1
 968 -75 l 1
EndSplineSet
Validated: 1
EndChar

StartChar: ograve
Encoding: 152 242 117
AltUni2: 00f098.ffffffff.0
Width: 432
Flags: MW
HStem: -75 21G<432 432> 179 20G<0 0>
LayerCount: 2
Fore
SplineSet
432 -75 m 1
 348 -69 275 -56.25 201 -29.25 c 4
 129 -3.25 68 34 0 59 c 1
 0 199 l 1
 75 169 140 124 192 101 c 0
 262 70 339 28 432 57 c 1
 432 -75 l 1
EndSplineSet
Validated: 33
EndChar

StartChar: ocircumflex
Encoding: 153 244 118
AltUni2: 00f099.ffffffff.0
Width: 448
Flags: MW
HStem: -75 21G<448 448> 304 20G<0 0>
LayerCount: 2
Fore
SplineSet
448 -75 m 1
 307 -69 240.382274017 -25.3420529947 177.5 27.599609375 c 0
 114.064533234 81.0070141852 72.8791383849 127.930283983 -6.5 182.599609375 c 1
 -6.5 323.599609375 l 1
 95.814453125 238.395507812 124.416699959 213.478419002 175 169 c 0
 233 118 372 0 448 57 c 1
 448 -75 l 1
EndSplineSet
Validated: 33
EndChar

StartChar: odieresis
Encoding: 154 246 119
AltUni2: 00f09a.ffffffff.0
Width: 538
Flags: W
HStem: 429 20G<0 0>
LayerCount: 2
Fore
SplineSet
538 -75 m 1
 535.224288333 -75.0834800501 532.460772274 -75.1247110302 529.709406372 -75.1247110302 c 0
 400.627315189 -75.1247110302 286.88671875 7.41796875 213 90 c 4
 136.05078125 176.00390625 96.643370375 241.846507777 0 308 c 1
 0 449 l 1
 112.723489713 375.692305357 172.792421479 286.730933225 229 225 c 0
 301.190893857 145.715117686 393.010952072 45.2961760559 493.94031695 45.2961760559 c 0
 508.522889366 45.2961760559 523.229570098 47.6977943941 538 53 c 1
 538 28.3333333333 538.444444444 -9.66666666667 538.444444444 -39.3703703704 c 0
 538.444444444 -54.2222222222 538.333333333 -67 538 -75 c 1
EndSplineSet
Validated: 1
EndChar

StartChar: otilde
Encoding: 155 245 120
AltUni2: 00f09b.ffffffff.0
Width: 550
Flags: MW
HStem: 554 20G<0 0>
LayerCount: 2
Fore
SplineSet
550 -75 m 1
 547.747756944 -75.0462789669 545.501701146 -75.0692367347 543.261920708 -75.0692367347 c 0
 400.309581219 -75.0692367347 279.180776286 15.7795019336 214 111 c 0
 138.600652588 221.148479714 77.4041290283 348.437158564 0 433 c 1
 0 574 l 1
 99.763671875 462.980041467 146.481552492 382.368038435 202 297 c 0
 288.96221571 163.282396097 360.828244734 47.2213587159 501.095492854 47.2213587159 c 0
 516.324134052 47.2213587159 532.567396829 48.4536647054 550 51 c 1
 550 -75 l 1
EndSplineSet
Validated: 1
EndChar

StartChar: uacute
Encoding: 156 250 121
AltUni2: 00f09c.ffffffff.0
Width: 668
Flags: MW
HStem: -75 21G<668 668> 679 20G<0 0>
LayerCount: 2
Fore
SplineSet
668 -75 m 1
 433 -40 368 40 271 163 c 4
 178 281 87 444 0 558 c 1
 0 699 l 1
 118 562 194 443 266 348 c 0
 352 233 494.822021484 41.9413724039 668 65 c 1
 668 -75 l 1
EndSplineSet
Validated: 33
EndChar

StartChar: ugrave
Encoding: 157 249 122
AltUni2: 00f09d.ffffffff.0
Width: 764
Flags: MW
HStem: -75 21G<764 764> 804 20G<0 0>
LayerCount: 2
Fore
SplineSet
764 -75 m 1
 552 -38 421 44 313 188 c 0
 211 324 99 540 0 683 c 1
 0 824 l 1
 132 684 221 507 304 387 c 0
 402 246 594.967662811 52.0110877223 764 54 c 5
 764 -75 l 1
EndSplineSet
Validated: 33
EndChar

StartChar: ucircumflex
Encoding: 158 251 123
AltUni2: 00f09e.ffffffff.0
Width: 868
Flags: MW
HStem: 929 20G<0 0>
LayerCount: 2
Fore
SplineSet
868 -75 m 5
 864.174711492 -75.0921756267 860.366887695 -75.1378573592 856.576466972 -75.1378573592 c 0
 613.63654099 -75.1378573592 442.187212675 112.51946713 326 274 c 4
 211 434 126 636 0 808 c 5
 0 949 l 5
 146 771 266 588 345 447 c 4
 443 271 635.008292242 62.3072822227 868 52 c 5
 868 -75 l 5
EndSplineSet
Validated: 1
EndChar

StartChar: udieresis
Encoding: 159 252 124
AltUni2: 00f09f.ffffffff.0
Width: 968
Flags: MW
HStem: -89 29 1054 33
VStem: 28 65 400 70
LayerCount: 2
Fore
SplineSet
968 -75 m 1
 736 -85 517 184 371 375 c 4
 230 559 145 748 0 933 c 1
 0 1074 l 1
 170 876 278 693 385 543 c 0
 573 282 768.342398474 54.0807128321 968 51 c 1
 968 -75 l 1
EndSplineSet
Validated: 33
EndChar

StartChar: degree
Encoding: 161 176 126
AltUni2: 00f0a1.ffffffff.0
Width: 405
Flags: HMW
HStem: -911 34 1340 209
VStem: 0 51 155 46
LayerCount: 2
Fore
SplineSet
405 -98.5 m 1
 386.927734375 -83.5439453125 367.53515625 -70.4267578125 347.5 -56.078125 c 0
 322.818571944 -38.4019589624 295.94921875 -23.63671875 270 -5.111328125 c 0
 258.879972684 2.82736366289 247.524251545 10.5167837321 236.000004394 18.0150836229 c 0
 214.765446244 31.8314382166 192.958713889 44.9989076051 171.000004563 57.8812838489 c 0
 152.357168628 68.818357754 133.604788812 79.5499386223 115.000004553 90.2986487819 c 4
 100.707369577 98.5560619625 86.5018407103 106.823584295 72.5 115.202148438 c 0
 51.6541801016 127.676082596 27.17578125 140.259765625 0 152 c 1
 0 344 l 1
 27.1005859375 332.975585938 53.7991588428 318.063738911 76.25 305.069335938 c 0
 96.1439230545 293.554860775 115.271833095 282.33619474 134 271.225425561 c 0
 157.726674263 257.149216051 180.811748745 243.246184247 204 229.134227603 c 0
 222.475593542 217.890310492 241.016687302 206.513760599 260 194.811304943 c 0
 275.471611568 185.273673068 291.236964049 175.519560513 307.5 165.444335938 c 0
 331.73046875 150.43359375 356.767578125 130.80078125 390 105.94140625 c 0
 398.0546875 99.916015625 405 96.91015625 405 80 c 2
 405 -98.5 l 1
EndSplineSet
EndChar

StartChar: cent
Encoding: 162 162 127
AltUni2: 00f0a2.ffffffff.0
Width: 538
Flags: MW
HStem: 89 17
LayerCount: 2
Fore
SplineSet
0 449 m 1
 86 418 194 355 324 258 c 0
 420 187 491 123 538 66 c 1
 538 -75 l 1
 484 -21 410 44 315 119 c 0
 233 184 128 247 0 308 c 1
 0 449 l 1
EndSplineSet
Validated: 1
EndChar

StartChar: sterling
Encoding: 163 163 128
AltUni2: 00f0a3.ffffffff.0
Width: 550
Flags: MW
HStem: -4 18 47 79 193 79 305 18
VStem: 1 31 217 68
LayerCount: 2
Fore
SplineSet
0 574 m 1
 44 549 98 511 162 462 c 0
 226 413 281 366 327 322 c 0
 403 250 477 165 550 66 c 1
 550 -75 l 1
 489 5 418 85 338 165 c 0
 247 256 134 346 0 433 c 1
 0 574 l 1
EndSplineSet
Validated: 1
EndChar

StartChar: section
Encoding: 164 167 129
AltUni2: 00f0a4.ffffffff.0
Width: 668
Flags: MW
HStem: 0 13 166 17 211 114
VStem: 2 75 175 63
LayerCount: 2
Fore
SplineSet
0 699 m 1
 143 611 274 510 394 397 c 0
 507 290 599 180 668 66 c 1
 668 -75 l 1
 589 53 497 165 391 261 c 0
 291 352 161 451 0 558 c 1
 0 699 l 1
EndSplineSet
Validated: 1
EndChar

StartChar: bullet
Encoding: 165 8226 130
AltUni2: 00f0a5.ffffffff.0
Width: 764
Flags: MW
HStem: 0 18 310 17
VStem: 0 31 232 32
LayerCount: 2
Fore
SplineSet
0 824 m 1
 65 782 139 727 222 660 c 0
 313 587 389 519 451 456 c 0
 600 304 705 174 764 66 c 1
 764 -75 l 1
 679 52 577 175 458 292 c 0
 321 427 168 557 0 683 c 1
 0 824 l 1
EndSplineSet
Validated: 1
EndChar

StartChar: paragraph
Encoding: 166 182 131
AltUni2: 00f0a6.ffffffff.0
Width: 868
Flags: MW
HStem: 262 25
LayerCount: 2
Fore
SplineSet
0 949 m 1
 68 908 153 846 255 761 c 0
 352 680 439 600 516 521 c 0
 691 344 808 192 868 66 c 1
 868 -75 l 1
 758 79 643 220 523 347 c 0
 386 493 211 647 0 808 c 1
 0 949 l 1
EndSplineSet
Validated: 1
EndChar

StartChar: germandbls
Encoding: 167 223 132
AltUni2: 00f0a7.ffffffff.0
Width: 968
Flags: MW
HStem: -28 31 225 18 244 31 407 24
LayerCount: 2
Fore
SplineSet
0 1074 m 1
 261 879 452 717 574 586 c 0
 684 468 766 373 821 302 c 0
 880 225 929 146 968 66 c 1
 968 -75 l 1
 877 74 747 239 578 421 c 0
 420 591 227 762 0 933 c 1
 0 1074 l 1
EndSplineSet
Validated: 1
EndChar

StartChar: registered
Encoding: 168 174 133
AltUni2: 00f0a8.ffffffff.0
Width: 128
Flags: MW
HStem: -707 150 -454 150 -201 150
VStem: -1386 137
LayerCount: 2
Fore
SplineSet
107.5 -19.4482421875 m 6
 107.5 14.4404296875 l 6
 107.5 25.3447265625 104.557617188 33.900390625 97.58203125 37.1064453125 c 4
 86.7607421875 42.080078125 75.185546875 44.85546875 63.673828125 44.85546875 c 4
 53.0146484375 44.85546875 42.4091796875 42.4765625 32.505859375 37.259765625 c 4
 25.544921875 33.59375 20.5 23.9267578125 20.5 12.177734375 c 6
 20.5 -20.33984375 l 6
 20.5 -34.498046875 31.7099609375 -37.3369140625 41.2119140625 -38.5390625 c 4
 49.09765625 -39.537109375 56.5341796875 -40.0654296875 64.0595703125 -40.0654296875 c 4
 71.5322265625 -40.0654296875 79.091796875 -39.5439453125 87.263671875 -38.44140625 c 4
 97.30859375 -37.0859375 107.5 -32.9794921875 107.5 -19.4482421875 c 6
128 -76 m 1
 108 -63 87 -60 71 -60 c 0
 51 -60 20 -63 0 -76 c 1
 0 59 l 1
 17.3286780215 73.3580475035 39.8050660196 79.6268364722 62.574578485 79.6268364722 c 0
 82.5888924184 79.6268364722 102.829684352 74.7833554564 119.999998806 66.3327517301 c 0
 125.569005949 63.591889142 128 58.3935546875 128 52.0869140625 c 2
 128 -76 l 1
EndSplineSet
Validated: 1
EndChar

StartChar: copyright
Encoding: 169 169 134
AltUni2: 00f0a9.ffffffff.0
Width: 128
Flags: MW
VStem: 130 19
LayerCount: 2
Fore
SplineSet
107.5 -16.9482421875 m 6
 107.5 16.9404296875 l 6
 107.5 27.8447265625 104.557617188 36.400390625 97.58203125 39.6064453125 c 4
 86.7607421875 44.580078125 75.185546875 47.35546875 63.673828125 47.35546875 c 4
 53.0146484375 47.35546875 42.4091796875 44.9765625 32.505859375 39.759765625 c 4
 25.544921875 36.09375 20.5 26.4267578125 20.5 14.677734375 c 6
 20.5 -17.83984375 l 6
 20.5 -31.998046875 31.7099609375 -34.8369140625 41.2119140625 -36.0390625 c 4
 49.09765625 -37.037109375 56.5341796875 -37.5654296875 64.0595703125 -37.5654296875 c 4
 71.5322265625 -37.5654296875 79.091796875 -37.0439453125 87.263671875 -35.94140625 c 4
 97.30859375 -34.5859375 107.5 -30.4794921875 107.5 -16.9482421875 c 6
128 -32 m 1
 128 -70 l 1
 128 -176 l 1
 125.404269126 -179.114877049 122.808538252 -180.882190343 120.352723892 -180.882190343 c 0
 118.078051003 -180.882190343 115.923415301 -179.365976777 114 -176 c 1
 114 -78.3544921875 l 2
 114 -65.091796875 107.689193323 -62.2525303418 98.6666672248 -58.9372464636 c 0
 88.4131593791 -55.1696442547 77.9047931367 -53 70 -53 c 0
 50 -53 20 -57 0 -70 c 1
 0 57 l 1
 33.1052631579 72.2105263158 49.3984375 73.5107421875 68.220703125 73.5107421875 c 0
 93.2880859375 73.5107421875 107.374639524 68.4585335979 128 57 c 1
 128 -32 l 1
EndSplineSet
Validated: 1
EndChar

StartChar: mensuralCclefPetrucciPosMiddle
Encoding: 170 8482 135
AltUni2: 00f0aa.ffffffff.0
Width: 128
Flags: MW
HStem: 44 52 299 23
VStem: 253 69
LayerCount: 2
Fore
SplineSet
107.5 -16.6982421875 m 6
 107.5 17.1904296875 l 6
 107.5 28.0947265625 104.557617188 36.650390625 97.58203125 39.8564453125 c 4
 86.7607421875 44.830078125 75.185546875 47.60546875 63.673828125 47.60546875 c 4
 53.0146484375 47.60546875 42.4091796875 45.2265625 32.505859375 40.009765625 c 4
 25.544921875 36.34375 20.5 26.6767578125 20.5 14.927734375 c 6
 20.5 -17.58984375 l 6
 20.5 -31.748046875 31.7099609375 -34.5869140625 41.2119140625 -35.7890625 c 4
 49.09765625 -36.787109375 56.5341796875 -37.3154296875 64.0595703125 -37.3154296875 c 4
 71.5322265625 -37.3154296875 79.091796875 -36.7939453125 87.263671875 -35.69140625 c 4
 97.30859375 -34.3359375 107.5 -30.2294921875 107.5 -16.6982421875 c 6
26.3868748294 -41.0828583556 m 1024
99.3265221684 -41.1302421193 m 1024
128 -32 m 1
 128 -70 l 1
 128 -285 l 1
 126.5 -288.5 123.75 -290.25 121 -290.25 c 0
 118.25 -290.25 115.5 -288.5 114 -285 c 1
 114 -83.986328125 l 2
 114 -69.4033203125 109.845529469 -62.6991262277 100.5 -59.2372978453 c 0
 90.3893318699 -55.492042104 80.9247711949 -55 69 -55 c 0
 49 -55 24 -57 0 -70 c 1
 0 63 l 1
 19.4680706456 71.3434588481 46.6709530191 77.1086471203 65.6740586391 77.1086471203 c 0
 67.1694002091 77.1086471203 68.6139686794 77.0729490169 70 77 c 0
 91 76 108 71 128 59 c 1
 128 -32 l 1
EndSplineSet
Validated: 1
EndChar

StartChar: acute
Encoding: 171 180 136
AltUni2: 00f0ab.ffffffff.0
Width: 128
Flags: MW
HStem: -121 21G 90 20G
LayerCount: 2
Fore
SplineSet
107.5 -18.9482421875 m 6
 107.5 14.9404296875 l 6
 107.5 25.8447265625 104.557617188 34.400390625 97.58203125 37.6064453125 c 4
 86.7607421875 42.580078125 75.185546875 45.35546875 63.673828125 45.35546875 c 4
 53.0146484375 45.35546875 42.4091796875 42.9765625 32.505859375 37.759765625 c 4
 25.544921875 34.09375 20.5 24.4267578125 20.5 12.677734375 c 6
 20.5 -19.83984375 l 6
 20.5 -33.998046875 31.7099609375 -36.8369140625 41.2119140625 -38.0390625 c 4
 49.09765625 -39.037109375 56.5341796875 -39.5654296875 64.0595703125 -39.5654296875 c 4
 71.5322265625 -39.5654296875 79.091796875 -39.0439453125 87.263671875 -37.94140625 c 4
 97.30859375 -36.5859375 107.5 -32.4794921875 107.5 -18.9482421875 c 6
128 -450 m 1
 126.320550528 -451.679449472 124.01431205 -453.04550444 121.256727977 -453.04550444 c 0
 119.088440591 -453.04550444 116.641101056 -452.200917547 114 -450 c 1
 114 -86 l 2
 114 -71.91015625 108.136276121 -67.7463326273 98 -65.6883909152 c 0
 87.0661859596 -63.4685271587 77.2673565591 -63 67 -63 c 0
 47 -63 21 -69 0 -76 c 1
 0 59 l 1
 19 71 48 75.75 70 75.75 c 0
 92 75.75 105 72 128 62 c 1
 128 -450 l 1
EndSplineSet
Validated: 1
EndChar

StartChar: dieresis
Encoding: 172 168 137
AltUni2: 00f0ac.ffffffff.0
Width: 128
Flags: MW
HStem: 213 85
VStem: 83 85
LayerCount: 2
Fore
SplineSet
107.5 -20.6982421875 m 6
 107.5 13.1904296875 l 6
 107.5 24.0947265625 104.557617188 32.650390625 97.58203125 35.8564453125 c 4
 86.7607421875 40.830078125 75.185546875 43.60546875 63.673828125 43.60546875 c 4
 53.0146484375 43.60546875 42.4091796875 41.2265625 32.505859375 36.009765625 c 4
 25.544921875 32.34375 20.5 22.6767578125 20.5 10.927734375 c 6
 20.5 -21.58984375 l 6
 20.5 -35.748046875 31.7099609375 -38.5869140625 41.2119140625 -39.7890625 c 4
 49.09765625 -40.787109375 56.5341796875 -41.3154296875 64.0595703125 -41.3154296875 c 4
 71.5322265625 -41.3154296875 79.091796875 -40.7939453125 87.263671875 -39.69140625 c 4
 97.30859375 -38.3359375 107.5 -34.2294921875 107.5 -20.6982421875 c 6
128 -75 m 1
 110 -69 82 -63 67 -63 c 0
 47 -63 24 -68 0 -76 c 1
 0 59 l 1
 26 73 48 75 70 75 c 0
 83.6149813768 75 94.0229088109 73.7171784229 105.333333333 70.6378413898 c 0
 106.354120756 70.3599253392 107.258550949 70.2279942653 108.059580004 70.2279942653 c 0
 113.357652443 70.2279942653 114.132329309 75.999462955 114.132329309 83.4760403925 c 0
 114.132329309 86.5661263794 114 89.9474768563 114 93.3330078125 c 2
 114 430 l 1
 116.641101056 432.200917547 119.088440591 433.04550444 121.256727977 433.04550444 c 0
 124.01431205 433.04550444 126.320550528 431.679449472 128 430 c 1
 128 379 128 -32 128 -75 c 1
EndSplineSet
Validated: 1
EndChar

StartChar: AE
Encoding: 174 198 138
AltUni2: 00f0ae.ffffffff.0
Width: 128
Flags: MW
HStem: -8 21G 193 20G
VStem: 0 84
LayerCount: 2
Fore
SplineSet
107.5 -20.6982421875 m 6
 107.5 13.1904296875 l 6
 107.5 24.0947265625 104.557617188 32.650390625 97.58203125 35.8564453125 c 4
 86.7607421875 40.830078125 75.185546875 43.60546875 63.673828125 43.60546875 c 4
 53.0146484375 43.60546875 42.4091796875 41.2265625 32.505859375 36.009765625 c 4
 25.544921875 32.34375 20.5 22.6767578125 20.5 10.927734375 c 6
 20.5 -21.58984375 l 6
 20.5 -35.748046875 31.7099609375 -38.5869140625 41.2119140625 -39.7890625 c 4
 49.09765625 -40.787109375 56.5341796875 -41.3154296875 64.0595703125 -41.3154296875 c 4
 71.5322265625 -41.3154296875 79.091796875 -40.7939453125 87.263671875 -39.69140625 c 4
 97.30859375 -38.3359375 107.5 -34.2294921875 107.5 -20.6982421875 c 6
128 -450 m 1
 125 -453 120 -455 114 -450 c 1
 114 -83.5 l 2
 114 -71.5439453125 106.554960541 -67.443156916 98.25 -65.7394128095 c 0
 87.2154062102 -63.4756905385 77.3455483744 -63 67 -63 c 0
 55.7117773846 -63 43.4280550051 -64.4932496463 30.5000023287 -67.1285794715 c 0
 21.0212651068 -69.0607806724 14 -72.4267578125 14 -85.25 c 2
 14 -191 l 1
 9 -193 4 -194 0 -191 c 1
 0 -76 l 1
 0 -48 l 1
 0 59 l 1
 26 73 48 75 70 75 c 0
 92 75 105 72 128 62 c 1
 128 -450 l 1
EndSplineSet
Validated: 1
EndChar

StartChar: Oslash
Encoding: 175 216 139
AltUni2: 00f0af.ffffffff.0
Width: 128
Flags: MW
HStem: -172 21 -25 51 241 30
VStem: -1792 161 -1454 59 -1102 59 -750 59 -398 59
LayerCount: 2
Fore
SplineSet
107.5 -20.6982421875 m 6
 107.5 13.1904296875 l 6
 107.5 24.0947265625 104.557617188 32.650390625 97.58203125 35.8564453125 c 4
 86.7607421875 40.830078125 75.185546875 43.60546875 63.673828125 43.60546875 c 4
 53.0146484375 43.60546875 42.4091796875 41.2265625 32.505859375 36.009765625 c 4
 25.544921875 32.34375 20.5 22.6767578125 20.5 10.927734375 c 6
 20.5 -21.58984375 l 6
 20.5 -35.748046875 31.7099609375 -38.5869140625 41.2119140625 -39.7890625 c 4
 49.09765625 -40.787109375 56.5341796875 -41.3154296875 64.0595703125 -41.3154296875 c 4
 71.5322265625 -41.3154296875 79.091796875 -40.7939453125 87.263671875 -39.69140625 c 4
 97.30859375 -38.3359375 107.5 -34.2294921875 107.5 -20.6982421875 c 6
0 -75 m 1
 0 430 l 1
 1.67944947177 431.679449472 3.98568794981 433.04550444 6.74327202321 433.04550444 c 0
 8.91155940904 433.04550444 11.3588989435 432.200917547 14 430 c 1
 14 89.6669921875 l 2
 14 76.8452295986 16.6019417827 71.4089874256 23.5908401005 71.4089874256 c 0
 24.9021829859 71.4089874256 26.3679724942 71.6003750626 28 71.9702738771 c 0
 37.3614729802 74.092050468 46.5457995751 75 58 75 c 0
 71.6012623978 75 85.2025247955 74.4290298185 99.6666666667 70.6984510354 c 0
 101.492484238 70.227537769 103.140708212 69.9728640908 104.613141989 69.9728640908 c 0
 110.918247171 69.9728640908 114 74.6426523576 114 87 c 2
 114 175 l 1
 116.194335081 176.097167541 118.689614316 176.893390928 121.320744625 176.893390928 c 0
 123.485837704 176.893390928 125.742918852 176.354248689 128 175 c 1
 128 -76 l 1
 104 -68 81 -63 61 -63 c 0
 46 -63 18 -69 0 -75 c 1
EndSplineSet
Validated: 1
EndChar

StartChar: infinity
Encoding: 176 8734 140
AltUni2: 00f0b0.ffffffff.0
Width: 128
Flags: MW
HStem: -6 126 187 20G 264 52
VStem: 7 34 188 60
LayerCount: 2
Fore
SplineSet
107.5 -20.6982421875 m 6
 107.5 13.1904296875 l 6
 107.5 24.0947265625 104.557617188 32.650390625 97.58203125 35.8564453125 c 4
 86.7607421875 40.830078125 75.185546875 43.60546875 63.673828125 43.60546875 c 4
 53.0146484375 43.60546875 42.4091796875 41.2265625 32.505859375 36.009765625 c 4
 25.544921875 32.34375 20.5 22.6767578125 20.5 10.927734375 c 6
 20.5 -21.58984375 l 6
 20.5 -35.748046875 31.7099609375 -38.5869140625 41.2119140625 -39.7890625 c 4
 49.09765625 -40.787109375 56.5341796875 -41.3154296875 64.0595703125 -41.3154296875 c 4
 71.5322265625 -41.3154296875 79.091796875 -40.7939453125 87.263671875 -39.69140625 c 4
 97.30859375 -38.3359375 107.5 -34.2294921875 107.5 -20.6982421875 c 6
0 -450 m 1
 0 62 l 1
 23 72 36 75 58 75 c 0
 80 75 102 73 128 59 c 1
 128 -48 l 1
 128 -76 l 1
 128 -191 l 1
 126.194335081 -192.354248689 124.18489355 -192.893390928 122.063663477 -192.893390928 c 0
 119.485837704 -192.893390928 116.742918852 -192.097167541 114 -191 c 1
 114 -83 l 2
 114 -72.474609375 105.444001076 -68.755798015 97.7500023303 -67.17966772 c 0
 84.7302985487 -64.5125566064 72.3609637389 -63 61 -63 c 0
 50.5763843693 -63 40.6356654622 -63.4828967236 29.5 -65.7909647939 c 0
 19.3258432793 -67.8997427874 14 -72.1005859375 14 -86.25 c 2
 14 -450 l 1
 11.3588989435 -452.200917547 8.91155940904 -453.04550444 6.74327202321 -453.04550444 c 0
 3.98568794981 -453.04550444 1.67944947177 -451.679449472 0 -450 c 1
EndSplineSet
Validated: 1
EndChar

StartChar: plusminus
Encoding: 177 177 141
AltUni2: 00f0b1.ffffffff.0
Width: 128
Flags: MW
HStem: -130 19
LayerCount: 2
Fore
SplineSet
107.5 -20.6982421875 m 6
 107.5 13.1904296875 l 6
 107.5 24.0947265625 104.557617188 32.650390625 97.58203125 35.8564453125 c 4
 86.7607421875 40.830078125 75.185546875 43.60546875 63.673828125 43.60546875 c 4
 53.0146484375 43.60546875 42.4091796875 41.2265625 32.505859375 36.009765625 c 4
 25.544921875 32.34375 20.5 22.6767578125 20.5 10.927734375 c 6
 20.5 -21.58984375 l 6
 20.5 -35.748046875 31.7099609375 -38.5869140625 41.2119140625 -39.7890625 c 4
 49.09765625 -40.787109375 56.5341796875 -41.3154296875 64.0595703125 -41.3154296875 c 4
 71.5322265625 -41.3154296875 79.091796875 -40.7939453125 87.263671875 -39.69140625 c 4
 97.30859375 -38.3359375 107.5 -34.2294921875 107.5 -20.6982421875 c 6
128 -75 m 1
 110 -69 82 -63 67 -63 c 0
 47 -63 24 -68 0 -76 c 1
 0 425 l 1
 2.25708114823 426.354248689 4.51416229645 426.893390928 6.67925537462 426.893390928 c 0
 9.31038568406 426.893390928 11.8056649186 426.097167541 14 425 c 1
 14 83.3330078125 l 2
 14 72.2934917237 15.9624855889 69.2625042354 20.4602552365 69.2625042354 c 0
 22.7410907725 69.2625042354 25.6738851036 70.0419352203 29.3333333333 70.951706859 c 0
 43.425228475 74.4550783321 56.7126142375 75 70 75 c 0
 79.1424323776 75 86.8387735826 74.4215635309 94.3333333333 73.109151878 c 0
 98.7437637391 72.3368182852 102.613252584 71.3362360755 105.726817772 71.3362360755 c 0
 110.911407893 71.3362360755 114 74.1106145542 114 85.3330078125 c 2
 114 430 l 1
 116.641101056 432.200917547 119.088440591 433.04550444 121.256727977 433.04550444 c 0
 124.01431205 433.04550444 126.320550528 431.679449472 128 430 c 1
 128 -75 l 1
EndSplineSet
Validated: 1
EndChar

StartChar: stringsUpBow
Encoding: 178 8804 142
AltUni2: 00f0b2.ffffffff.0
Width: 128
Flags: MW
HStem: -14 21G 435 20G
LayerCount: 2
Fore
SplineSet
107.5 -20.6982421875 m 6
 107.5 13.1904296875 l 6
 107.5 24.0947265625 104.557617188 32.650390625 97.58203125 35.8564453125 c 4
 86.7607421875 40.830078125 75.185546875 43.60546875 63.673828125 43.60546875 c 4
 53.0146484375 43.60546875 42.4091796875 41.2265625 32.505859375 36.009765625 c 4
 25.544921875 32.34375 20.5 22.6767578125 20.5 10.927734375 c 6
 20.5 -21.58984375 l 6
 20.5 -35.748046875 31.7099609375 -38.5869140625 41.2119140625 -39.7890625 c 4
 49.09765625 -40.787109375 56.5341796875 -41.3154296875 64.0595703125 -41.3154296875 c 4
 71.5322265625 -41.3154296875 79.091796875 -40.7939453125 87.263671875 -39.69140625 c 4
 97.30859375 -38.3359375 107.5 -34.2294921875 107.5 -20.6982421875 c 6
128 -450 m 1
 126.320550528 -451.679449472 124.01431205 -453.04550444 121.256727977 -453.04550444 c 0
 119.088440591 -453.04550444 116.641101056 -452.200917547 114 -450 c 1
 114 -86.6669921875 l 2
 114 -72.6181640625 109.693525417 -68.187167723 99.3333333333 -65.9666324473 c 0
 87.8586398872 -63.5072222965 77.6829310919 -63 67 -63 c 0
 54.0261760475 -63 39.7373512517 -64.972501265 24.6666690325 -68.3843603751 c 0
 14.9715908968 -70.5792338506 14 -75.61328125 14 -88 c 2
 14 -449 l 1
 11.2570811482 -450.097167541 8.51416229645 -450.893390928 5.93633652285 -450.893390928 c 0
 3.81510644955 -450.893390928 1.80566491858 -450.354248689 0 -449 c 1
 0 -76 l 1
 0 -48 l 1
 0 59 l 1
 26 73 48 75 70 75 c 0
 92 75 105 72 128 62 c 1
 128 -450 l 1
EndSplineSet
Validated: 1
EndChar

StartChar: stringsDownBow
Encoding: 179 8805 143
AltUni2: 00f0b3.ffffffff.0
Width: 257
Flags: MW
HStem: 204 176
VStem: 0 21<-74 59 59 59> 317 21
LayerCount: 2
Fore
SplineSet
257 -450 m 1
 255.320550528 -451.679449472 253.01431205 -453.04550444 250.256727977 -453.04550444 c 0
 248.088440591 -453.04550444 245.641101056 -452.200917547 243 -450 c 1
 243 -89.5498046875 l 2
 243 -74.0244140625 241.919501247 -69.9577665501 228 -71.1947980184 c 0
 191.925577515 -74.4007459199 162.186908104 -79.25 134 -79.25 c 0
 106 -79.25 33 -75 0 -74 c 1
 0 59 l 1
 56 59 101 55 133 55 c 0
 166 55 206 59 257 62 c 1
 257 -450 l 1
232.719726562 -33.3505859375 m 6
 232.719726562 9.1640625 l 2
 232.719726562 16.724609375 229.651367188 28.90234375 215.333007812 28.4921875 c 0
 191.188476562 27.8017578125 164.3203125 24.9912109375 132.01953125 24.9912109375 c 0
 100.380859375 24.9912109375 62.0927734375 27.216796875 31.609375 28.337890625 c 0
 31.2919921875 28.3505859375 30.9814453125 28.3564453125 30.6767578125 28.3564453125 c 0
 21.7021484375 28.3564453125 18.26953125 23.30078125 18.26953125 14.330078125 c 2
 18.26953125 -24.7060546875 l 6
 18.26953125 -34.7451171875 27.0205078125 -42.1494140625 38.6669921875 -43.107421875 c 4
 67.08203125 -45.4462890625 94.6357421875 -46.591796875 131.369140625 -46.591796875 c 4
 158.701171875 -46.591796875 191.763671875 -44.8310546875 218.219726562 -42.23046875 c 4
 228.536132812 -41.2158203125 232.719726562 -43.322265625 232.719726562 -33.3505859375 c 6
EndSplineSet
Validated: 1
EndChar

StartChar: yen
Encoding: 180 165 144
AltUni2: 00f0b4.ffffffff.0
Width: 257
Flags: MW
HStem: 103 20G
LayerCount: 2
Fore
SplineSet
257 -73 m 1
 213 -74 175 -77 134 -77 c 0
 106 -77 34 -75 0 -74 c 1
 0 59 l 1
 54 56.75 100 56.5 133 57 c 0
 159.252929688 57.3974609375 189.610119828 58 230 62.4528035362 c 0
 241.933434431 63.7684112777 243.06126991 72.6589573234 243.06126991 84.5256263928 c 0
 243.06126991 87.2914824555 243 90.2190170541 243 93.25 c 2
 243 430 l 1
 244.732050808 430.577350269 247.130768282 431.154700538 250.003702333 431.154700538 c 0
 252.106836025 431.154700538 254.464101615 430.845299462 257 430 c 1
 257 350 257 -58 257 -73 c 1
233.049804688 -32.92578125 m 6
 233.049804688 12.974609375 l 2
 233.049804688 25.7314453125 221.193359375 35.3388671875 210.416992188 34.333984375 c 0
 178.30078125 31.3212890625 141.8359375 30.3388671875 101.265625 30.3388671875 c 0
 82.2763671875 30.3388671875 58.0576171875 30.935546875 39.2626953125 31.6474609375 c 0
 38.9345703125 31.6591796875 38.6103515625 31.666015625 38.2890625 31.666015625 c 0
 29.216796875 31.666015625 22.9501953125 26.6943359375 22.9501953125 15.83203125 c 2
 22.9501953125 -32.0029296875 l 6
 22.9501953125 -44.9775390625 39.4853515625 -50.921875 51 -51.75 c 4
 70.650390625 -53.162109375 89.560546875 -53.02734375 113.133789062 -53.02734375 c 4
 148.06640625 -53.02734375 189.174804688 -51.6025390625 217.172851562 -49.1240234375 c 4
 228.75390625 -48.0986328125 233.049804688 -46.0888671875 233.049804688 -32.92578125 c 6
EndSplineSet
Validated: 33
EndChar

StartChar: partialdiff
Encoding: 182 8706 145
AltUni2: 00f0b6.ffffffff.0
Width: 432
Flags: MW
HStem: -185 21<10 10> -30 27 228 30 405 24
VStem: 40 62 175 59 618 25 785 59 1137 59
LayerCount: 2
Fore
SplineSet
432 -75 m 1
 376 -99 252 -139 178 -159 c 0
 110 -177 64 -186 0 -200 c 1
 0 -59 l 1
 74 -43 107 -40 168 -23 c 0
 241 -3 315 14 432 66 c 1
 432 -75 l 1
401 -49.2666015625 m 2
 401 10.763671875 l 2
 401 24.6044921875 398.693359375 29.6982421875 392.921875 29.6982421875 c 0
 390.66015625 29.6982421875 387.866210938 28.916015625 384.469726562 27.5712890625 c 0
 297.23828125 -6.97265625 234.153143688 -24.0838921602 177.78515625 -38.662109375 c 0
 131.876953125 -50.53515625 98.408203125 -62.548828125 47.2314453125 -73.2470703125 c 0
 37.4375 -75.2939453125 31.28125 -81.822265625 31.28125 -94.986328125 c 2
 31.28125 -150.956054688 l 2
 31.28125 -163.75 42.2177734375 -169.399414062 50.291015625 -169.399414062 c 0
 51.47265625 -169.399414062 52.8125 -169.245117188 54.333984375 -168.932617188 c 0
 94.8037109375 -160.616210938 135.509548735 -147.758843285 182.134765625 -136.102539062 c 0
 220.599609375 -126.486328125 301.681640625 -102.388671875 374 -75.931640625 c 0
 385.424804688 -71.7529296875 401 -65.697265625 401 -49.2666015625 c 2
EndSplineSet
Validated: 1
EndChar

StartChar: summation
Encoding: 183 8721 146
AltUni2: 00f0b7.ffffffff.0
Width: 528
Flags: MW
HStem: 127 123
VStem: 1 296
LayerCount: 2
Fore
SplineSet
528 -75 m 1
 466 -117 305 -197 213 -240 c 0
 125 -281 79 -293 0 -326 c 1
 0 -185 l 1
 91 -150 132 -138 207 -104 c 1
 296 -62 385 -20 528 66 c 1
 528 -75 l 1
214.41015625 -214.926757812 m 5
 283.666992188 -183.021484375 409.212890625 -124.046875 473.666992188 -86.0830078125 c 4
 486.44140625 -78.55859375 499.5 -71.6005859375 499.5 -51.9501953125 c 6
 499.5 -10.6201171875 l 6
 499.5 2.4600998084 490.360905412 6.8667678841 479.778398914 6.8667678841 c 0
 470.834752739 6.8667678841 460.860145139 3.71929156959 454.5 -0 c 4
 351.209960938 -60.40625 288.91015625 -86.6240234375 219.629882812 -119.2265625 c 5
 161.552734375 -145.48046875 116.309570312 -166.030273438 53.6103515625 -189.669921875 c 4
 43.27734375 -193.565429688 31.8408203125 -198.208984375 31.8408203125 -213.994140625 c 6
 31.8408203125 -260.958984375 l 6
 31.8408203125 -274.951184004 41.4954897041 -282.223650735 54.9441735864 -282.223650735 c 0
 61.0330464005 -282.223650735 67.8996212211 -280.732931081 75 -277.700195312 c 4
 125.195316792 -256.260616189 151.169921875 -244.965820312 214.41015625 -214.926757812 c 5
EndSplineSet
Validated: 1
EndChar

StartChar: product
Encoding: 184 8719 147
AltUni2: 00f0b8.ffffffff.0
Width: 179
VWidth: 1120
Flags: MW
HStem: -191.52 23.52 -26.88 57.12 271.04 33.6
VStem: -1756.16 180.32 -1377.6 66.08 -983.36 66.08 -589.12 66.08
LayerCount: 2
Fore
SplineSet
156.799804688 -3.3603515625 m 1
 138.879882812 -26.8798828125 101.419921875 -79.6396484375 82.8798828125 -109.759765625 c 1
 56.9580078125 -70.1484375 35.83984375 -41.4404296875 0 0 c 1
 24.6396484375 29.1201171875 59.3603515625 80.6396484375 71.6796875 105.280273438 c 1
 105.280273438 54.8798828125 122.080078125 33.599609375 156.799804688 -3.3603515625 c 1
120.803710938 -0.6435546875 m 4
 104.311523438 18.61328125 94.0244140625 28.484375 76.5791015625 54.4208984375 c 4
 73.7509765625 58.6259765625 72.017578125 61.0009765625 70.2841796875 61.0009765625 c 4
 68.8271484375 61.0009765625 67.3701171875 59.3232421875 65.263671875 55.6455078125 c 4
 54.421875 36.7138671875 42.9951171875 24.5869140625 34.2255859375 12.763671875 c 4
 31.9228515625 9.6591796875 30.99609375 7.759765625 30.99609375 6.2548828125 c 4
 30.99609375 4.029296875 33.0234375 2.669921875 35.625 -0.4384765625 c 4
 54.5732421875 -23.083984375 66.6455078125 -40.0458984375 80.08984375 -60.1171875 c 4
 83.12109375 -64.642578125 84.4501953125 -67.33984375 86.02734375 -67.33984375 c 4
 87.2939453125 -67.33984375 89.5595703125 -64.486328125 91.31640625 -61.6796875 c 4
 94.8759765625 -55.994140625 99.0322265625 -49.169921875 106.5 -38.75 c 4
 112.090820312 -30.9482421875 117.528320312 -23.322265625 122.858398438 -15.9287109375 c 4
 124.436523438 -13.7392578125 125.276367188 -11.3779296875 125.276367188 -9.4453125 c 4
 125.276367188 -6.4423828125 123.5078125 -3.80078125 120.803710938 -0.6435546875 c 4
EndSplineSet
Validated: 1
EndChar

StartChar: pi
Encoding: 185 960 148
AltUni2: 00f0b9.ffffffff.0
Width: 160
Flags: MW
HStem: 638 21G 785 51 1051 30
VStem: -369 161 -31 59 321 59
LayerCount: 2
Fore
SplineSet
65 429 m 1
 67.3245553203 429.774851773 69.0487153699 430.249505911 70.6376974889 430.249505911 c 0
 73.1500988177 430.249505911 75.3245553203 429.062870566 79 426 c 1
 79 80 l 1
 99 47 115 24 140 -3 c 1
 125 -23 92 -70 74 -98 c 1
 51 -67 31 -38 0 0 c 1
 19 22 51 59 65 83 c 1
 65 429 l 1
108.001953125 -2.044921875 m 4
 94.5283203125 13.732421875 88.5498046875 23.5361328125 74.1005859375 46.46875 c 4
 71.2578125 50.98046875 69.6884765625 53.484375 67.9794921875 53.484375 c 4
 66.580078125 53.484375 65.0869140625 51.8056640625 62.7236328125 48.1748046875 c 4
 52.6025390625 32.625 41.5380859375 22.7763671875 32.3828125 11.7451171875 c 4
 29.3505859375 8.08984375 27.9658203125 6.06640625 27.9658203125 4.203125 c 4
 27.9658203125 2.408203125 29.2509765625 0.76171875 31.5859375 -2.05078125 c 4
 48.5234375 -22.4501953125 57.740234375 -36.00390625 69.87109375 -53.6650390625 c 4
 72.2568359375 -57.1396484375 74.0849609375 -58.8466796875 75.896484375 -58.8466796875 c 4
 77.783203125 -58.8466796875 79.65234375 -56.9931640625 82.115234375 -53.3544921875 c 6
 106.651367188 -18.787109375 l 6
 109.389648438 -14.701171875 111.19140625 -11.8203125 111.19140625 -8.9111328125 c 4
 111.19140625 -6.7958984375 110.239257812 -4.6650390625 108.001953125 -2.044921875 c 4
EndSplineSet
Validated: 1
EndChar

StartChar: accidentalDoubleFlat
Encoding: 186 8747 149
AltUni2: 00f0ba.ffffffff.0
Width: 160
Flags: MW
HStem: 95 31
VStem: 4 28 186 30 335 69
LayerCount: 2
Fore
SplineSet
109.751953125 3.455078125 m 4
 96.2783203125 19.232421875 90.2998046875 29.0361328125 75.8505859375 51.96875 c 4
 73.0078125 56.48046875 71.4384765625 58.984375 69.7294921875 58.984375 c 4
 68.330078125 58.984375 66.8369140625 57.3056640625 64.4736328125 53.6748046875 c 4
 54.3525390625 38.125 43.2880859375 28.2763671875 34.1328125 17.2451171875 c 4
 31.1005859375 13.58984375 29.7158203125 11.56640625 29.7158203125 9.703125 c 4
 29.7158203125 7.908203125 31.0009765625 6.26171875 33.3359375 3.44921875 c 4
 50.2734375 -16.9501953125 59.490234375 -30.50390625 71.62109375 -48.1650390625 c 4
 74.0068359375 -51.6396484375 75.8349609375 -53.3466796875 77.646484375 -53.3466796875 c 4
 79.533203125 -53.3466796875 81.40234375 -51.4931640625 83.865234375 -47.8544921875 c 6
 108.401367188 -13.287109375 l 6
 111.139648438 -9.201171875 112.94140625 -6.3203125 112.94140625 -3.4111328125 c 4
 112.94140625 -1.2958984375 111.989257812 0.8349609375 109.751953125 3.455078125 c 4
140 0 m 1
 117 -28 101 -47 79 -80 c 1
 79 -426 l 1
 73 -431 71 -431 65 -429 c 1
 65 -83 l 1
 49 -54 0 0 0 0 c 1
 32 37 50 63 74 98 c 1
 90 73 123 24 140 0 c 1
EndSplineSet
Validated: 1
EndChar

StartChar: ordfeminine
Encoding: 187 170 150
AltUni2: 00f0bb.ffffffff.0
Width: 160
Flags: MW
HStem: 0 10 31 83 142 17 312 13
VStem: 36 63 197 75
LayerCount: 2
Fore
SplineSet
79 430 m 1
 79 92 l 1
 140 0 l 1
 117 -28 100 -50 79 -80 c 1
 79 -426 l 1
 75.3245553203 -429.062870566 73.1500988177 -430.249505911 70.6376974889 -430.249505911 c 0
 69.0487153699 -430.249505911 67.3245553203 -429.774851773 65 -429 c 1
 65 -83 l 1
 48.1787818915 -52.5020139448 27.8894922346 -27.0018720398 0 0 c 1
 28 32 44 60 65 87 c 1
 65 427 l 1
 67.7579868668 430.861181614 70.5159737336 432.288285929 73.1061317699 432.288285929 c 0
 75.2117140713 432.288285929 77.2063894935 431.34520788 79 430 c 1
112.045898438 14.23046875 m 4
 99.0390625 33.119140625 96.39453125 33.0986328125 80.953125 57.1923828125 c 4
 79.3916015625 59.62890625 77.8701171875 60.66015625 76.3740234375 60.66015625 c 4
 74.2119140625 60.66015625 72.1025390625 58.5048828125 70.001953125 55.33203125 c 4
 58.41015625 37.822265625 41.228515625 14.7421875 31.40625 3.572265625 c 4
 29.1162109375 0.9677734375 28.396484375 -1.072265625 28.396484375 -2.64453125 c 4
 28.396484375 -5.6181640625 31.3798828125 -7.4306640625 34.73828125 -10.8427734375 c 4
 52.021484375 -28.4052734375 53.84765625 -33.8896484375 63.8876953125 -47.8291015625 c 4
 66.39453125 -51.3095703125 67.58203125 -53.34375 69.0546875 -53.34375 c 4
 70.3173828125 -53.34375 71.7216796875 -51.8984375 74.1044921875 -48.759765625 c 4
 86.8349609375 -31.9892578125 98.265625 -19.4169921875 108.725585938 -6.9267578125 c 4
 112.875 -1.97265625 115.333007812 1.6845703125 115.333007812 5.6669921875 c 4
 115.333007812 8.240234375 114.306244345 10.947969272 112.045898438 14.23046875 c 4
EndSplineSet
Validated: 1
EndChar

StartChar: ordmasculine
Encoding: 188 186 151
AltUni2: 00f0bc.ffffffff.0
Width: 165
Flags: MW
HStem: -5 17 295 17
VStem: -4 63 197 63
LayerCount: 2
Fore
SplineSet
302 232 m 1
 178 49 141 -2 74 -98 c 1
 48 -67 32 -37 0 0 c 1
 0 0 49 63 64 94 c 1
 85.8966877884 60.7170345616 102.423368292 38.9412275898 121.643038513 17.25 c 0
 124.412357857 14.124559476 126.801780343 12.7897563086 129.026162084 12.7897563086 c 0
 133.440968539 12.7897563086 137.205651482 18.0477725536 142 25 c 2
 290 240 l 1
 292.75 240.25 294.6875 240.4375 296.09375 240.4375 c 0
 300.3125 240.4375 299.75 238.75 302 232 c 1
107.745117188 7.7548828125 m 4
 91.7783203125 25.5302734375 91.7158203125 25.646484375 79.75 42.4169921875 c 4
 76.1487151357 47.4643161076 72.1798939925 49.2968527013 68.6338115454 49.2968527013 c 4
 64.5333046387 49.2968527013 60.9980592773 46.8464915771 59.25 44.0830078125 c 4
 49.119140625 28.0693359375 40.0828090651 14.7166751699 31.7900390625 3.9677734375 c 4
 29.714570486 1.2775978061 28.8670310478 -1.27851047209 28.8670310478 -3.73335074599 c 4
 28.8670310478 -8.20295572427 31.6766778006 -12.3368508741 35 -16.3330078125 c 4
 44.3325206341 -27.5549763269 49.0613207798 -34.5665588241 62.2490234375 -52.0830078125 c 4
 64.6691198194 -55.2974793487 67.3739520856 -56.9796424229 70.0350431103 -56.9796424229 c 4
 72.5754837383 -56.9796424229 75.0760595521 -55.4465556587 77.2509765625 -52.25 c 6
 107.633789062 -7.58984375 l 6
 109.6640625 -4.6064453125 110.75 -1.85546875 110.75 0.75 c 4
 110.75 3.1650390625 109.80078125 5.466796875 107.745117188 7.7548828125 c 4
EndSplineSet
Validated: 1
EndChar

StartChar: tremolo3Legacy
Encoding: 190 230 152
AltUni2: 00f0be.ffffffff.0
Width: 160
Flags: MW
HStem: -1 21G 613 20G
LayerCount: 2
Fore
SplineSet
108.001953125 -2.044921875 m 4
 94.5283203125 13.732421875 88.5498046875 23.5361328125 74.1005859375 46.46875 c 4
 71.2578125 50.98046875 69.6884765625 53.484375 67.9794921875 53.484375 c 4
 66.580078125 53.484375 65.0869140625 51.8056640625 62.7236328125 48.1748046875 c 4
 52.6025390625 32.625 41.5380859375 22.7763671875 32.3828125 11.7451171875 c 4
 29.3505859375 8.08984375 27.9658203125 6.06640625 27.9658203125 4.203125 c 4
 27.9658203125 2.408203125 29.2509765625 0.76171875 31.5859375 -2.05078125 c 4
 48.5234375 -22.4501953125 57.740234375 -36.00390625 69.87109375 -53.6650390625 c 4
 72.2568359375 -57.1396484375 74.0849609375 -58.8466796875 75.896484375 -58.8466796875 c 4
 77.783203125 -58.8466796875 79.65234375 -56.9931640625 82.115234375 -53.3544921875 c 6
 106.651367188 -18.787109375 l 6
 109.389648438 -14.701171875 111.19140625 -11.8203125 111.19140625 -8.9111328125 c 4
 111.19140625 -6.7958984375 110.239257812 -4.6650390625 108.001953125 -2.044921875 c 4
140 -3 m 1
 74 -98 l 1
 48 -67 32 -37 0 0 c 1
 0 0 49 54 65 83 c 1
 65 335 l 1
 54.2522729151 332.133939444 43.5045458303 329.781272832 34.963945946 329.781272832 c 0
 31.5849094967 329.781272832 28.5513637491 330.149545417 26 331 c 0
 16 334 11 343 11 353 c 0
 11 369 15 373 23 383 c 0
 30 392 64 429 79 433 c 1
 79 342 l 1
 92 345 103 348 103 348 c 1
 103 348 93 344 79 339 c 1
 79 80 l 1
 100 50 116 24 140 -3 c 1
65 339 m 1
 65 382 l 2
 65 382.627701913 65.0004519647 383.240462488 65.0004519647 383.837776783 c 0
 65.0004519647 393.059772173 64.8927190218 398.599902253 61.3506536811 398.599902253 c 0
 59.538352083 398.599902253 56.8269874605 397.149569109 52.7709833657 394.000000292 c 0
 40.4293359649 384.416462679 22.9213467226 369.24718252 21 359 c 0
 20.7101020514 356.97071436 20.5042449235 354.94142872 20.5042449235 352.985232865 c 0
 20.5042449235 348.193551182 21.7393876913 343.840408206 26 341 c 0
 29.9445582883 338.182458366 36.7469912869 336.952624903 44.7968627993 336.952624903 c 0
 51.0322664607 336.952624903 58.0161332303 337.690524981 65 339 c 1
EndSplineSet
Validated: 1
EndChar

StartChar: oslash
Encoding: 191 248 153
AltUni2: 00f0bf.ffffffff.0
Width: 160
Flags: MW
HStem: -108 23 85 23
VStem: 32 23 226 23
LayerCount: 2
Fore
SplineSet
108.001953125 -2.044921875 m 4
 94.5283203125 13.732421875 88.5498046875 23.5361328125 74.1005859375 46.46875 c 4
 71.2578125 50.98046875 69.6884765625 53.484375 67.9794921875 53.484375 c 4
 66.580078125 53.484375 65.0869140625 51.8056640625 62.7236328125 48.1748046875 c 4
 52.6025390625 32.625 43.0380859375 20.2763671875 33.8828125 9.2451171875 c 4
 30.8505859375 5.58984375 29.4658203125 3.56640625 29.4658203125 1.703125 c 4
 29.4658203125 -0.091796875 30.7509765625 -1.73828125 33.0859375 -4.55078125 c 4
 50.0234375 -24.9501953125 57.740234375 -36.00390625 69.87109375 -53.6650390625 c 4
 72.2568359375 -57.1396484375 74.0849609375 -58.8466796875 75.896484375 -58.8466796875 c 4
 77.783203125 -58.8466796875 79.65234375 -56.9931640625 82.115234375 -53.3544921875 c 6
 106.651367188 -18.787109375 l 6
 109.389648438 -14.701171875 111.19140625 -11.8203125 111.19140625 -8.9111328125 c 4
 111.19140625 -6.7958984375 110.239257812 -4.6650390625 108.001953125 -2.044921875 c 4
140 0 m 1
 108 -37 92 -64 65 -98 c 1
 0 -3 l 1
 25 24 40 50 61 80 c 1
 61 339 l 1
 47 344 37 348 37 348 c 1
 37 348 47 345 61 342 c 1
 61 434 l 1
 80 426 106 398 117 383 c 0
 125 373 129 369 129 353 c 0
 129 343 124 334 114 331 c 0
 105 328 90 331 75 335 c 1
 75 83 l 1
 87 61 115 25 140 0 c 1
119 359 m 0
 117.157031872 368.829163351 100.973152873 383.187035398 88.763779596 392.799987486 c 0
 74.4749802757 404.050158986 75 397.693359375 75 379.799804688 c 2
 75 339 l 1
 91 336 107 336 114 341 c 0
 120 345 120 352 119 359 c 0
EndSplineSet
Validated: 33
EndChar

StartChar: questiondown
Encoding: 192 191 154
AltUni2: 00f0c0.ffffffff.0
Width: 160
Flags: MW
VStem: 5 259
LayerCount: 2
Fore
SplineSet
108.751953125 -0.544921875 m 4
 95.2783203125 15.232421875 89.2998046875 25.0361328125 74.8505859375 47.96875 c 4
 72.0078125 52.48046875 70.4384765625 54.984375 68.7294921875 54.984375 c 4
 67.330078125 54.984375 65.8369140625 53.3056640625 63.4736328125 49.6748046875 c 4
 53.3525390625 34.125 43.7880859375 21.7763671875 34.6328125 10.7451171875 c 4
 31.6005859375 7.08984375 30.2158203125 5.06640625 30.2158203125 3.203125 c 4
 30.2158203125 1.408203125 31.5009765625 -0.23828125 33.8359375 -3.05078125 c 4
 50.7734375 -23.4501953125 58.490234375 -34.50390625 70.62109375 -52.1650390625 c 4
 73.0068359375 -55.6396484375 74.8349609375 -57.3466796875 76.646484375 -57.3466796875 c 4
 78.533203125 -57.3466796875 80.40234375 -55.4931640625 82.865234375 -51.8544921875 c 6
 107.401367188 -17.287109375 l 6
 110.139648438 -13.201171875 111.94140625 -10.3203125 111.94140625 -7.4111328125 c 4
 111.94140625 -5.2958984375 110.989257812 -3.1650390625 108.751953125 -0.544921875 c 4
140 0 m 1
 115 -28 97 -55 79 -80 c 1
 79 -339 l 1
 93 -344 103 -348 103 -348 c 1
 103 -348 92 -345 79 -342 c 1
 79 -433 l 1
 64 -429 30 -392 23 -383 c 0
 15 -373 11 -369 11 -353 c 0
 11 -343 16 -334 26 -331 c 0
 28.5513637491 -330.149545417 31.5849094967 -329.781272832 34.963945946 -329.781272832 c 0
 43.5045458303 -329.781272832 54.2522729151 -332.133939444 65 -335 c 1
 65 -83 l 1
 49 -54 0 0 0 0 c 1
 32 37 50 65 74 98 c 1
 140 0 l 1
65 -373.666992188 m 2
 65 -339 l 1
 58.0161332303 -337.690524981 51.0322664607 -336.952624903 44.7968627993 -336.952624903 c 0
 36.7469912869 -336.952624903 29.9445582883 -338.182458366 26 -341 c 0
 21.7393876913 -343.840408206 20.5042449235 -348.193551182 20.5042449235 -352.985232865 c 0
 20.5042449235 -354.94142872 20.7101020514 -356.97071436 21 -359 c 0
 22.7718625136 -368.449933406 37.7993780436 -382.085862501 49.8063327377 -391.666666348 c 0
 54.3663948672 -395.305312608 57.5584196047 -396.942450375 59.7926596074 -396.942450375 c 0
 64.8597488381 -396.942450375 65.000486877 -388.521857209 65.000486877 -375.93106951 c 0
 65.000486877 -375.190515389 65 -374.435534665 65 -373.666992188 c 2
EndSplineSet
Validated: 1
EndChar

StartChar: exclamdown
Encoding: 193 161 155
AltUni2: 00f0c1.ffffffff.0
Width: 160
Flags: MW
HStem: 0 315
LayerCount: 2
Fore
SplineSet
109.251953125 -0.544921875 m 4
 95.7783203125 15.232421875 88.0498046875 25.0361328125 73.6005859375 47.96875 c 4
 70.7578125 52.48046875 69.1884765625 54.984375 67.4794921875 54.984375 c 4
 66.080078125 54.984375 64.5869140625 53.3056640625 62.2236328125 49.6748046875 c 4
 52.1025390625 34.125 42.5380859375 21.7763671875 33.3828125 10.7451171875 c 4
 30.3505859375 7.08984375 28.9658203125 5.06640625 28.9658203125 3.203125 c 4
 28.9658203125 1.408203125 30.2509765625 -0.23828125 32.5859375 -3.05078125 c 4
 49.5234375 -23.4501953125 57.240234375 -34.50390625 69.37109375 -52.1650390625 c 4
 71.7568359375 -55.6396484375 73.5849609375 -57.3466796875 75.396484375 -57.3466796875 c 4
 77.283203125 -57.3466796875 79.15234375 -55.4931640625 81.615234375 -51.8544921875 c 6
 107.901367188 -17.287109375 l 6
 110.639648438 -13.201171875 112.44140625 -10.3203125 112.44140625 -7.4111328125 c 4
 112.44140625 -5.2958984375 111.489257812 -3.1650390625 109.251953125 -0.544921875 c 4
65 -340 m 1
 49 -337 33 -337 26 -342 c 0
 20 -346 20 -353 21 -360 c 0
 24 -376 65 -404 65 -404 c 1
 65 -340 l 1
23 -384 m 0
 15 -374 11 -370 11 -354 c 0
 11 -344 16 -335 26 -332 c 0
 35 -329 50 -332 65 -336 c 1
 65 -83 l 1
 49 -54 0 0 0 0 c 1
 26 29 46 57 65 87 c 1
 65 427 l 1
 70 434 75 433 79 430 c 1
 79 89 l 1
 94 65 124 21 140 0 c 1
 115 -31 99 -50 79 -80 c 1
 79 -340 l 1
 93 -345 103 -349 103 -349 c 1
 103 -349 92 -346 79 -343 c 1
 79 -435 l 1
 67 -433 28 -391 23 -384 c 0
EndSplineSet
Validated: 33
EndChar

StartChar: logicalnot
Encoding: 194 172 156
AltUni2: 00f0c2.ffffffff.0
Width: 160
Flags: MW
HStem: -120 19 101 19
VStem: -3 19 302 19
LayerCount: 2
Fore
SplineSet
108.001953125 4.455078125 m 4
 94.5283203125 20.232421875 86.7998046875 30.0361328125 72.3505859375 52.96875 c 4
 69.5078125 57.48046875 67.9384765625 59.984375 66.2294921875 59.984375 c 4
 64.830078125 59.984375 63.3369140625 58.3056640625 60.9736328125 54.6748046875 c 4
 50.8525390625 39.125 41.2880859375 26.7763671875 32.1328125 15.7451171875 c 4
 29.1005859375 12.08984375 27.7158203125 10.06640625 27.7158203125 8.203125 c 4
 27.7158203125 6.408203125 29.0009765625 4.76171875 31.3359375 1.94921875 c 4
 48.2734375 -18.4501953125 55.990234375 -29.50390625 68.12109375 -47.1650390625 c 4
 70.5068359375 -50.6396484375 72.3349609375 -52.3466796875 74.146484375 -52.3466796875 c 4
 76.033203125 -52.3466796875 77.90234375 -50.4931640625 80.365234375 -46.8544921875 c 6
 106.651367188 -12.287109375 l 6
 109.389648438 -8.201171875 111.19140625 -5.3203125 111.19140625 -2.4111328125 c 4
 111.19140625 -0.2958984375 110.239257812 1.8349609375 108.001953125 4.455078125 c 4
75 -340 m 1
 75 -381.333007812 l 2
 75 -398.067382812 74.1180803252 -405.220482611 87.6574645356 -394.666666963 c 0
 99.9718826134 -385.06770026 117.100781815 -370.129163654 119 -360 c 0
 119.289897949 -357.97071436 119.495755077 -355.94142872 119.495755077 -353.985232865 c 0
 119.495755077 -349.193551182 118.260612309 -344.840408206 114 -342 c 0
 110.055441712 -339.182458366 103.253008713 -337.952624903 95.2031372007 -337.952624903 c 0
 88.9677335393 -337.952624903 81.9838667697 -338.690524981 75 -340 c 1
117 -384 m 0
 111 -391 73 -433 61 -435 c 1
 61 -343 l 1
 47 -346 37 -349 37 -349 c 1
 37 -349 47 -345 61 -340 c 1
 61 -80 l 1
 44.9124491413 -54.0662814577 25 -24 0 3 c 1
 20.620582282 30.4203695318 41.1110403779 58.858314891 61 92 c 1
 61 430 l 1
 62.7936105065 431.34520788 64.7882859287 432.288285929 66.8938682301 432.288285929 c 0
 69.4840262664 432.288285929 72.2420131332 430.861181614 75 427 c 1
 75 87 l 1
 96 60 112 32 140 0 c 1
 140 0 91 -54 75 -83 c 1
 75 -336 l 1
 85.7477270849 -333.133939444 96.4954541697 -330.781272832 105.036054054 -330.781272832 c 0
 108.415090503 -330.781272832 111.448636251 -331.149545417 114 -332 c 0
 124 -335 129 -344 129 -354 c 0
 129 -370 125 -374 117 -384 c 0
EndSplineSet
Validated: 1
EndChar

StartChar: radical
Encoding: 195 8730 157
AltUni2: 00f0c3.ffffffff.0
Width: 160
Flags: MW
HStem: -153 21G 86 194
LayerCount: 2
Fore
SplineSet
108.251953125 0.955078125 m 4
 94.7783203125 16.732421875 87.0498046875 26.5361328125 72.6005859375 49.46875 c 4
 69.7578125 53.98046875 68.1884765625 56.484375 66.4794921875 56.484375 c 4
 65.080078125 56.484375 63.5869140625 54.8056640625 61.2236328125 51.1748046875 c 4
 51.1025390625 35.625 42.7880859375 25.2763671875 33.6328125 14.2451171875 c 4
 30.6005859375 10.58984375 29.2158203125 8.56640625 29.2158203125 6.703125 c 4
 29.2158203125 4.908203125 30.5009765625 3.26171875 32.8359375 0.44921875 c 4
 49.7734375 -19.9501953125 56.490234375 -31.50390625 68.62109375 -49.1650390625 c 4
 71.0068359375 -52.6396484375 72.8349609375 -54.3466796875 74.646484375 -54.3466796875 c 4
 76.533203125 -54.3466796875 78.40234375 -52.4931640625 80.865234375 -48.8544921875 c 6
 106.901367188 -15.787109375 l 6
 109.639648438 -11.701171875 111.44140625 -8.8203125 111.44140625 -5.9111328125 c 4
 111.44140625 -3.7958984375 110.489257812 -1.6650390625 108.251953125 0.955078125 c 4
140 0 m 1
 140 0 91 -54 75 -83 c 1
 75 -336 l 1
 85.7477270849 -333.133939444 96.4954541697 -330.781272832 105.036054054 -330.781272832 c 0
 108.415090503 -330.781272832 111.448636251 -331.149545417 114 -332 c 0
 124 -335 129 -344 129 -354 c 0
 129 -370 125 -374 117 -384 c 0
 111 -391 73 -433 61 -435 c 1
 61 -343 l 1
 47 -346 37 -349 37 -349 c 1
 37 -349 47 -345 61 -340 c 1
 61 -80 l 1
 43.4659907023 -52.0054550171 25 -24 0 3 c 1
 18.0775546033 19.8492906128 61 83.8661430895 61 86 c 2
 61 340 l 1
 47 345 37 349 37 349 c 1
 37 349 48 346 61 343 c 1
 61 435 l 1
 73 433 112 391 117 384 c 0
 125 374 129 370 129 354 c 0
 129 344 124 335 114 332 c 0
 111.448636251 331.149545417 108.415090503 330.781272832 105.036054054 330.781272832 c 0
 96.4954541697 330.781272832 85.7477270849 333.133939444 75 336 c 1
 75 36 75 96 75 83 c 1
 97 56 117 27 140 0 c 1
119 366 m 0
 117.010379767 376.611307908 98.3067184807 392.500734044 85.933866543 401.999999722 c 0
 83.1914952672 404.105457176 81.1332484133 405.032524731 79.5892584255 405.032524731 c 0
 75.3399865336 405.032524731 74.9858287098 398.010676092 74.9858287098 389.205892265 c 0
 74.9858287098 387.444626175 75 385.612017621 75 383.75 c 2
 75 346 l 1
 81.9838667697 344.690524981 88.9677335393 343.952624903 95.2031372007 343.952624903 c 0
 103.253008713 343.952624903 110.055441712 345.182458366 114 348 c 0
 118.260612309 350.840408206 119.495755077 355.193551182 119.495755077 359.985232865 c 0
 119.495755077 361.94142872 119.289897949 363.97071436 119 366 c 0
119 -360 m 0
 119.289897949 -357.97071436 119.495755077 -355.94142872 119.495755077 -353.985232865 c 0
 119.495755077 -349.193551182 118.260612309 -344.840408206 114 -342 c 0
 110.055441712 -339.182458366 103.253008713 -337.952624903 95.2031372007 -337.952624903 c 0
 88.9677335393 -337.952624903 81.9838667697 -338.690524981 75 -340 c 1
 75 -404 l 1
 75 -404 116 -376 119 -360 c 0
EndSplineSet
Validated: 1
EndChar

StartChar: florin
Encoding: 196 402 158
AltUni2: 00f0c4.ffffffff.0
Width: 160
Flags: MW
HStem: 240 18 321 125
VStem: -785 93 -513 93 -295 25 -23 25
LayerCount: 2
Fore
SplineSet
108.251953125 0.955078125 m 4
 94.7783203125 16.732421875 86.069236515 29.190364386 76.9990234375 43 c 4
 73.6682351433 48.0712119172 70.389295066 50.1723902318 67.1077519712 50.1723902318 c 4
 63.0001814276 50.1723902318 58.8885324735 46.8802619666 54.666015625 42 c 4
 45.494140625 31.3994140625 39.0355291536 27.2784886639 29.8828125 16.2451171875 c 4
 26.8505859375 12.58984375 25.4658203125 10.56640625 25.4658203125 8.703125 c 4
 25.4658203125 6.908203125 26.7508348471 5.26160109066 29.0859375 2.44921875 c 4
 46.0234375 -17.9501953125 53.0122401885 -27.2928760993 66.0009765625 -44.3330078125 c 4
 68.4398842598 -47.5326499641 71.5747707113 -49.4841177828 74.9255342874 -49.4841177828 c 4
 78.0032437317 -49.4841177828 81.2630801566 -47.8377416693 84.3330078125 -44 c 6
 106.901367188 -15.787109375 l 6
 109.961711165 -11.9613483406 111.44140625 -8.8203125 111.44140625 -5.9111328125 c 4
 111.44140625 -3.7958984375 110.489396059 -1.66492100799 108.251953125 0.955078125 c 4
-7.33333333333 -6.59566074951 m 6
 -169 -152 l 5
 -170.454545455 -152 -171.776859504 -152.26446281 -172.822689707 -152.26446281 c 4
 -174.274743372 -152.26446281 -175.193814796 -151.754653711 -175.193814796 -149.31937517 c 4
 -175.193814796 -148.685170918 -175.131482908 -147.920380357 -175 -147 c 5
 -118.20095421 -94.9342080262 -4.94460537518 7.31585332148 55.3333318578 72.3712800994 c 4
 62.7910670372 80.4200980777 65 82.7838102606 65 99 c 6
 65 429 l 5
 67.3245553203 429.774851773 69.0487153699 430.249505911 70.6376974889 430.249505911 c 4
 73.1500988177 430.249505911 75.3245553203 429.062870566 79 426 c 5
 79 80 l 5
 100 50 115 24 140 -3 c 5
 117.652082924 -28.3099326915 94.3918515662 -56.4032640595 69 -91 c 5
 46.6414619416 -61.5193737158 23.7547710434 -30.2151168696 5.17070983468 -6.33333333333 c 4
 3.46944729593 -4.14709517836 1.63855230458 -3.11428296632 -0.342439552467 -3.11428296632 c 0
 -2.48799986566 -3.11428296632 -4.80963112481 -4.32582207675 -7.33333333333 -6.59566074951 c 6
EndSplineSet
Validated: 1
EndChar

StartChar: approxequal
Encoding: 197 8776 159
AltUni2: 00f0c5.ffffffff.0
Width: 118
Flags: MW
HStem: -956 150 -702 150
VStem: -1503 137
LayerCount: 2
Fore
SplineSet
118 -75 m 5
 95.3333333333 -75 88.408203125 -76.1044921875 61.0009765625 -76.1044921875 c 4
 47.296875 -76.1044921875 12 -75.3333333333 0 -75 c 5
 0 44 l 5
 18.7173487454 42.3484692283 42.5867437269 41.6061230866 65.768837859 41.6061230866 c 4
 84.6969384567 41.6061230866 103.166838488 42.1010205144 118 43 c 5
 118 -75 l 5
108 -38.138671875 m 4
 108.073893229 -32.4710286458 108.098524306 -25.8001302083 108.098524306 -19.4245515046 c 0
 108.098524306 -6.67339409722 108 4.896484375 108 4.896484375 c 6
 108 14.1005859375 104.158203125 16.6025390625 96.2314453125 16.6025390625 c 4
 95.8310546875 16.6025390625 95.4208984375 16.5966796875 95 16.583984375 c 4
 83.669921875 16.255859375 71.3349609375 16 59 16 c 4
 45.5673828125 16 35.1337890625 16.552734375 23 17.1455078125 c 4
 22.768575152 17.1568136381 22.5392249216 17.1624255587 22.3120364978 17.1624255587 c 0
 15.052307475 17.1624255587 10 11.4320914797 10 2.646484375 c 6
 10 -39.388671875 l 6
 10 -48.0712890625 13.4443359375 -50.798828125 21.2861328125 -51.353515625 c 4
 38.7841796875 -52.591796875 57.7685546875 -53.421875 75.7265625 -53.421875 c 4
 83.1982421875 -53.421875 87.9931640625 -53.27734375 95.1611328125 -52.9609375 c 4
 104.3515625 -52.9609375 107.887695312 -46.791015625 108 -38.138671875 c 4
EndSplineSet
Validated: 1
EndChar

StartChar: guillemotleft
Encoding: 199 171 160
AltUni2: 00f0c7.ffffffff.0
Width: 194
Flags: MW
HStem: 0 20G 63 114 330 114
VStem: 106 114 625 114
LayerCount: 2
Fore
SplineSet
0 427 m 2
 0 430.867108173 3.27130247909 432.63123618 6.65128729927 432.63123618 c 0
 10.2635761251 432.63123618 14 430.616280349 14 427 c 2
 14 48.5 l 2
 14 38.4110974226 13.1302326549 36.9725572645 22.4999984685 35.8991281134 c 4
 40.5422114283 33.8321567796 62.0104673674 32.9504959243 84.4321907826 32.9504959243 c 0
 122.186182467 32.9504959243 162.64347047 35.4502042041 194 39 c 1
 194 -75 l 1
 162.380086018 -76.3608382663 130.760172034 -76.9999463402 99.1402580506 -76.9999463402 c 0
 66.0935053665 -76.9999463402 33.0467526823 -76.3018577879 0 -75 c 1
 0 427 l 2
176.700195312 -37.607421875 m 2
 176.700195312 -11.3564453125 l 2
 176.700195312 0.1337890625 168.239257812 10.1513671875 159.068359375 10.1513671875 c 0
 157.413085938 10.1513671875 155.735351562 10.1083984375 154.080078125 10.07421875 c 0
 145.543945312 9.900390625 133.869140625 9.8125 126.098632812 9.8125 c 0
 100.967773438 9.8125 73.4560546875 10.724609375 36.1298828125 12.546875 c 0
 34.9677734375 12.603515625 33.8779296875 12.6376953125 32.859375 12.6376953125 c 0
 24.65625 12.6376953125 21.0498046875 11.9150390625 21.0498046875 0.8955078125 c 2
 21.0498046875 -31.5166015625 l 2
 21.0498046875 -46.3857421875 33.5517578125 -51.1689453125 46.2080078125 -51.625 c 0
 60.8271484375 -52.1533203125 76.1376953125 -52.4384765625 90.1591796875 -52.4384765625 c 0
 111.3203125 -52.4384765625 135.965820312 -51.7880859375 157.849609375 -50.3408203125 c 0
 170.456054688 -49.5078125 176.700195312 -52.478515625 176.700195312 -37.607421875 c 2
EndSplineSet
Validated: 1
EndChar

StartChar: guillemotright
Encoding: 200 187 161
AltUni2: 00f0c8.ffffffff.0
Width: 128
Flags: MW
HStem: 79 19 206 19
VStem: 95 254
LayerCount: 2
Fore
SplineSet
107.5 -18.4482421875 m 6
 107.5 18.1904296875 l 6
 107.5 29.0947265625 104.557617188 37.650390625 97.58203125 40.8564453125 c 4
 86.7607421875 45.830078125 75.185546875 48.60546875 63.673828125 48.60546875 c 4
 53.0146484375 48.60546875 42.4091796875 46.2265625 32.505859375 41.009765625 c 4
 25.544921875 37.34375 20.5 27.6767578125 20.5 15.927734375 c 6
 20.5 -19.08984375 l 6
 20.5 -33.248046875 31.7099609375 -38.3369140625 41.2119140625 -39.5390625 c 4
 49.09765625 -40.537109375 56.5341796875 -41.0654296875 64.0595703125 -41.0654296875 c 4
 71.5322265625 -41.0654296875 79.091796875 -40.5439453125 87.263671875 -39.44140625 c 4
 97.30859375 -38.0859375 107.5 -33.4794921875 107.5 -18.4482421875 c 6
128 -76 m 1
 108 -63 87 -60 71 -60 c 0
 57.1727045192 -60 35.876889495 -63.7342597717 20.6666671596 -69.9119114835 c 0
 14.1978412894 -72.5392335784 13.9991488215 -74.138971962 13.9991488215 -82.265184808 c 0
 13.9991488215 -82.7970576542 14 -83.3568892596 14 -83.9467976888 c 2
 14 -200 l 1
 0 -200 l 1
 0 59 l 1
 18.6694679849 74.2750192604 47.4209328455 79.4680416453 66.0873748073 79.4680416453 c 0
 69.4173669962 79.4680416453 72.4264070793 79.3027756377 75 79 c 0
 93.7736595585 76.4399555147 107.449897521 73.1517079443 121 66.0282034682 c 0
 127.24634216 62.7444020056 128 56.3994140625 128 46.4697265625 c 2
 128 -76 l 1
EndSplineSet
Validated: 1
EndChar

StartChar: ellipsis
Encoding: 201 8230 162
AltUni2: 00f0c9.ffffffff.0
Width: 128
Flags: MW
VStem: 133 17
LayerCount: 2
Fore
SplineSet
107.5 -18.4482421875 m 6
 107.5 18.1904296875 l 6
 107.5 29.0947265625 104.557617188 37.650390625 97.58203125 40.8564453125 c 4
 86.7607421875 45.830078125 75.185546875 48.60546875 63.673828125 48.60546875 c 4
 53.0146484375 48.60546875 42.4091796875 46.2265625 32.505859375 41.009765625 c 4
 25.544921875 37.34375 20.5 27.6767578125 20.5 15.927734375 c 6
 20.5 -19.08984375 l 6
 20.5 -33.248046875 31.7099609375 -38.3369140625 41.2119140625 -39.5390625 c 4
 49.09765625 -40.537109375 56.5341796875 -41.0654296875 64.0595703125 -41.0654296875 c 4
 71.5322265625 -41.0654296875 79.091796875 -40.5439453125 87.263671875 -39.44140625 c 4
 97.30859375 -38.0859375 107.5 -33.4794921875 107.5 -18.4482421875 c 6
128 -76 m 1
 108 -63 87 -60 71 -60 c 0
 57.2501778095 -60 42.9168444761 -60 28 -64.0115872299 c 0
 19.8962152721 -66.1909381899 14 -70.8720703125 14 -82.6669921875 c 2
 14 -327 l 1
 0 -324 l 1
 0 59 l 1
 19.6076951546 75.0426596719 46.36447168 79.1701837258 67.5269651985 79.1701837258 c 0
 70.1089686103 79.1701837258 72.6076951546 79.1087411293 75 79 c 0
 97 78 108 74 128 62 c 1
 128 -76 l 1
EndSplineSet
Validated: 1
EndChar

StartChar: uni00A0
Encoding: 202 160 163
AltUni2: 00f0ca.ffffffff.0
Width: 128
Flags: MW
HStem: -452 21G<14 14>
VStem: 0 128<-76 -76 -76 59 59 59>
LayerCount: 2
Fore
SplineSet
107.5 -18.4482421875 m 6
 107.5 18.1904296875 l 6
 107.5 29.0947265625 104.557617188 37.650390625 97.58203125 40.8564453125 c 4
 86.7607421875 45.830078125 75.185546875 48.60546875 63.673828125 48.60546875 c 4
 53.0146484375 48.60546875 42.4091796875 46.2265625 32.505859375 41.009765625 c 4
 25.544921875 37.34375 20.5 27.6767578125 20.5 15.927734375 c 6
 20.5 -19.08984375 l 6
 20.5 -33.248046875 31.7099609375 -38.3369140625 41.2119140625 -39.5390625 c 4
 49.09765625 -40.537109375 56.5341796875 -41.0654296875 64.0595703125 -41.0654296875 c 4
 71.5322265625 -41.0654296875 79.091796875 -40.5439453125 87.263671875 -39.44140625 c 4
 97.30859375 -38.0859375 107.5 -33.4794921875 107.5 -18.4482421875 c 6
128 -76 m 1
 108 -63 87 -60 71 -60 c 0
 54 -60 34 -65 14 -74 c 1
 14 -452 l 1
 0 -450 l 1
 0 59 l 1
 22 77 53 80 75 79 c 0
 97 78 108 74 128 62 c 1
 128 -76 l 1
EndSplineSet
Validated: 33
EndChar

StartChar: Agrave
Encoding: 203 192 164
AltUni2: 00f0cb.ffffffff.0
Width: 128
Flags: MW
HStem: -241 21G 244 20G
LayerCount: 2
Fore
SplineSet
107.5 -18.4482421875 m 6
 107.5 18.1904296875 l 6
 107.5 29.0947265625 104.557617188 37.650390625 97.58203125 40.8564453125 c 4
 86.7607421875 45.830078125 75.185546875 48.60546875 63.673828125 48.60546875 c 4
 53.0146484375 48.60546875 42.4091796875 46.2265625 32.505859375 41.009765625 c 4
 25.544921875 37.34375 20.5 27.6767578125 20.5 15.927734375 c 6
 20.5 -19.08984375 l 6
 20.5 -33.248046875 31.7099609375 -38.3369140625 41.2119140625 -39.5390625 c 4
 49.09765625 -40.537109375 56.5341796875 -41.0654296875 64.0595703125 -41.0654296875 c 4
 71.5322265625 -41.0654296875 79.091796875 -40.5439453125 87.263671875 -39.44140625 c 4
 97.30859375 -38.0859375 107.5 -33.4794921875 107.5 -18.4482421875 c 6
128 -76 m 1
 108 -63 87 -60 71 -60 c 0
 53 -60 34 -64 14 -73 c 1
 14 -573 l 1
 0 -573 l 1
 0 59 l 1
 22 77 53 80 75 79 c 0
 97 78 108 74 128 62 c 1
 128 -76 l 1
EndSplineSet
Validated: 33
EndChar

StartChar: Atilde
Encoding: 204 195 165
AltUni2: 00f0cc.ffffffff.0
Width: 128
Flags: MW
HStem: -698 21G<0 14 0 0>
VStem: 0 128<-76 -76 -76 59 59 59>
LayerCount: 2
Fore
SplineSet
107.5 -18.4482421875 m 6
 107.5 18.1904296875 l 6
 107.5 29.0947265625 104.557617188 37.650390625 97.58203125 40.8564453125 c 4
 86.7607421875 45.830078125 75.185546875 48.60546875 63.673828125 48.60546875 c 4
 53.0146484375 48.60546875 42.4091796875 46.2265625 32.505859375 41.009765625 c 4
 25.544921875 37.34375 20.5 27.6767578125 20.5 15.927734375 c 6
 20.5 -19.08984375 l 6
 20.5 -33.248046875 31.7099609375 -38.3369140625 41.2119140625 -39.5390625 c 4
 49.09765625 -40.537109375 56.5341796875 -41.0654296875 64.0595703125 -41.0654296875 c 4
 71.5322265625 -41.0654296875 79.091796875 -40.5439453125 87.263671875 -39.44140625 c 4
 97.30859375 -38.0859375 107.5 -33.4794921875 107.5 -18.4482421875 c 6
128 -76 m 1
 108 -63 87 -60 71 -60 c 0
 53 -60 34 -64 14 -73 c 1
 14 -698 l 1
 0 -698 l 1
 0 59 l 1
 22 77 53 80 75 79 c 0
 97 78 108 74 128 62 c 1
 128 -76 l 1
EndSplineSet
Validated: 33
EndChar

StartChar: Otilde
Encoding: 205 213 166
AltUni2: 00f0cd.ffffffff.0
Width: 128
Flags: MW
HStem: -823 21G<0 14 0 0>
VStem: 0 128<-76 -76 -76 59 59 59>
LayerCount: 2
Fore
SplineSet
107.5 -18.4482421875 m 6
 107.5 18.1904296875 l 6
 107.5 29.0947265625 104.557617188 37.650390625 97.58203125 40.8564453125 c 4
 86.7607421875 45.830078125 75.185546875 48.60546875 63.673828125 48.60546875 c 4
 53.0146484375 48.60546875 42.4091796875 46.2265625 32.505859375 41.009765625 c 4
 25.544921875 37.34375 20.5 27.6767578125 20.5 15.927734375 c 6
 20.5 -19.08984375 l 6
 20.5 -33.248046875 31.7099609375 -38.3369140625 41.2119140625 -39.5390625 c 4
 49.09765625 -40.537109375 56.5341796875 -41.0654296875 64.0595703125 -41.0654296875 c 4
 71.5322265625 -41.0654296875 79.091796875 -40.5439453125 87.263671875 -39.44140625 c 4
 97.30859375 -38.0859375 107.5 -33.4794921875 107.5 -18.4482421875 c 6
128 -76 m 1
 108 -63 87 -60 71 -60 c 0
 53 -60 34 -64 14 -73 c 1
 14 -823 l 1
 0 -823 l 1
 0 59 l 1
 22 77 53 80 75 79 c 0
 97 78 108 74 128 62 c 1
 128 -76 l 1
EndSplineSet
Validated: 33
EndChar

StartChar: OE
Encoding: 206 338 167
AltUni2: 00f0ce.ffffffff.0
Width: 128
Flags: MW
VStem: 13 93
LayerCount: 2
Fore
SplineSet
107.5 -18.4482421875 m 6
 107.5 18.1904296875 l 6
 107.5 29.0947265625 104.557617188 37.650390625 97.58203125 40.8564453125 c 4
 86.7607421875 45.830078125 75.185546875 48.60546875 63.673828125 48.60546875 c 4
 53.0146484375 48.60546875 42.4091796875 46.2265625 32.505859375 41.009765625 c 4
 25.544921875 37.34375 20.5 27.6767578125 20.5 15.927734375 c 6
 20.5 -19.08984375 l 6
 20.5 -33.248046875 31.7099609375 -38.3369140625 41.2119140625 -39.5390625 c 4
 49.09765625 -40.537109375 56.5341796875 -41.0654296875 64.0595703125 -41.0654296875 c 4
 71.5322265625 -41.0654296875 79.091796875 -40.5439453125 87.263671875 -39.44140625 c 4
 97.30859375 -38.0859375 107.5 -33.4794921875 107.5 -18.4482421875 c 6
128 -76 m 5
 108 -63 87 -60 71 -60 c 4
 53 -60 34 -64 14 -73 c 5
 14 -948 l 5
 0 -948 l 5
 0 59 l 5
 19.6076951546 75.0426596719 46.36447168 79.1701837258 67.5269651985 79.1701837258 c 0
 70.1089686103 79.1701837258 72.6076951546 79.1087411293 75 79 c 4
 97 78 108 74 128 62 c 5
 128 -76 l 5
EndSplineSet
Validated: 1
EndChar

StartChar: oe
Encoding: 207 339 168
AltUni2: 00f0cf.ffffffff.0
Width: 160
Flags: MW
HStem: -105 21G<73.5 74> 74 20G
LayerCount: 2
Fore
SplineSet
64 94 m 1
 95 61 121 29 140 -3 c 1
 128 -32 111 -70 74 -105 c 0
 73.6666666667 -105 73.3333333333 -105.111111111 73.0740740741 -105.111111111 c 0
 72.7833613924 -105.111111111 72.5857864376 -104.971404521 72.5857864376 -104.378679656 c 0
 72.5857864376 -103.914213562 72.7071067812 -103.171572875 73 -102 c 0
 74.5316018776 -95.9914080186 75.244254321 -90.3020675116 75.244254321 -84.9025423892 c 0
 75.244254321 -44.4717328678 35.2873788381 -20.2902428319 0 0 c 1
 16 19 37 49 64 94 c 1
EndSplineSet
Validated: 1
EndChar

StartChar: chantStrophicusAuctus
Encoding: 208 8211 169
AltUni2: 00e9a0.ffffffff.0 00f0d0.ffffffff.0
Width: 160
Flags: MW
HStem: -118 279
VStem: 0 279
LayerCount: 2
Fore
SplineSet
64 94 m 5
 95 61 121 29 140 -3 c 5
 138 -44 95 -91 84 -98 c 4
 77.1170974401 -102.380028902 67.8850536745 -104.508797481 58.4168512624 -104.508797481 c 0
 37.6215926922 -104.508797481 15.6871407927 -94.2399421965 15 -75 c 5
 27.5721760334 -81.9845422408 38.5588775816 -84.9444184807 46.9379064742 -84.9444184807 c 0
 57.6936644013 -84.9444184807 64.1525966419 -80.0672448719 64.1525966419 -72.5650919813 c 0
 64.1525966419 -69.1764374622 62.8348148733 -65.25222231 60 -61 c 4
 45 -39 28 -28 0 0 c 5
 16 19 37 49 64 94 c 5
EndSplineSet
Validated: 1
EndChar

StartChar: emdash
Encoding: 209 8212 170
AltUni2: 00f0d1.ffffffff.0
Width: 128
Flags: MW
HStem: -135 21G 124 20G
LayerCount: 2
Fore
SplineSet
107.5 -16.6982421875 m 6
 107.5 17.1904296875 l 6
 107.5 28.0947265625 104.557617188 36.650390625 97.58203125 39.8564453125 c 4
 86.7607421875 44.830078125 75.185546875 47.60546875 63.673828125 47.60546875 c 4
 53.0146484375 47.60546875 42.4091796875 45.2265625 32.505859375 40.009765625 c 4
 25.544921875 36.34375 20.5 26.6767578125 20.5 14.927734375 c 6
 20.5 -17.58984375 l 6
 20.5 -31.748046875 31.7099609375 -34.5869140625 41.2119140625 -35.7890625 c 4
 49.0972173513 -36.7866687571 56.5340979578 -37.3156929789 64.0591344752 -37.3156929789 c 4
 71.5318878234 -37.3156929789 79.091576342 -36.7939944297 87.263671875 -35.69140625 c 4
 97.30859375 -34.3359375 107.5 -31.7294921875 107.5 -16.6982421875 c 6
128 -76 m 1
 108 -63 87 -60 71 -60 c 0
 51 -60 20 -63 0 -76 c 1
 0 59 l 1
 17.3286780215 73.3580475035 39.8050660196 79.6268364722 62.574578485 79.6268364722 c 0
 83.2140957439 79.6268364722 104.094461354 74.4760297096 121.599998822 65.5302948699 c 0
 127.21047632 62.6632110046 128 57.0771484375 128 48.2373046875 c 2
 128 -76 l 1
EndSplineSet
Validated: 1
EndChar

StartChar: quotedblleft
Encoding: 210 8220 171
AltUni2: 00f0d2.ffffffff.0
Width: 128
Flags: MW
VStem: 6 40 182 21 287 21 446 40
LayerCount: 2
Fore
SplineSet
107.5 -16.6982421875 m 6
 107.5 17.1904296875 l 6
 107.5 28.0947265625 104.557617188 36.650390625 97.58203125 39.8564453125 c 4
 86.7607421875 44.830078125 75.185546875 47.60546875 63.673828125 47.60546875 c 4
 53.0146484375 47.60546875 42.4091796875 45.2265625 32.505859375 40.009765625 c 4
 25.544921875 36.34375 20.5 26.6767578125 20.5 14.927734375 c 6
 20.5 -17.58984375 l 6
 20.5 -31.748046875 31.7099609375 -34.5869140625 41.2119140625 -35.7890625 c 4
 49.0972173513 -36.7866687571 56.5340979578 -37.3156929789 64.0591344752 -37.3156929789 c 4
 71.5318878234 -37.3156929789 79.091576342 -36.7939944297 87.263671875 -35.69140625 c 4
 97.30859375 -34.3359375 107.5 -31.7294921875 107.5 -16.6982421875 c 6
128 -76 m 5
 108 -63 87 -60 71 -60 c 4
 51 -60 20 -63 0 -76 c 5
 0 312 l 5
 12 311 11 310 14 303 c 5
 14 81.1999969482 l 6
 14 73.3876034793 14.8557685838 70.8874069471 17.9521336263 70.8874069471 c 0
 19.6204411239 70.8874069471 21.9391950552 71.6132154308 25.125 72.625 c 4
 38.9610788154 77.0196766326 51.2080061753 79.1980768343 66.6281867051 79.1980768343 c 0
 69.3141258261 79.1980768343 72.0963409687 79.1319845014 75 79 c 4
 97 78 108 74 128 62 c 5
 128 -76 l 5
EndSplineSet
Validated: 1
EndChar

StartChar: quotedblright
Encoding: 211 8221 172
AltUni2: 00f0d3.ffffffff.0
Width: 128
Flags: MW
HStem: 83 23
VStem: -35 40 131 21 268 21 379 52 479 40
LayerCount: 2
Fore
SplineSet
107.5 -16.6982421875 m 2
 107.5 17.1904296875 l 2
 107.5 28.0947265625 104.557617188 36.650390625 97.58203125 39.8564453125 c 0
 86.7607421875 44.830078125 75.185546875 47.60546875 63.673828125 47.60546875 c 0
 53.0146484375 47.60546875 42.4091796875 45.2265625 32.505859375 40.009765625 c 0
 25.544921875 36.34375 20.5 26.6767578125 20.5 14.927734375 c 2
 20.5 -17.58984375 l 2
 20.5 -31.748046875 31.7099609375 -34.5869140625 41.2119140625 -35.7890625 c 0
 49.0972173513 -36.7866687571 56.5340979578 -37.3156929789 64.0591344752 -37.3156929789 c 0
 71.5318878234 -37.3156929789 79.091576342 -36.7939944297 87.263671875 -35.69140625 c 0
 97.30859375 -34.3359375 107.5 -31.7294921875 107.5 -16.6982421875 c 2
128 -76 m 1
 108 -63 87 -60 71 -60 c 0
 51 -60 20 -63 0 -76 c 5
 0 50 0 309 0 437 c 5
 11 434 8 436 14 428 c 1
 14 80.6666666667 l 2
 14 76.1914407245 16.6761098598 71.8703239311 21.3805119491 71.8703239311 c 0
 22.1941238358 71.8703239311 23.0684032405 71.9995712986 23.999999033 72.2796217693 c 0
 38.5609921272 76.6568559757 53.3946593332 79.2306562732 66.6861757981 79.2306562732 c 0
 69.5500556794 79.2306562732 72.3300334076 79.1483314774 75 79 c 0
 97 78 108 74 128 62 c 1
 128 -76 l 1
EndSplineSet
Validated: 1
EndChar

StartChar: quoteleft
Encoding: 212 8216 173
AltUni2: 00f0d4.ffffffff.0
Width: 128
Flags: MW
HStem: 0 20G 63 114 328 114
VStem: 103 114 411 114
LayerCount: 2
Fore
SplineSet
107.5 -16.6982421875 m 6
 107.5 17.1904296875 l 6
 107.5 28.0947265625 104.557617188 36.650390625 97.58203125 39.8564453125 c 4
 86.7607421875 44.830078125 75.185546875 47.60546875 63.673828125 47.60546875 c 4
 53.0146484375 47.60546875 42.4091796875 45.2265625 32.505859375 40.009765625 c 4
 25.544921875 36.34375 20.5 26.6767578125 20.5 14.927734375 c 6
 20.5 -17.58984375 l 6
 20.5 -31.748046875 31.7099609375 -34.5869140625 41.2119140625 -35.7890625 c 4
 49.0972173513 -36.7866687571 56.5340979578 -37.3156929789 64.0591344752 -37.3156929789 c 4
 71.5318878234 -37.3156929789 79.091576342 -36.7939944297 87.263671875 -35.69140625 c 4
 97.30859375 -34.3359375 107.5 -31.7294921875 107.5 -16.6982421875 c 6
21.9999990391 71.5307441173 m 4
 36.8798580722 77.2876851412 52.7731163305 79.2306562732 66.6861757981 79.2306562732 c 0
 69.5500556794 79.2306562732 72.3300334076 79.1483314774 75 79 c 4
 97 78 108 74 128 62 c 5
 128 -76 l 5
 108 -63 87 -60 71 -60 c 4
 51 -60 20 -63 0 -76 c 5
 0 562 l 5
 5 562 11 559 14 556 c 5
 14 79.5 l 6
 14 73.997224849 15.0904132077 70.7553612237 18.5409044759 70.7553612237 c 0
 19.5017773912 70.7553612237 20.6456694025 71.006760938 21.9999990391 71.5307441173 c 4
EndSplineSet
Validated: 1
EndChar

StartChar: quoteright
Encoding: 213 8217 174
AltUni2: 00f0d5.ffffffff.0
Width: 128
Flags: MW
HStem: 0 20G
LayerCount: 2
Fore
SplineSet
107.5 -16.6982421875 m 6
 107.5 17.1904296875 l 6
 107.5 28.0947265625 104.557617188 36.650390625 97.58203125 39.8564453125 c 4
 86.7607421875 44.830078125 75.185546875 47.60546875 63.673828125 47.60546875 c 4
 53.0146484375 47.60546875 42.4091796875 45.2265625 32.505859375 40.009765625 c 4
 25.544921875 36.34375 20.5 26.6767578125 20.5 14.927734375 c 6
 20.5 -17.58984375 l 6
 20.5 -31.748046875 31.7099609375 -34.5869140625 41.2119140625 -35.7890625 c 4
 49.0972173513 -36.7866687571 56.5340979578 -37.3156929789 64.0591344752 -37.3156929789 c 4
 71.5318878234 -37.3156929789 79.091576342 -36.7939944297 87.263671875 -35.69140625 c 4
 97.30859375 -34.3359375 107.5 -31.7294921875 107.5 -16.6982421875 c 6
27.5 72.25 m 4
 42.8036785556 77.1635612941 55.5779368494 79.1460013943 68.7094346975 79.1460013943 c 0
 70.7934459081 79.1460013943 72.8864548103 79.0960702359 75 79 c 4
 97 78 108 74 128 62 c 5
 128 -76 l 5
 108 -63 87 -60 71 -60 c 4
 51 -60 20 -63 0 -76 c 5
 0 687 l 5
 5 687 11 684 14 681 c 5
 14 85.75 l 6
 14 75.5452290638 16.497194795 71.2282960559 22.0149847252 71.2282960559 c 0
 23.5923885908 71.2282960559 25.4166509051 71.5810978509 27.5 72.25 c 4
EndSplineSet
Validated: 1
EndChar

StartChar: unpitchedPercussionClef2
Encoding: 214 247 175
AltUni2: 00f0d6.ffffffff.0
Width: 128
Flags: MW
HStem: -444 85 359 85
VStem: 0 42 212 42
LayerCount: 2
Fore
SplineSet
107.5 -16.6982421875 m 6
 107.5 17.1904296875 l 6
 107.5 28.0947265625 104.557617188 36.650390625 97.58203125 39.8564453125 c 4
 86.7607421875 44.830078125 75.185546875 47.60546875 63.673828125 47.60546875 c 4
 53.0146484375 47.60546875 42.4091796875 45.2265625 32.505859375 40.009765625 c 4
 25.544921875 36.34375 20.5 26.6767578125 20.5 14.927734375 c 6
 20.5 -17.58984375 l 6
 20.5 -31.748046875 31.7099609375 -34.5869140625 41.2119140625 -35.7890625 c 4
 49.0972173513 -36.7866687571 56.5340979578 -37.3156929789 64.0591344752 -37.3156929789 c 4
 71.5318878234 -37.3156929789 79.091576342 -36.7939944297 87.263671875 -35.69140625 c 4
 97.30859375 -34.3359375 107.5 -31.7294921875 107.5 -16.6982421875 c 6
23.2499990351 72.0045712878 m 4
 37.766754291 77.3947805683 53.161990743 79.2306562732 66.6861757981 79.2306562732 c 0
 69.5500556794 79.2306562732 72.3300334076 79.1483314774 75 79 c 4
 97 78 108 74 128 62 c 5
 128 -76 l 5
 108 -63 87 -60 71 -60 c 4
 51 -60 20 -63 0 -76 c 5
 0 812 l 5
 5 812 11 809 14 806 c 5
 14 78.25 l 6
 14 73.4818540527 14.6223809913 70.7792794756 18.013717474 70.7792794756 c 0
 19.3126985534 70.7792794756 21.0179169933 71.1757779986 23.2499990351 72.0045712878 c 4
EndSplineSet
Validated: 1
EndChar

StartChar: lozenge
Encoding: 215 9674 176
AltUni2: 00f0d7.ffffffff.0
Width: 128
Flags: MW
HStem: 78 190 369 20G
LayerCount: 2
Fore
SplineSet
107.5 -16.6982421875 m 6
 107.5 17.1904296875 l 6
 107.5 28.0947265625 104.557617188 36.650390625 97.58203125 39.8564453125 c 4
 86.7607421875 44.830078125 75.185546875 47.60546875 63.673828125 47.60546875 c 4
 53.0146484375 47.60546875 42.4091796875 45.2265625 32.505859375 40.009765625 c 4
 25.544921875 36.34375 20.5 26.6767578125 20.5 14.927734375 c 6
 20.5 -17.58984375 l 6
 20.5 -31.748046875 31.7099609375 -34.5869140625 41.2119140625 -35.7890625 c 4
 49.0972173513 -36.7866687571 56.5340979578 -37.3156929789 64.0591344752 -37.3156929789 c 4
 71.5318878234 -37.3156929789 79.091576342 -36.7939944297 87.263671875 -35.69140625 c 4
 97.30859375 -34.3359375 107.5 -31.7294921875 107.5 -16.6982421875 c 6
26.25 72.625 m 0
 41.0221682395 77.5280922228 54.4422486487 79.1773507162 67.4242710511 79.1773507162 c 0
 69.9639984597 79.1773507162 72.4869601901 79.1142290823 75 79 c 0
 97 78 108 74 128 62 c 1
 128 -76 l 1
 108 -63 87 -60 71 -60 c 0
 51 -60 20 -63 0 -76 c 1
 0 937 l 1
 5 937 11 934 14 931 c 1
 14 81.25 l 2
 14 74.6055744279 15.3927817266 71.3410647686 19.9518245252 71.3410647686 c 0
 21.6060934091 71.3410647686 23.6772427966 71.7708810093 26.25 72.625 c 0
EndSplineSet
Validated: 1
EndChar

StartChar: ydieresis
Encoding: 216 255 177
AltUni2: 00f0d8.ffffffff.0
Width: 12
Flags: MW
HStem: 2 21G 212 20G
LayerCount: 2
Fore
SplineSet
-8.75 -19.4482421875 m 6
 -8.75 14.4404296875 l 6
 -8.75 25.3447265625 -11.6923828125 33.900390625 -18.66796875 37.1064453125 c 4
 -29.4892578125 42.080078125 -41.064453125 44.85546875 -52.576171875 44.85546875 c 4
 -63.2353515625 44.85546875 -73.8408203125 42.4765625 -83.744140625 37.259765625 c 4
 -90.705078125 33.59375 -95.75 23.9267578125 -95.75 12.177734375 c 6
 -95.75 -20.33984375 l 6
 -95.75 -34.498046875 -84.5400390625 -37.3369140625 -75.0380859375 -38.5390625 c 4
 -67.15234375 -39.537109375 -59.7158203125 -40.0654296875 -52.1904296875 -40.0654296875 c 4
 -44.7177734375 -40.0654296875 -37.158203125 -39.5439453125 -28.986328125 -38.44140625 c 4
 -18.94140625 -37.0859375 -8.75 -32.9794921875 -8.75 -19.4482421875 c 6
12.6669921875 -200 m 1
 -1.3330078125 -200 l 1
 -1.3330078125 -86.8505859375 l 2
 -1.3330078125 -75.0185546875 -2.2001953125 -69.375 -11.3330078125 -67.05859375 c 0
 -24.7685546875 -63.6513671875 -36.224609375 -63 -48.3330078125 -63 c 0
 -68.3330078125 -63 -91.3330078125 -68 -115.333007812 -76 c 1
 -115.333007812 59 l 1
 -92.2890625 71.408203125 -72.3876953125 75.17578125 -52.8427734375 75.17578125 c 0
 -50.3359375 75.17578125 -47.8349609375 75.11328125 -45.3330078125 75 c 0
 -22.640625 74.1591796875 -13.369140625 72.6123046875 2.6669921875 66.203125 c 0
 10.9599609375 62.888671875 12.6669921875 57.9443359375 12.6669921875 45.3154296875 c 2
 12.6669921875 -200 l 1
EndSplineSet
Validated: 1
EndChar

StartChar: Ydieresis
Encoding: 217 376 178
AltUni2: 00f0d9.ffffffff.0
Width: 14
Flags: MW
HStem: -138 39 99 37
VStem: -80 49
LayerCount: 2
Fore
SplineSet
-8.75 -19.4482421875 m 6
 -8.75 14.4404296875 l 6
 -8.75 25.3447265625 -11.6923828125 33.900390625 -18.66796875 37.1064453125 c 4
 -29.4892578125 42.080078125 -41.064453125 44.85546875 -52.576171875 44.85546875 c 4
 -63.2353515625 44.85546875 -73.8408203125 42.4765625 -83.744140625 37.259765625 c 4
 -90.705078125 33.59375 -95.75 23.9267578125 -95.75 12.177734375 c 6
 -95.75 -20.33984375 l 6
 -95.75 -34.498046875 -84.5400390625 -37.3369140625 -75.0380859375 -38.5390625 c 4
 -67.15234375 -39.537109375 -59.7158203125 -40.0654296875 -52.1904296875 -40.0654296875 c 4
 -44.7177734375 -40.0654296875 -37.158203125 -39.5439453125 -28.986328125 -38.44140625 c 4
 -18.94140625 -37.0859375 -8.75 -32.9794921875 -8.75 -19.4482421875 c 6
14 -325 m 1
 11 -325.5 9.25 -325.75 7.375 -325.75 c 0
 5.5 -325.75 3.5 -325.5 0 -325 c 1
 0 -90.8427734375 l 2
 0 -75.9833984375 -0.370337557018 -69.3228870236 -12 -66.5682638972 c 0
 -24.5818869725 -63.5880951262 -35.4968959231 -63 -47 -63 c 0
 -67 -63 -90 -68 -114 -76 c 1
 -114 59 l 1
 -90.955945658 71.4083369534 -71.0540714374 75.1756785729 -51.5094323586 75.1756785729 c 0
 -49.0023695751 75.1756785729 -46.5011847876 75.1136902176 -44 75 c 0
 -25.1481113968 74.1803526694 -13.6862620053 72.6888835923 2.5 66.6709944606 c 0
 11.2302458537 63.4251770123 14 58.4365234375 14 45.1572265625 c 2
 14 -325 l 1
EndSplineSet
Validated: 1
EndChar

StartChar: fraction
Encoding: 218 8260 179
AltUni2: 00f0da.ffffffff.0
Width: 14
Flags: MW
HStem: 0 24 483 24
LayerCount: 2
Fore
SplineSet
-8.75 -19.4482421875 m 6
 -8.75 14.4404296875 l 6
 -8.75 25.3447265625 -11.6923828125 33.900390625 -18.66796875 37.1064453125 c 4
 -29.4892578125 42.080078125 -41.064453125 44.85546875 -52.576171875 44.85546875 c 4
 -63.2353515625 44.85546875 -73.8408203125 42.4765625 -83.744140625 37.259765625 c 4
 -90.705078125 33.59375 -95.75 23.9267578125 -95.75 12.177734375 c 6
 -95.75 -20.33984375 l 6
 -95.75 -34.498046875 -84.5400390625 -37.3369140625 -75.0380859375 -38.5390625 c 4
 -67.15234375 -39.537109375 -59.7158203125 -40.0654296875 -52.1904296875 -40.0654296875 c 4
 -44.7177734375 -40.0654296875 -37.158203125 -39.5439453125 -28.986328125 -38.44140625 c 4
 -18.94140625 -37.0859375 -8.75 -32.9794921875 -8.75 -19.4482421875 c 6
14 -450 m 1
 9 -451 7 -451 0 -450 c 1
 0 -70 l 1
 -18 -64 -32 -63 -47 -63 c 0
 -67 -63 -90 -68 -114 -76 c 1
 -114 59 l 1
 -88 73 -66 76 -44 75 c 0
 -19 74 -9 72 14 62 c 1
 14 -450 l 1
EndSplineSet
Validated: 33
EndChar

StartChar: guilsinglleft
Encoding: 220 8249 180
AltUni2: 00f0dc.ffffffff.0
Width: 14
Flags: MW
HStem: -27 56
VStem: -204 54
LayerCount: 2
Fore
SplineSet
-8.75 -19.4482421875 m 6
 -8.75 14.4404296875 l 6
 -8.75 25.3447265625 -11.6923828125 33.900390625 -18.66796875 37.1064453125 c 4
 -29.4892578125 42.080078125 -41.064453125 44.85546875 -52.576171875 44.85546875 c 4
 -63.2353515625 44.85546875 -73.8408203125 42.4765625 -83.744140625 37.259765625 c 4
 -90.705078125 33.59375 -95.75 23.9267578125 -95.75 12.177734375 c 6
 -95.75 -20.33984375 l 6
 -95.75 -34.498046875 -84.5400390625 -37.3369140625 -75.0380859375 -38.5390625 c 4
 -67.15234375 -39.537109375 -59.7158203125 -40.0654296875 -52.1904296875 -40.0654296875 c 4
 -44.7177734375 -40.0654296875 -37.158203125 -39.5439453125 -28.986328125 -38.44140625 c 4
 -18.94140625 -37.0859375 -8.75 -32.9794921875 -8.75 -19.4482421875 c 6
14 -575 m 1
 10 -576 7 -576 0 -575 c 1
 0 -70 l 1
 -18 -64 -32 -63 -47 -63 c 0
 -67 -63 -90 -68 -114 -76 c 1
 -114 59 l 1
 -73 85 -22 82 14 62 c 1
 14 -575 l 1
EndSplineSet
Validated: 33
EndChar

StartChar: guilsinglright
Encoding: 221 8250 181
AltUni2: 00f0dd.ffffffff.0
Width: 14
Flags: MW
HStem: -129 70 59 70
VStem: 0 35 472 35
LayerCount: 2
Fore
SplineSet
-8.75 -19.4482421875 m 6
 -8.75 14.4404296875 l 6
 -8.75 25.3447265625 -11.6923828125 33.900390625 -18.66796875 37.1064453125 c 4
 -29.4892578125 42.080078125 -41.064453125 44.85546875 -52.576171875 44.85546875 c 4
 -63.2353515625 44.85546875 -73.8408203125 42.4765625 -83.744140625 37.259765625 c 4
 -90.705078125 33.59375 -95.75 23.9267578125 -95.75 12.177734375 c 6
 -95.75 -20.33984375 l 6
 -95.75 -34.498046875 -84.5400390625 -37.3369140625 -75.0380859375 -38.5390625 c 4
 -67.15234375 -39.537109375 -59.7158203125 -40.0654296875 -52.1904296875 -40.0654296875 c 4
 -44.7177734375 -40.0654296875 -37.158203125 -39.5439453125 -28.986328125 -38.44140625 c 4
 -18.94140625 -37.0859375 -8.75 -32.9794921875 -8.75 -19.4482421875 c 6
14 -700 m 1
 10 -701 7 -701 0 -700 c 1
 0 -70 l 1
 -18 -64 -32 -63 -47 -63 c 0
 -67 -63 -90 -68 -114 -76 c 1
 -114 59 l 1
 -91 72 -64 76 -44 75 c 0
 -19 74 -9 72 14 62 c 1
 14 -700 l 1
EndSplineSet
Validated: 33
EndChar

StartChar: fi
Encoding: 222 64257 182
AltUni2: 00f0de.ffffffff.0
Width: 14
Flags: MW
HStem: 226 20G
VStem: 47 99 232 20 338 99
LayerCount: 2
Fore
SplineSet
-8.75 -19.4482421875 m 6
 -8.75 14.4404296875 l 6
 -8.75 25.3447265625 -11.6923828125 33.900390625 -18.66796875 37.1064453125 c 4
 -29.4892578125 42.080078125 -41.064453125 44.85546875 -52.576171875 44.85546875 c 4
 -63.2353515625 44.85546875 -73.8408203125 42.4765625 -83.744140625 37.259765625 c 4
 -90.705078125 33.59375 -95.75 23.9267578125 -95.75 12.177734375 c 6
 -95.75 -20.33984375 l 6
 -95.75 -34.498046875 -84.5400390625 -37.3369140625 -75.0380859375 -38.5390625 c 4
 -67.15234375 -39.537109375 -59.7158203125 -40.0654296875 -52.1904296875 -40.0654296875 c 4
 -44.7177734375 -40.0654296875 -37.158203125 -39.5439453125 -28.986328125 -38.44140625 c 4
 -18.94140625 -37.0859375 -8.75 -32.9794921875 -8.75 -19.4482421875 c 6
14 -825 m 1
 10 -826 7 -826 0 -825 c 1
 0 -70 l 1
 -18 -64 -32 -63 -47 -63 c 0
 -67 -63 -90 -68 -114 -76 c 1
 -114 59 l 1
 -91 72 -64 76 -44 75 c 0
 -19 74 -9 72 14 62 c 1
 14 -825 l 1
EndSplineSet
Validated: 33
EndChar

StartChar: fl
Encoding: 223 64258 183
AltUni2: 00f0df.ffffffff.0
Width: 156
VWidth: 1330
Flags: MW
HStem: -509.39 113.05 -113.05 109.06
VStem: 385.7 109.06
LayerCount: 2
Fore
SplineSet
73.353515625 78.69921875 m 4
 96.7412109375 78.69921875 130.510679049 79.9677734375 150.21484375 80.9677734375 c 4
 150.417503697 80.9780585701 150.623984411 80.9835316915 150.832817939 80.9835316915 c 4
 153.533511064 80.9835316915 156.627697893 80.0681860741 156.942055054 76.7010769549 c 4
 156.942055054 76.4637983985 156.930052998 75.723678513 156.840820312 73.5 c 4
 156.340820312 61.0537109375 155.940429688 26.076171875 155.940429688 -1.3701171875 c 31
 155.940429688 -25.7978515625 156.5859375 -55.822265625 156.8359375 -67.5 c 4
 156.896484375 -70.3525390625 156.940429688 -71.3154296875 156.940429688 -71.3154296875 c 6
 156.940429688 -75.1939165052 156.827429305 -75.887208457 153.808738586 -75.887208457 c 4
 153.555307222 -75.887208457 153.281395722 -75.8823219374 152.985351562 -75.8740234375 c 4
 129.016601562 -75.2021484375 104.5234375 -74.46875 77.1396484375 -74.46875 c 4
 55.3056640625 -74.46875 25.580078125 -75.2607421875 6.482421875 -76.30859375 c 4
 5.60342579589 -76.3568412285 4.83399226751 -76.3883494645 4.16063092995 -76.3883494645 c 4
 -0.0316683676895 -76.3883494645 -0.5 -75.1670215143 -0.5 -69.16015625 c 5
 -0.0473338316735 -54.444202869 0.0460306721437 -39.4107427639 0.0460306721437 -24.0324495547 c 4
 0.0460306721437 -13.2345098362 1.04083408559e-16 -2.26656011495 0 8.880859375 c 4
 0 31.1171875 -0.150390625 52.5673828125 -0.5 76.3046875 c 4
 -0.501807949334 76.4280174592 -0.502720690166 76.5486166364 -0.502720690166 76.666536049 c 4
 -0.502720690166 80.3654565481 0.395383782379 81.4275841744 2.73273155831 81.4275841744 c 4
 2.93700936101 81.4275841744 3.1522805098 81.4194713441 3.37890625 81.404296875 c 4
 25.76171875 79.904296875 50.9287109375 78.69921875 73.353515625 78.69921875 c 4
72.6123046875 50.4248046875 m 4
 56.41015625 50.4248046875 53.583984375 50.13671875 42.4033203125 49.30859375 c 4
 27.8424509814 48.2301050442 16.166015625 40.376953125 16.1005859375 30.1240234375 c 4
 15.9912109375 12.9599609375 15.69140625 22.9755859375 15.69140625 6.91015625 c 4
 15.69140625 5.07298813711 15.690965277 3.3560759551 15.690965277 1.74125112825 c 4
 15.690965277 -13.8053957342 15.7318380996 -19.889788976 16.6005859375 -32.724609375 c 4
 16.9599609375 -38.029296875 19.9736328125 -45.2353515625 27.8203125 -45.701171875 c 4
 40.9417245031 -46.4801281321 58.9156160057 -47.2164356553 73.5821920019 -47.2164356553 c 4
 74.8596785875 -47.2164356553 76.1120734291 -47.2108494813 77.333984375 -47.19921875 c 4
 90.380859375 -47.072265625 101.272460938 -47.1923828125 116.771484375 -45.0576171875 c 4
 129.519486032 -43.3017649021 139.990234375 -33.818359375 139.990234375 -19.78125 c 6
 139.990234375 -19.78125 140.302286802 -3.29137086359 140.302286802 13.5735018216 c 4
 140.302286802 22.0059381642 140.224273695 30.532122894 139.990234375 37.1376953125 c 4
 139.715820312 44.8828125 133.534179688 48.7021484375 125.568359375 48.9931640625 c 4
 111.33210106 49.5132578442 89.5087890625 50.4248046875 72.6123046875 50.4248046875 c 4
EndSplineSet
Validated: 1
EndChar

StartChar: daggerdbl
Encoding: 224 8225 184
AltUni2: 00f0e0.ffffffff.0
Width: 432
Flags: MW
HStem: 0 20G
LayerCount: 2
Fore
SplineSet
432 -75 m 1
 381 -71 252 -35 178 -12 c 0
 110 9 64 33 0 58 c 1
 0 199 l 1
 74 169 115.312229424 144.961717362 169 127 c 0
 237 104.25 290 75 432 66 c 1
 432 -75 l 1
187.099609375 6.185546875 m 0
 237.104492188 -9.2568359375 329.880859375 -37.57421875 381.517578125 -47.578125 c 0
 384.993164062 -48.2509765625 387.984375 -48.640625 390.540039062 -48.640625 c 0
 399.813476562 -48.640625 403.333984375 -43.505859375 403.333984375 -28.150390625 c 2
 403.333984375 16.787109375 l 2
 403.333984375 35.0087890625 383.673007015 45.5048019704 369 47.265625 c 0
 294.568699936 56.197696466 251.305232137 77.387651873 172.650390625 102.235351562 c 0
 135.864022287 113.856462426 89.8466796875 137.79296875 46.9755859375 156.365234375 c 0
 44.09375 157.614257812 41.2578125 158.349609375 38.666015625 158.349609375 c 0
 31.943359375 158.349609375 26.859375 153.399414062 26.859375 139.608398438 c 2
 26.859375 92.408203125 l 2
 26.859375 74.7705078125 45.728515625 61.9755859375 57.33203125 57.267578125 c 0
 97.9609375 40.783203125 141.038900918 20.4098996302 187.099609375 6.185546875 c 0
EndSplineSet
Validated: 1
EndChar

StartChar: periodcentered
Encoding: 225 183 185
AltUni2: 00f0e1.ffffffff.0
Width: 448
Flags: MW
HStem: -136 21G 116 20G
LayerCount: 2
Fore
SplineSet
448 -75 m 1
 395 -54 262 16 185 63 c 0
 114 106 67 137 0 183 c 1
 0 324 l 1
 78 270 119 233 176 199 c 0
 246 156 300 121 448 65 c 1
 448 -75 l 1
196.16015625 80.7890625 m 4
 248.676757812 48.822265625 346.705078125 -5.9765625 401.979492188 -32.2060546875 c 0
 406.04085927 -34.1331568683 409.689993563 -35.2802480738 412.787265788 -35.2802480738 c 0
 419.589134545 -35.2802480738 423.729492188 -29.7480758725 423.729492188 -14.7958984375 c 2
 423.729492188 28.0546875 l 2
 423.729492188 45.6748046875 409.90234375 58.64453125 398.5 63.099609375 c 0
 292.270507812 104.602539062 232.048568445 143.723495404 175.280273438 178.229492188 c 0
 136.064453125 202.06640625 87.576171875 238.440429688 41.8154296875 271.602539062 c 0
 37.3938608847 274.806852348 33.0179753267 277.85831889 29.6115945423 277.85831889 c 0
 25.7322695142 277.85831889 23.1103515625 273.900694619 23.1103515625 261.704101562 c 2
 23.1103515625 215.80859375 l 2
 23.1103515625 191.348632812 39.6328125 179.793945312 50.5 172.599609375 c 0
 97.462890625 141.508789062 144.074251236 112.493694866 196.16015625 80.7890625 c 4
EndSplineSet
Validated: 1
EndChar

StartChar: quotesinglbase
Encoding: 226 8218 186
AltUni2: 00f0e2.ffffffff.0
Width: 538
Flags: MW
HStem: -142 21G 122 20G
LayerCount: 2
Fore
SplineSet
538 -75 m 1
 453 -45 306 59 216 126 c 0
 132 189 80 243 0 308 c 1
 0 449 l 1
 93 374 143 326 208 273 c 1
 296 203 342 158 538 68 c 1
 538 31 538 -51 538 -75 c 1
227.150390625 140.01953125 m 0
 299.388671875 87.328125 415.165039062 5.0322265625 493.961914062 -33.35546875 c 4
 498.916992188 -35.7705078125 503.100585938 -37.416015625 506.416992188 -37.416015625 c 4
 512.205078125 -37.416015625 515.3515625 -32.404296875 515.3515625 -17.71875 c 6
 515.3515625 36.841796875 l 6
 515.3515625 53.7275390625 513.072265625 62.9697265625 502.021484375 68.0986328125 c 4
 377.348632812 125.967773438 312.657215445 170.006577904 204.830078125 256.26953125 c 0
 154.021484375 296.916992188 103.221679688 339.369140625 40.8798828125 390.834960938 c 0
 37.1220703125 393.9375 33.2490234375 396.291992188 29.9951171875 396.291992188 c 0
 25.353515625 396.291992188 21.9697265625 391.501953125 21.9697265625 377.259765625 c 2
 21.9697265625 330.44921875 l 2
 21.9697265625 308.901367188 30.5283203125 302.696289062 41.5 293.5 c 0
 103.333984375 241.669921875 157.518603052 190.809732005 227.150390625 140.01953125 c 0
EndSplineSet
Validated: 1
EndChar

StartChar: quotedblbase
Encoding: 227 8222 187
AltUni2: 00f0e3.ffffffff.0
Width: 550
Flags: MW
HStem: -3 252
VStem: 9 186
LayerCount: 2
Fore
SplineSet
550 -75 m 1
 463 -24 313 95 223 185 c 0
 138 270 86 340 0 433 c 1
 0 574 l 1
 95 476 152 418 218 348 c 0
 303 259 361 185 550 68 c 1
 550 -75 l 1
234.580078125 195.48046875 m 0
 304.466796875 126.434570312 424.36101548 36.5568539286 482 -0.0009765625 c 0
 495.791194308 -8.7481144239 523.907226562 -26.6064453125 524.099609375 2.1396484375 c 6
 524.333007812 32 l 2
 524.489469354 55.3690696399 494.689439873 86.0427867768 481.333007812 94.6669921875 c 0
 374.017457758 163.960299203 315.124483295 219.921516498 212.01953125 329.900390625 c 0
 160.107421875 385.2734375 110.583984375 432.68359375 43.658203125 501.450195312 c 0
 33.5986328125 511.78515625 25.900390625 515.500976562 25.900390625 486.41015625 c 2
 25.900390625 447.400390625 l 2
 25.900390625 424.361328125 43.4677734375 404.413085938 53.6669921875 393.334960938 c 0
 125.221679688 315.61328125 160.65232948 268.518778688 234.580078125 195.48046875 c 0
EndSplineSet
Validated: 33
EndChar

StartChar: perthousand
Encoding: 228 8240 188
AltUni2: 00f0e4.ffffffff.0
Width: 668
Flags: MW
HStem: 53 150
VStem: 28 137
LayerCount: 2
Fore
SplineSet
668 -75 m 1
 562 -10 378 136 271 251 c 0
 168 361 99 455 0 558 c 1
 0 699 l 1
 115 580 187 507 266 418 c 0
 366 305 439 213 668 65 c 1
 668 -75 l 1
281 260 m 0
 380 154 551 20 658 -50 c 1
 658 58 l 1
 475 177 391 256 255 409 c 0
 182 491 111 560 10 664 c 1
 10 564 l 1
 107 463 180 369 281 260 c 0
EndSplineSet
Validated: 1
EndChar

StartChar: Acircumflex
Encoding: 229 194 189
AltUni2: 00f0e5.ffffffff.0
Width: 764
Flags: MW
HStem: -207 150 46 150 299 150 553 150 801 150
VStem: -1312 137 -1135 137
LayerCount: 2
Fore
SplineSet
764 -75 m 1
 643 4 439 186 313 321 c 0
 195 448 114 562 0 683 c 1
 0 824 l 1
 132 684 209 590 304 487 c 0
 423 359 509 267 764 65 c 1
 764 -75 l 1
323 330 m 0
 441 203 632 35 754 -49 c 1
 754 58 l 1
 502 258 412 350 294 478 c 0
 205 574 127 662 10 789 c 1
 10 689 l 1
 122 569 206 456 323 330 c 0
EndSplineSet
Validated: 1
EndChar

StartChar: fClef8va
Encoding: 230 202 190
AltUni2: 00f0e6.ffffffff.0
Width: 868
Flags: W
HStem: -586 21G -183 108 69 108 221 29 254 20
VStem: 210 28 210 42 357 32 357 44 603 110
LayerCount: 2
Fore
SplineSet
868 -75 m 1xfcc0
 730 18 484 230 354 382 c 0
 224 534 126 650 0 808 c 1
 0 949 l 1xfb40
 150 778 241 676 344 552 c 0
 475 394 613 259 868 66 c 1
 868 -75 l 1xfcc0
365 391 m 0
 487 248 718 50 858 -48 c 1
 858 59 l 1
 606 250 464 385 333 543 c 0
 236 660 145 758 10 912 c 1
 10 813 l 1
 134 657 236 542 365 391 c 0
EndSplineSet
Validated: 1
EndChar

StartChar: Aacute
Encoding: 231 193 191
AltUni2: 00f0e7.ffffffff.0
Width: 968
Flags: MW
HStem: -111 19 105 20G
VStem: -1 19
LayerCount: 2
Fore
SplineSet
968 -75 m 1
 814 35 556 281 393 462 c 1
 239 631 144 761 0 933 c 1
 0 1074 l 1
 170 876 265 763 385 623 c 0
 538 446 662 326 968 66 c 1
 968 -75 l 1
403 471 m 0
 558 299 803 69 958 -47 c 1
 958 60 l 1
 655 317 527 437 375 614 c 0
 260 747 165 856 10 1036 c 1
 10 938 l 1
 152 769 251 639 403 471 c 0
EndSplineSet
Validated: 1
EndChar

StartChar: Edieresis
Encoding: 232 203 192
AltUni2: 00f0e8.ffffffff.0
Width: 432
Flags: MW
HStem: -121 85
VStem: 86 85
LayerCount: 2
Fore
SplineSet
432 -75 m 1
 348 -69 275 -53 201 -26 c 0
 129 0 68 34 0 59 c 1
 0 199 l 1
 75 169 140 124 192 101 c 0
 262 70 339 28 432 57 c 1
 432 -75 l 1
207.299804688 -6.8837890625 m 0
 263.2421875 -26.6279296875 329.036132812 -41.337890625 390.86328125 -47.8994140625 c 0
 401.038085938 -48.9794921875 405.000976562 -45.689453125 405.000976562 -34.400390625 c 2
 405.000976562 17.509765625 l 2
 405.000976562 27.7939453125 401.690429688 35.26171875 393.038085938 34.09765625 c 0
 282.177734375 19.1875 135.679611582 115.298661976 37.916015625 159.969726562 c 0
 31.771484375 162.77734375 28.1279296875 156.376953125 28.1279296875 147.586914062 c 2
 28.1279296875 87.537109375 l 2
 28.1279296875 73.607421875 40.615234375 64.3056640625 47.333984375 61.599609375 c 0
 100.141601562 40.33203125 149.818123014 13.4036271908 207.299804688 -6.8837890625 c 0
EndSplineSet
Validated: 33
EndChar

StartChar: Egrave
Encoding: 233 200 193
AltUni2: 00f0e9.ffffffff.0
Width: 448
Flags: MW
VStem: -117 14 -46 14
LayerCount: 2
Fore
SplineSet
448 -75 m 1
 307 -69 255 -16 184 33 c 0
 116 80 59 131 0 183 c 1
 0 324 l 1
 87 236 124 213 175 169 c 0
 222.151206401 127.53945644 322.834558305 41.7992369711 399.682845238 41.7992369711 c 0
 417.364496823 41.7992369711 433.784339422 46.3382545666 448 57 c 1
 448 -75 l 1
400.333984375 -47.333984375 m 0
 416.225255966 -47.4495910009 426.541015625 -39.154296875 426.541015625 -22.009765625 c 2
 426.541015625 -4.4853515625 l 2
 426.541015625 21.0166015625 413.323612549 23.599609375 394.5 23.599609375 c 0
 318.697265625 23.599609375 217.244060708 108.590276532 170.059570312 149.751953125 c 0
 130.21484375 184.510742188 100.416015625 204.5859375 45.4404296875 256.473632812 c 0
 41.2197265625 260.456054688 37.15625 264.264648438 34.0888671875 264.264648438 c 0
 30.83203125 264.264648438 28.7001953125 259.969726562 28.7001953125 247.029296875 c 2
 28.7001953125 203.669921875 l 2
 28.7001953125 181.795898438 38.818359375 169.68359375 50.08984375 159.971679688 c 0
 111.999023438 106.627929688 175.149481811 57.2065911144 241.669921875 10.251953125 c 0
 286.251752674 -21.2169265768 344.49292403 -46.9277490064 400.333984375 -47.333984375 c 0
EndSplineSet
Validated: 33
EndChar

StartChar: Iacute
Encoding: 234 205 194
AltUni2: 00f0ea.ffffffff.0
Width: 538
Flags: MW
HStem: -223 21 -76 51 190 30 231 18 413 24
VStem: 2 93 275 161 492 25 613 59
LayerCount: 2
Fore
SplineSet
538 -75 m 1
 535.746038646 -75.0834800501 533.484672817 -75.1247110302 531.216447916 -75.1247110302 c 0
 424.801225836 -75.1247110302 303.288658972 15.6278609776 223 92 c 0
 143 168 81 239 0 308 c 1
 0 449 l 1
 92 364 168 282 229 225 c 0
 298.026803741 160.341981306 393.010952072 45.2961760559 493.94031695 45.2961760559 c 0
 508.522889366 45.2961760559 523.229570098 47.6977943941 538 53 c 1
 538 28.3333333333 538.444444444 -9.66666666667 538.444444444 -39.3703703704 c 0
 538.444444444 -54.2222222222 538.333333333 -67 538 -75 c 1
232 102 m 5
 307.414498293 31.2989078502 413.043025148 -47.4000153895 506.999995907 -59.5404290277 c 4
 533.320568533 -62.9413756137 525.385492823 -14.9917215288 524.134765625 0.6669921875 c 4
 521.992794325 27.4838035855 521.368981301 30.9153343479 494.263387293 30.9153343479 c 4
 387.072053547 30.9153343479 290.449617063 148.130486595 219 215 c 4
 167.734558419 263.469144768 104.305798819 329.314458133 30.3333520298 401.198524292 c 4
 26.5910313815 404.835192223 23.4028385477 407.02414814 20.8634726662 407.02414814 c 4
 16.4531908787 407.02414814 14 400.421485121 14 383.333007812 c 6
 14 334.333007812 l 6
 14 313.375 22.7830936518 306.582261773 33.3333333333 297.241170806 c 4
 103.250930542 235.33673494 160.478885061 170.770302826 232 102 c 5
EndSplineSet
Validated: 33
EndChar

StartChar: Icircumflex
Encoding: 235 206 195
AltUni2: 00f0eb.ffffffff.0
Width: 550
Flags: MW
HStem: 240 18 422 24
VStem: -1407 93 -1135 93 -917 25 -863 93 -645 25 -425 77
LayerCount: 2
Fore
SplineSet
550 -75 m 1
 429 -78 284 17 219 111 c 0
 144 218 77 327 0 433 c 1
 0 574 l 1
 87 462 143 380 202 297 c 0
 318 136 372 25 550 51 c 1
 550 -75 l 1
230 119 m 0
 291 31 424 -57 536 -61 c 1
 536 35 l 1
 352 16 281 164 191 289 c 0
 138 364 87 437 14 533 c 1
 14 438 l 1
 90 333 156 225 230 119 c 0
EndSplineSet
Validated: 33
EndChar

StartChar: Idieresis
Encoding: 236 207 196
AltUni2: 00f0ec.ffffffff.0
Width: 668
Flags: MW
HStem: 240 18 422 24
VStem: -930 93 -440 25 -386 93 -168 25 104 25
LayerCount: 2
Fore
SplineSet
668 -75 m 1
 433 -40 368 40 271 163 c 0
 178 281 87 444 0 558 c 1
 0 699 l 1
 118 562 194 443 266 348 c 0
 352 233 494 0 668 65 c 1
 668 -75 l 1
282 172 m 0
 376 53 437 -23 654 -59 c 1
 654 46 l 1
 479 0 342 223 254 340 c 0
 188 428 118 536 14 661 c 1
 14 563 l 1
 100 449 190 288 282 172 c 0
EndSplineSet
Validated: 33
EndChar

StartChar: Igrave
Encoding: 237 204 197
AltUni2: 00f0ed.ffffffff.0
Width: 764
Flags: MW
VStem: 16 19
LayerCount: 2
Fore
SplineSet
764 -75 m 1
 552 -38 421 44 313 188 c 0
 211 324 99 540 0 683 c 1
 0 824 l 1
 132 684 221 507 304 387 c 0
 402 246 593 14 764 54 c 1
 764 -75 l 1
324 196 m 0
 427 59 551 -20 750 -58 c 1
 750 37 l 1
 573 13 385 245 292 379 c 0
 198 515 124 662 14 788 c 1
 14 687 l 1
 112 544 223 331 324 196 c 0
EndSplineSet
Validated: 33
EndChar

StartChar: Oacute
Encoding: 238 211 198
AltUni2: 00f0ee.ffffffff.0
Width: 868
Flags: MW
HStem: 1 108
VStem: -132 281
LayerCount: 2
Fore
SplineSet
868 -75 m 1
 619 -81 454 125 336 289 c 0
 221 449 126 636 0 808 c 1
 0 949 l 1
 146 771 266 588 345 447 c 0
 443 271 665 12 868 52 c 1
 868 -75 l 1
347 297 m 0
 464 135 621 -59 854 -61 c 1
 854 36 l 1
 645 10 428 271 333 440 c 0
 259 572 148 742 14 909 c 1
 14 813 l 1
 139 642 233 456 347 297 c 0
EndSplineSet
Validated: 33
EndChar

StartChar: Ocircumflex
Encoding: 239 212 199
AltUni2: 00f0ef.ffffffff.0
Width: 968
Flags: MW
HStem: -388 21G 147 20G
LayerCount: 2
Fore
SplineSet
968 -75 m 1
 736 -85 527 184 381 375 c 0
 240 559 145 748 0 933 c 1
 0 1074 l 1
 170 876 278 693 385 543 c 0
 573 282 816 0 968 51 c 1
 968 -75 l 1
652 85 m 0
 746 0 848 -61 954 -61 c 1
 954 33 l 1
 718 -8 345 578 204 782 c 0
 149 863 88 948 14 1036 c 1
 14 938 l 1
 157 754 252 566 392 384 c 0
 465 288 553 174 652 85 c 0
EndSplineSet
Validated: 33
EndChar

StartChar: Ograve
Encoding: 241 210 200
AltUni2: 00f0f1.ffffffff.0
Width: 448
Flags: MW
HStem: 0 106 182 106 363 106 545 106 726 106 908 106
VStem: 18 19
LayerCount: 2
Fore
SplineSet
0 324 m 1
 86 285 185 235 264 190 c 0
 334 150 385 122 448 66 c 1
 448 -81 l 1
 389 -24 321 12 262 48 c 0
 193 90 116 133 0 183 c 1
 0 324 l 1
252.709960938 171.787109375 m 1
 193.615234375 204.977539062 108.942382812 248.217773438 42.564453125 279.127929688 c 0
 39.1201171875 280.732421875 36.47265625 281.551757812 34.439453125 281.551757812 c 0
 28.35546875 281.551757812 27.7744140625 274.205078125 27.7744140625 258.544921875 c 2
 27.7744140625 215.48046875 l 2
 27.7744140625 197.087890625 43.4375 183.1640625 56 177.5 c 0
 144.560546875 137.573242188 309.031260616 50.0634907706 396.403320312 -15.2197265625 c 0
 402.390625 -19.693359375 408.397460938 -24 412.999023438 -24 c 0
 417.893554688 -24 421.198242188 -19.126953125 421.198242188 -4.3994140625 c 2
 421.198242188 33.23046875 l 6
 421.198242188 55.5068359375 413.865234375 66.5126953125 402.057617188 75.8349609375 c 0
 360.024414062 109.020507812 299.444335938 144.650390625 252.709960938 171.787109375 c 1
EndSplineSet
Validated: 1
EndChar

StartChar: Uacute
Encoding: 242 218 201
AltUni2: 00f0f2.ffffffff.0
Width: 538
Flags: MW
HStem: 30 18 83 18
VStem: 130 19 211 141
LayerCount: 2
Fore
SplineSet
0 449 m 1
 85 419 234 325 324 258 c 0
 408 195 474 144 538 66 c 1
 538 -75 l 1
 453 10 377 70 315 119 c 0
 227 189 122 250 0 308 c 1
 0 345 0 425 0 449 c 1
312.709960938 243.485351562 m 1
 242.4453125 295.346679688 135.315429688 363.760742188 56.9599609375 401.356445312 c 0
 44.1328125 407.51171875 31.849609375 411.740234375 31.849609375 389.185546875 c 2
 31.849609375 330.905273438 l 2
 31.849609375 311.2578125 45.771484375 301.932617188 58.2001953125 295.750976562 c 0
 220.235351562 215.162109375 357.17578125 115.844726562 487.860351562 -7.78515625 c 0
 497.659179688 -17.0556640625 506.150390625 -21.02734375 506.150390625 6.025390625 c 2
 506.150390625 50.6650390625 l 2
 506.150390625 69.5419921875 500.548828125 77.275390625 492.200195312 86.6875 c 0
 438.811523438 146.874023438 382.838867188 190.459960938 312.709960938 243.485351562 c 1
EndSplineSet
Validated: 1
EndChar

StartChar: Ucircumflex
Encoding: 243 219 202
AltUni2: 00f0f3.ffffffff.0
Width: 550
Flags: MW
HStem: -217 21G 195 20G
LayerCount: 2
Fore
SplineSet
0 574 m 1
 87 523 235 410 327 322 c 0
 416 238 478 164 550 66 c 1
 550 -75 l 1
 468 32 406 97 338 165 c 0
 251 252 186 312 0 433 c 1
 0 574 l 1
315.419921875 309.025390625 m 0
 239.3671875 380.604492188 135.7578125 462.3828125 53.5 515.5 c 0
 43.8427734375 521.736328125 23.7802734375 534.037109375 23.7802734375 516.26171875 c 2
 23.7802734375 458.881835938 l 2
 23.7802734375 436.763671875 40.2492755375 421.95715139 77.5 397.5 c 0
 239.202263618 291.333561671 264.428854134 259.436380241 343.620117188 180.245117188 c 0
 396.982421875 126.8828125 451.303710938 71.400390625 499.5 14.75 c 0
 508.032226562 4.7216796875 528 -12.4287109375 528 14 c 2
 528 41.33984375 l 2
 528 73.5498046875 510.821741068 92.6255495547 480.5 130.25 c 4
 417.541015625 208.372070312 392.327244907 236.641969681 315.419921875 309.025390625 c 0
EndSplineSet
Validated: 1
EndChar

StartChar: Ugrave
Encoding: 244 217 203
AltUni2: 00f0f4.ffffffff.0
Width: 668
Flags: MW
HStem: -460 150 -207 150 46 150 300 150
VStem: -1318 137
LayerCount: 2
Fore
SplineSet
0 699 m 1
 118 626 280 505 394 397 c 0
 497 300 598 181 668 66 c 1
 668 -75 l 1
 576 74 480 180 391 261 c 0
 279 363 171 444 0 558 c 1
 0 699 l 1
384 387 m 0
 278 487 129 600 14 674 c 1
 14 565 l 1
 267 396 485 231 654 -27 c 1
 654 62 l 1
 585 175 486 291 384 387 c 0
EndSplineSet
Validated: 1
EndChar

StartChar: fClefFrench
Encoding: 245 305 204
AltUni2: 00f0f5.ffffffff.0
Width: 764
Flags: MW
HStem: -190 24 28 19
VStem: 158 19 251 42
LayerCount: 2
Fore
SplineSet
0 824 m 1
 121 745 322 588 451 456 c 0
 572 333 684 212 764 66 c 1
 764 -75 l 1
 661 80 570 182 458 292 c 0
 333 415 189 541 0 683 c 1
 0 824 l 1
441 446 m 0
 320 569 136 716 14 798 c 1
 14 690 l 1
 281 490 559 248 750 -29 c 1
 750 62 l 1
 671 205 561 324 441 446 c 0
EndSplineSet
Validated: 1
EndChar

StartChar: circumflex
Encoding: 246 710 205
AltUni2: 00f0f6.ffffffff.0
Width: 868
Flags: MW
HStem: -28 56
VStem: 120 56
LayerCount: 2
Fore
SplineSet
0 949 m 1
 141 865 367 673 516 521 c 0
 657 378 804 200 868 66 c 1
 868 -75 l 1
 727 123 628 236 523 347 c 0
 382 496 196 658 0 808 c 1
 0 949 l 1
506 512 m 0
 365 655 154 835 14 924 c 1
 14 815 l 1
 346 560 609 307 854 -32 c 1
 854 63 l 1
 790 194 646 369 506 512 c 0
EndSplineSet
Validated: 1
EndChar

StartChar: tilde
Encoding: 247 732 206
AltUni2: 00f0f7.ffffffff.0
Width: 968
Flags: MW
HStem: -99 22 77 22
VStem: 0 21<933 1074 1074 1074> 176 22
LayerCount: 2
Fore
SplineSet
0 1074 m 1
 182 938 408 764 574 586 c 0
 788 358 889 230 968 66 c 1
 968 -75 l 1
 847 123 678 313 578 421 c 0
 419 592 207 777 0 933 c 1
 0 1074 l 1
564 576 m 0
 405 746 192 913 14 1046 c 1
 14 940 l 1
 359 679 717 340 954 -26 c 1
 954 63 l 1
 876 223 776 350 564 576 c 0
EndSplineSet
Validated: 1
EndChar

StartChar: breve
Encoding: 249 728 207
AltUni2: 00f0f9.ffffffff.0
Width: 53
Flags: MW
HStem: -34 76
VStem: 146 79
LayerCount: 2
Fore
SplineSet
41 -296 m 5
 41.9462890625 -62.5859375 l 6
 41.9566037252 -59.9897817539 42.0428955842 -57.5512811637 42.0428955842 -55.3695547105 c 0
 42.0428955842 -49.3289080408 41.3813860653 -45.2566803806 36.614192766 -45.2566803806 c 0
 35.6045344249 -45.2566803806 34.4107103416 -45.4393454055 33 -45.824662163 c 4
 21.3643768756 -49.0027777849 10.3643768756 -55.2301426437 0 -64 c 5
 0 33.4140625 l 6
 0 42.544921875 1.6383084328 48.7339754845 6 52.7961735139 c 4
 22.6180367444 68.2731404373 37.8090183722 77.5320642271 53 82 c 5
 53 -292 l 5
 50.5313730334 -294.468626967 47.3856217223 -296.260129589 43.5627460668 -296.260129589 c 0
 42.7398704113 -296.260129589 41.8856217223 -296.177124344 41 -296 c 5
EndSplineSet
Validated: 1
EndChar

StartChar: chantOriscusAscending
Encoding: 250 729 208
AltUni2: 00e99c.ffffffff.0 00f0fa.ffffffff.0
Width: 128
Flags: MW
HStem: -127 35 96 32
VStem: -1351 28 -1098 36
LayerCount: 2
Fore
SplineSet
0 59 m 5
 10.3499867702 66.0568091615 21.5852811944 68.9084069661 32.4563938399 68.9084069661 c 0
 44.692989785 68.9084069661 56.4681709938 65.295460559 66 60 c 4
 82.0082685071 51.077358537 93.6777373319 47.6643039721 102.237408187 47.6643039721 c 0
 126.294626656 47.6643039721 125.787291894 74.6243063126 128 82 c 5
 128.845299462 62.5581123827 129.154700538 39.7222016613 129.154700538 16.2857346357 c 0
 129.154700538 -15.7290746962 128.577350269 -48.8645373481 128 -76 c 5
 121.749148622 -79.7951597651 115.7973264 -81.2977626736 110.200163892 -81.2977626736 c 0
 90.725453667 -81.2977626736 75.5443083873 -63.1070212317 67 -60 c 4
 59.0412206912 -56.7667459058 51.3917293126 -55.2655042202 44.2669118722 -55.2655042202 c 0
 22.7448540509 -55.2655042202 6.01030517281 -68.9639318952 0 -90 c 5
 1 -66 1.5 -39.25 1.5 -13.25 c 0
 1.5 12.75 1 38 0 59 c 5
EndSplineSet
Validated: 1
EndChar

StartChar: ring
Encoding: 251 730 209
AltUni2: 00f0fb.ffffffff.0
Width: 128
Flags: MW
HStem: -456 21G 0 21G 229 20G
LayerCount: 2
Fore
SplineSet
114 312 m 1
 126 311 125 310 128 303 c 1
 127.292893219 223.096933726 126.585786438 168.193867452 126.585786438 125.562879116 c 0
 126.585786438 107.90454557 126.707106781 92.3517677219 127 78 c 0
 127 44.5454545455 129.115702479 3.68595041322 129.115702479 -34.5770097671 c 0
 129.115702479 -48.9256198347 128.818181818 -62.9090909091 128 -76 c 1
 121.749148622 -79.7951597651 115.7973264 -81.2977626736 110.200163892 -81.2977626736 c 0
 90.725453667 -81.2977626736 75.5443083873 -63.1070212317 67 -60 c 0
 59.0412206912 -56.7667459058 51.3917293126 -55.2655042202 44.2669118722 -55.2655042202 c 0
 22.7448540509 -55.2655042202 6.01030517281 -68.9639318952 0 -90 c 1
 1 -66 1.5 -39.25 1.5 -13.25 c 0
 1.5 12.75 1 38 0 59 c 1
 10.3499867702 66.0568091615 21.5852811944 68.9084069661 32.4563938399 68.9084069661 c 0
 44.692989785 68.9084069661 56.4681709938 65.295460559 66 60 c 0
 82.3351793815 50.8522995464 93.9740084595 47.2548312696 102.590284863 47.2548312696 c 0
 111.76320531 47.2548312696 114 53.6748046875 114 63.5 c 6
 114 312 l 1
EndSplineSet
Validated: 1
EndChar

StartChar: chantOriscusDescending
Encoding: 252 184 210
AltUni2: 00e99d.ffffffff.0
Width: 128
Flags: W
HStem: 62 20G
LayerCount: 2
Fore
SplineSet
128 59 m 5
 129 37.5 129.5 12 129.5 -14 c 0
 129.5 -40 129 -66.5 128 -90 c 5
 121.989694827 -68.9639318952 105.255145949 -55.2655042202 83.7330881278 -55.2655042202 c 0
 76.6082706874 -55.2655042202 68.9587793088 -56.7667459058 61 -60 c 4
 52.4556916127 -63.1070212317 37.274546333 -81.2977626736 17.7998361081 -81.2977626736 c 0
 12.2026736004 -81.2977626736 6.25085137783 -79.7951597651 0 -76 c 5
 1.67944947177 -51.368074414 3.0455044404 -21.0950477716 3.0455044404 9.90666442162 c 0
 3.0455044404 34.2832998018 2.20091754705 59.1104575107 0 82 c 5
 2.21756660799 74.6081113067 1.70313229327 48.0922161545 25.9214166094 48.0922161545 c 0
 34.4664561487 48.0922161545 46.0905210291 51.3932326879 62 60 c 4
 72.3818119165 65.7099965541 84.6498091598 69.2643527348 96.7059180189 69.2643527348 c 0
 107.875251801 69.2643527348 118.862721321 66.2136410626 128 59 c 5
EndSplineSet
Validated: 1
EndChar

StartChar: hungarumlaut
Encoding: 253 733 211
AltUni2: 00f0fd.ffffffff.0
Width: 114
Flags: W
HStem: -83 126<45 58 36.5 97>
VStem: 1 130<-3 3.5>
LayerCount: 2
Fore
SplineSet
128 88 m 0
 130 65 131 43 131 21 c 0
 131 12.1111111111 131.342935528 2.94787379973 131.342935528 -6.08326982675 c 0
 131.342935528 -45.8203017833 124.703703704 -83 53 -83 c 0
 37 -83 18 -79 0 -63 c 1
 1 -44 1 -25 1 -6 c 0
 1 13 1 32 0 51 c 1
 13 47 29 43 44 43 c 0
 72 43 123 45 123 82 c 0
 123.000004855 82.3397910854 122.907666686 90.2725424859 125.947949017 90.2725424859 c 4
 127.036474508 90.2725424859 127.190983006 88.8090169944 128 88 c 0
EndSplineSet
Validated: 1
EndChar

